<?xml version="1.0" encoding="UTF-8" standalone="no"?>
<!-- Generator: Adobe Illustrator 19.0.0, SVG Export Plug-In . SVG Version: 6.00 Build 0)  -->

<svg
   xmlns:dc="http://purl.org/dc/elements/1.1/"
   xmlns:cc="http://creativecommons.org/ns#"
   xmlns:rdf="http://www.w3.org/1999/02/22-rdf-syntax-ns#"
   xmlns:svg="http://www.w3.org/2000/svg"
   xmlns="http://www.w3.org/2000/svg"
   xmlns:xlink="http://www.w3.org/1999/xlink"
   xmlns:sodipodi="http://sodipodi.sourceforge.net/DTD/sodipodi-0.dtd"
   xmlns:inkscape="http://www.inkscape.org/namespaces/inkscape"
   version="1.1"
   id="Layer_1"
   x="0px"
   y="0px"
   viewBox="350 -225 903 138.89999"
   xml:space="preserve"
   inkscape:version="0.91 r13725"
   sodipodi:docname="hiw-diagram.svg"
   width="903"
   height="138.89999"><metadata
     id="metadata4280"><rdf:RDF><cc:Work
         rdf:about=""><dc:format>image/svg+xml</dc:format><dc:type
           rdf:resource="http://purl.org/dc/dcmitype/StillImage" /><dc:title></dc:title></cc:Work></rdf:RDF></metadata><defs
     id="defs4278" /><sodipodi:namedview
     pagecolor="#ffffff"
     bordercolor="#666666"
     borderopacity="1"
     objecttolerance="10"
     gridtolerance="10"
     guidetolerance="10"
     inkscape:pageopacity="0"
     inkscape:pageshadow="2"
     inkscape:window-width="1676"
     inkscape:window-height="1035"
     id="namedview4276"
     showgrid="false"
     fit-margin-top="0"
     fit-margin-left="0"
     fit-margin-right="0"
     fit-margin-bottom="0"
     inkscape:zoom="0.891"
     inkscape:cx="451.5"
     inkscape:cy="-61.599998"
     inkscape:window-x="0"
     inkscape:window-y="0"
     inkscape:window-maximized="0"
     inkscape:current-layer="Layer_1" /><style
     type="text/css"
     id="style3837">
	.st0{fill:#FFFFFF;stroke:#7F7F7F;stroke-width:2;stroke-miterlimit:10;}
	.st1{fill:#161616;}
	.st2{fill:none;stroke:#7F7F7F;stroke-width:2;stroke-miterlimit:10;}
	.st3{fill:#7F7F7F;}
	.st4{fill:#63AF45;}
	.st5{fill:#F08D21;}
	.st6{fill:#29C2E4;}
	.st7{opacity:0.102;}
	.st8{clip-path:url(#SVGID_2_);fill:#161616;}
	.st9{fill:#FFFFFF;}
	.st10{opacity:0.149;}
	.st11{clip-path:url(#SVGID_4_);fill:#323F4C;}
	.st12{clip-path:url(#SVGID_6_);fill:#161616;}
	.st13{opacity:0.851;}
	.st14{clip-path:url(#SVGID_8_);fill:#161616;}
	.st15{clip-path:url(#SVGID_10_);fill:#161616;}
	.st16{fill:none;}
	.st17{fill:none;stroke:#63AF45;stroke-width:3;stroke-miterlimit:10;}
	.st18{fill:#864D9E;}
	.st19{fill:none;stroke:#864D9E;stroke-width:3;stroke-miterlimit:10;}
</style><rect
     x="351"
     y="-193.2"
     class="st0"
     width="236.39999"
     height="106.1"
     id="rect3839"
     style="fill:#ffffff;stroke:#7f7f7f;stroke-width:2;stroke-miterlimit:10" /><g
     id="g3841"
     transform="translate(-48.5,-49.5)"><path
       class="st1"
       d="m 435.9,-86.1 12.5,0 0,2.7 -9.6,0 0,4.6 8.5,0 0,2.7 -8.5,0 0,6.8 -3,0 c 0.1,0 0.1,-16.8 0.1,-16.8 z"
       id="path3843"
       inkscape:connector-curvature="0"
       style="fill:#161616" /><path
       class="st1"
       d="m 450.2,-75.6 0,0 c 0,-3.7 2.6,-6.6 6.2,-6.6 4,0 6.1,3.2 6.1,6.8 0,0.3 0,0.5 0,0.8 l -9.3,0 c 0.3,2.1 1.8,3.2 3.6,3.2 1.4,0 2.4,-0.5 3.4,-1.5 l 1.7,1.5 c -1.2,1.4 -2.9,2.4 -5.2,2.4 -3.7,0 -6.5,-2.7 -6.5,-6.6 z m 9.4,-0.9 c -0.2,-1.9 -1.3,-3.3 -3.2,-3.3 -1.8,0 -3,1.4 -3.3,3.3 l 6.5,0 z"
       id="path3845"
       inkscape:connector-curvature="0"
       style="fill:#161616" /><path
       class="st1"
       d="m 464.7,-75.6 0,0 c 0,-3.7 2.6,-6.6 6.2,-6.6 4,0 6.1,3.2 6.1,6.8 0,0.3 0,0.5 0,0.8 l -9.3,0 c 0.3,2.1 1.8,3.2 3.6,3.2 1.4,0 2.4,-0.5 3.4,-1.5 l 1.7,1.5 c -1.2,1.4 -2.9,2.4 -5.2,2.4 -3.7,0 -6.5,-2.7 -6.5,-6.6 z m 9.4,-0.9 c -0.2,-1.9 -1.3,-3.3 -3.2,-3.3 -1.8,0 -3,1.4 -3.3,3.3 l 6.5,0 z"
       id="path3847"
       inkscape:connector-curvature="0"
       style="fill:#161616" /><path
       class="st1"
       d="m 479.2,-75.6 0,0 c 0,-4.2 2.9,-6.6 5.9,-6.6 2.1,0 3.4,1.1 4.3,2.2 l 0,-6.8 2.9,0 0,17.5 -2.9,0 0,-2.1 c -0.9,1.3 -2.3,2.4 -4.3,2.4 -2.9,0 -5.9,-2.4 -5.9,-6.6 z m 10.3,0 0,0 c 0,-2.5 -1.7,-4.1 -3.7,-4.1 -2,0 -3.6,1.5 -3.6,4.1 l 0,0 c 0,2.4 1.7,4.1 3.6,4.1 2,0 3.7,-1.7 3.7,-4.1 z"
       id="path3849"
       inkscape:connector-curvature="0"
       style="fill:#161616" /><path
       class="st1"
       d="m 503.5,-86.1 7.5,0 c 2.1,0 3.8,0.6 4.8,1.7 0.9,0.9 1.4,2.2 1.4,3.6 l 0,0 c 0,2.8 -1.7,4.4 -4,5.1 l 4.5,6.4 -3.5,0 -4.1,-5.9 0,0 -3.6,0 0,5.9 -3,0 0,-16.8 0,0 z m 7.3,8.3 c 2.1,0 3.5,-1.1 3.5,-2.8 l 0,0 c 0,-1.8 -1.3,-2.8 -3.5,-2.8 l -4.3,0 0,5.6 c 0,0 4.3,0 4.3,0 z"
       id="path3851"
       inkscape:connector-curvature="0"
       style="fill:#161616" /><path
       class="st1"
       d="m 519.6,-75.6 0,0 c 0,-3.7 2.6,-6.6 6.2,-6.6 4,0 6.1,3.2 6.1,6.8 0,0.3 0,0.5 0,0.8 l -9.3,0 c 0.3,2.1 1.8,3.2 3.6,3.2 1.4,0 2.4,-0.5 3.4,-1.5 l 1.7,1.5 c -1.2,1.4 -2.9,2.4 -5.2,2.4 -3.7,0 -6.5,-2.7 -6.5,-6.6 z m 9.4,-0.9 c -0.2,-1.9 -1.3,-3.3 -3.2,-3.3 -1.8,0 -3,1.4 -3.3,3.3 l 6.5,0 z"
       id="path3853"
       inkscape:connector-curvature="0"
       style="fill:#161616" /><path
       class="st1"
       d="m 534.8,-66.9 1.1,-2.2 c 1.3,0.8 2.8,1.3 4.5,1.3 2.6,0 4,-1.3 4,-3.9 l 0,-1 c -1.1,1.4 -2.4,2.3 -4.5,2.3 -3,0 -5.8,-2.2 -5.8,-5.9 l 0,0 c 0,-3.7 2.8,-6 5.8,-6 2.1,0 3.5,1 4.4,2.2 l 0,-1.9 2.9,0 0,10.1 c 0,2.1 -0.6,3.7 -1.6,4.8 -1.2,1.2 -2.9,1.7 -5.2,1.7 -2.1,0 -4,-0.5 -5.6,-1.5 z m 9.6,-9.3 0,0 c 0,-2.1 -1.7,-3.6 -3.7,-3.6 -2,0 -3.6,1.4 -3.6,3.5 l 0,0 c 0,2.1 1.6,3.5 3.6,3.5 2,0.1 3.7,-1.4 3.7,-3.4 z"
       id="path3855"
       inkscape:connector-curvature="0"
       style="fill:#161616" /><path
       class="st1"
       d="m 550.9,-86.7 3.1,0 0,2.8 -3.1,0 0,-2.8 z m 0.1,4.7 2.9,0 0,12.7 -2.9,0 0,-12.7 z"
       id="path3857"
       inkscape:connector-curvature="0"
       style="fill:#161616" /><path
       class="st1"
       d="m 556.7,-70.9 1.3,-2 c 1.4,1 2.9,1.6 4.2,1.6 1.2,0 2,-0.5 2,-1.4 l 0,0 c 0,-1 -1.3,-1.3 -2.8,-1.8 -1.9,-0.5 -4,-1.3 -4,-3.7 l 0,0 c 0,-2.4 2,-3.9 4.5,-3.9 1.6,0 3.3,0.6 4.7,1.4 l -1.2,2.1 c -1.2,-0.7 -2.5,-1.2 -3.6,-1.2 -1.1,0 -1.8,0.5 -1.8,1.3 l 0,0 c 0,0.9 1.4,1.3 2.9,1.8 1.8,0.6 3.9,1.4 3.9,3.7 l 0,0 c 0,2.7 -2.1,4 -4.7,4 -1.8,0 -3.8,-0.7 -5.4,-1.9 z"
       id="path3859"
       inkscape:connector-curvature="0"
       style="fill:#161616" /><path
       class="st1"
       d="m 570.1,-72.8 0,-6.7 -1.6,0 0,-2.5 1.6,0 0,-3.5 2.9,0 0,3.5 3.4,0 0,2.5 -3.4,0 0,6.2 c 0,1.1 0.6,1.6 1.6,1.6 0.6,0 1.2,-0.1 1.8,-0.4 l 0,2.4 c -0.7,0.4 -1.5,0.6 -2.6,0.6 -2.2,0 -3.7,-0.9 -3.7,-3.7 z"
       id="path3861"
       inkscape:connector-curvature="0"
       style="fill:#161616" /><path
       class="st1"
       d="m 579.3,-82 2.9,0 0,2.9 c 0.8,-1.9 2.3,-3.2 4.5,-3.1 l 0,3.1 -0.2,0 c -2.5,0 -4.3,1.7 -4.3,5 l 0,4.8 -2.9,0 0,-12.7 z"
       id="path3863"
       inkscape:connector-curvature="0"
       style="fill:#161616" /><path
       class="st1"
       d="m 588.8,-66.1 1,-2.2 c 0.5,0.3 1.1,0.5 1.7,0.5 0.8,0 1.3,-0.4 1.8,-1.5 L 588,-82 l 3.1,0 3.6,9.4 3.3,-9.4 3,0 -5,13 c -1,2.6 -2.1,3.6 -4.2,3.6 -1.2,0 -2.1,-0.3 -3,-0.7 z"
       id="path3865"
       inkscape:connector-curvature="0"
       style="fill:#161616" /></g><rect
     x="1015.6"
     y="-193.2"
     class="st0"
     width="236.39999"
     height="106.1"
     id="rect3867"
     style="fill:#ffffff;stroke:#7f7f7f;stroke-width:2;stroke-miterlimit:10" /><g
     id="g3869"
     transform="translate(-48.5,-49.5)"><path
       class="st1"
       d="m 1115.8,-86.1 6.6,0 c 3.9,0 6.4,2.2 6.4,5.6 l 0,0 c 0,3.8 -3,5.7 -6.7,5.7 l -3.3,0 0,5.4 -3,0 0,-16.7 z m 6.3,8.7 c 2.2,0 3.6,-1.2 3.6,-3 l 0,0 c 0,-2 -1.4,-3 -3.6,-3 l -3.4,0 0,6 3.4,0 0,0 z"
       id="path3871"
       inkscape:connector-curvature="0"
       style="fill:#161616" /><path
       class="st1"
       d="m 1131.6,-86.8 2.9,0 0,17.5 -2.9,0 0,-17.5 z"
       id="path3873"
       inkscape:connector-curvature="0"
       style="fill:#161616" /><path
       class="st1"
       d="m 1146.1,-69.3 0,-1.6 c -0.9,1 -2.2,1.8 -4.1,1.8 -2.4,0 -4.5,-1.4 -4.5,-3.9 l 0,0 c 0,-2.8 2.2,-4.2 5.1,-4.2 1.5,0 2.5,0.2 3.5,0.5 l 0,-0.2 c 0,-1.8 -1.1,-2.7 -3.1,-2.7 -1.4,0 -2.5,0.3 -3.6,0.8 l -0.8,-2.3 c 1.4,-0.6 2.8,-1.1 4.8,-1.1 3.7,0 5.6,2 5.6,5.4 l 0,7.5 -2.9,0 0,0 z m 0,-5.3 c -0.7,-0.3 -1.8,-0.5 -2.9,-0.5 -1.8,0 -2.9,0.7 -2.9,2 l 0,0 c 0,1.2 1.1,1.9 2.4,1.9 1.9,0 3.4,-1.1 3.4,-2.7 l 0,-0.7 0,0 z"
       id="path3875"
       inkscape:connector-curvature="0"
       style="fill:#161616" /><path
       class="st1"
       d="m 1151.5,-66.1 1,-2.2 c 0.5,0.3 1.1,0.5 1.7,0.5 0.8,0 1.3,-0.4 1.8,-1.5 l -5.3,-12.7 3.1,0 3.6,9.4 3.3,-9.4 3,0 -5,13 c -1,2.6 -2.1,3.6 -4.2,3.6 -1.2,0 -2.1,-0.3 -3,-0.7 z"
       id="path3877"
       inkscape:connector-curvature="0"
       style="fill:#161616" /><path
       class="st1"
       d="m 1165.6,-66.9 1.1,-2.2 c 1.3,0.8 2.8,1.3 4.5,1.3 2.6,0 4,-1.3 4,-3.9 l 0,-1 c -1.1,1.4 -2.4,2.3 -4.5,2.3 -3,0 -5.8,-2.2 -5.8,-5.9 l 0,0 c 0,-3.7 2.8,-6 5.8,-6 2.1,0 3.5,1 4.4,2.2 l 0,-1.9 2.9,0 0,10.1 c 0,2.1 -0.6,3.7 -1.6,4.8 -1.1,1.2 -2.9,1.7 -5.2,1.7 -2,0 -4,-0.5 -5.6,-1.5 z m 9.6,-9.3 0,0 c 0,-2.1 -1.7,-3.6 -3.7,-3.6 -2,0 -3.6,1.4 -3.6,3.5 l 0,0 c 0,2.1 1.6,3.5 3.6,3.5 2,0.1 3.7,-1.4 3.7,-3.4 z"
       id="path3879"
       inkscape:connector-curvature="0"
       style="fill:#161616" /><path
       class="st1"
       d="m 1181.7,-82 2.9,0 0,2.9 c 0.8,-1.9 2.3,-3.2 4.5,-3.1 l 0,3.1 -0.2,0 c -2.5,0 -4.3,1.7 -4.3,5 l 0,4.8 -2.9,0 0,-12.7 0,0 z"
       id="path3881"
       inkscape:connector-curvature="0"
       style="fill:#161616" /><path
       class="st1"
       d="m 1190.5,-75.6 0,0 c 0,-3.7 2.9,-6.7 6.8,-6.7 3.9,0 6.7,3 6.7,6.6 l 0,0 c 0,3.6 -2.9,6.6 -6.8,6.6 -3.8,0.1 -6.7,-2.9 -6.7,-6.5 z m 10.6,0 0,0 c 0,-2.3 -1.6,-4.1 -3.9,-4.1 -2.3,0 -3.8,1.8 -3.8,4 l 0,0 c 0,2.2 1.6,4.1 3.9,4.1 2.3,0.1 3.8,-1.8 3.8,-4 z"
       id="path3883"
       inkscape:connector-curvature="0"
       style="fill:#161616" /><path
       class="st1"
       d="m 1206.8,-73.9 0,-8.1 2.9,0 0,7.2 c 0,2 1,3.1 2.7,3.1 1.7,0 2.9,-1.2 2.9,-3.1 l 0,-7.2 2.9,0 0,12.7 -2.9,0 0,-2 c -0.8,1.2 -2,2.2 -4,2.2 -2.8,0.1 -4.5,-1.8 -4.5,-4.8 z"
       id="path3885"
       inkscape:connector-curvature="0"
       style="fill:#161616" /><path
       class="st1"
       d="m 1221.8,-82 2.9,0 0,2 c 0.8,-1.2 2,-2.2 4,-2.2 2.9,0 4.5,1.9 4.5,4.9 l 0,8.1 -2.9,0 0,-7.2 c 0,-2 -1,-3.1 -2.7,-3.1 -1.7,0 -2.9,1.2 -2.9,3.1 l 0,7.2 -2.9,0 0,-12.8 0,0 z"
       id="path3887"
       inkscape:connector-curvature="0"
       style="fill:#161616" /><path
       class="st1"
       d="m 1236.1,-75.6 0,0 c 0,-4.2 2.9,-6.6 5.9,-6.6 2.1,0 3.4,1.1 4.3,2.2 l 0,-6.8 2.9,0 0,17.5 -2.9,0 0,-2.1 c -0.9,1.3 -2.3,2.4 -4.3,2.4 -3,0 -5.9,-2.4 -5.9,-6.6 z m 10.2,0 0,0 c 0,-2.5 -1.7,-4.1 -3.7,-4.1 -2,0 -3.6,1.5 -3.6,4.1 l 0,0 c 0,2.4 1.7,4.1 3.6,4.1 2,0 3.7,-1.7 3.7,-4.1 z"
       id="path3889"
       inkscape:connector-curvature="0"
       style="fill:#161616" /></g><rect
     x="684.09998"
     y="-193.2"
     class="st0"
     width="236.39999"
     height="106.1"
     id="rect3891"
     style="fill:#ffffff;stroke:#7f7f7f;stroke-width:2;stroke-miterlimit:10" /><g
     id="g3893"
     transform="translate(-48.5,-49.5)"><path
       class="st1"
       d="m 794.1,-86.1 6.3,0 c 5.3,0 8.9,3.6 8.9,8.4 l 0,0 c 0,4.7 -3.6,8.4 -8.9,8.4 l -6.3,0 0,-16.8 z m 6.3,14.1 c 3.5,0 5.8,-2.4 5.8,-5.7 l 0,0 c 0,-3.3 -2.3,-5.7 -5.8,-5.7 l -3.3,0 0,11.4 c 0,0 3.3,0 3.3,0 z"
       id="path3895"
       inkscape:connector-curvature="0"
       style="fill:#161616" /><path
       class="st1"
       d="m 820.3,-69.3 0,-1.6 c -0.9,1 -2.2,1.8 -4.1,1.8 -2.4,0 -4.5,-1.4 -4.5,-3.9 l 0,0 c 0,-2.8 2.2,-4.2 5.1,-4.2 1.5,0 2.5,0.2 3.5,0.5 l 0,-0.2 c 0,-1.8 -1.1,-2.7 -3.1,-2.7 -1.4,0 -2.5,0.3 -3.6,0.8 l -0.8,-2.3 c 1.4,-0.6 2.8,-1.1 4.8,-1.1 3.7,0 5.6,2 5.6,5.4 l 0,7.5 -2.9,0 0,0 z m 0.1,-5.3 c -0.7,-0.3 -1.8,-0.5 -2.9,-0.5 -1.8,0 -2.9,0.7 -2.9,2 l 0,0 c 0,1.2 1.1,1.9 2.4,1.9 1.9,0 3.4,-1.1 3.4,-2.7 l 0,-0.7 0,0 z"
       id="path3897"
       inkscape:connector-curvature="0"
       style="fill:#161616" /><path
       class="st1"
       d="m 827.1,-72.8 0,-6.7 -1.6,0 0,-2.5 1.6,0 0,-3.5 2.9,0 0,3.5 3.4,0 0,2.5 -3.4,0 0,6.2 c 0,1.1 0.6,1.6 1.6,1.6 0.6,0 1.2,-0.1 1.8,-0.4 l 0,2.4 c -0.7,0.4 -1.5,0.6 -2.6,0.6 -2.2,0 -3.7,-0.9 -3.7,-3.7 z"
       id="path3899"
       inkscape:connector-curvature="0"
       style="fill:#161616" /><path
       class="st1"
       d="m 844.1,-69.3 0,-1.6 c -0.9,1 -2.2,1.8 -4.1,1.8 -2.4,0 -4.5,-1.4 -4.5,-3.9 l 0,0 c 0,-2.8 2.2,-4.2 5.1,-4.2 1.5,0 2.5,0.2 3.5,0.5 l 0,-0.2 c 0,-1.8 -1.1,-2.7 -3.1,-2.7 -1.4,0 -2.5,0.3 -3.6,0.8 l -0.8,-2.3 c 1.4,-0.6 2.8,-1.1 4.8,-1.1 3.7,0 5.6,2 5.6,5.4 l 0,7.5 -2.9,0 0,0 z m 0.1,-5.3 c -0.7,-0.3 -1.8,-0.5 -2.9,-0.5 -1.8,0 -2.9,0.7 -2.9,2 l 0,0 c 0,1.2 1.1,1.9 2.4,1.9 1.9,0 3.4,-1.1 3.4,-2.7 l 0,-0.7 0,0 z"
       id="path3901"
       inkscape:connector-curvature="0"
       style="fill:#161616" /><path
       class="st1"
       d="m 849.4,-70.9 1.3,-2 c 1.4,1 2.9,1.6 4.2,1.6 1.2,0 2,-0.5 2,-1.4 l 0,0 c 0,-1 -1.3,-1.3 -2.8,-1.8 -1.9,-0.5 -4,-1.3 -4,-3.7 l 0,0 c 0,-2.4 2,-3.9 4.5,-3.9 1.6,0 3.3,0.6 4.7,1.4 l -1.2,2.1 c -1.2,-0.7 -2.5,-1.2 -3.6,-1.2 -1.1,0 -1.8,0.5 -1.8,1.3 l 0,0 c 0,0.9 1.4,1.3 2.9,1.8 1.8,0.6 3.9,1.4 3.9,3.7 l 0,0 c 0,2.7 -2.1,4 -4.7,4 -1.8,0 -3.8,-0.7 -5.4,-1.9 z"
       id="path3903"
       inkscape:connector-curvature="0"
       style="fill:#161616" /><path
       class="st1"
       d="m 862.8,-72.8 0,-6.7 -1.6,0 0,-2.5 1.6,0 0,-3.5 2.9,0 0,3.5 3.4,0 0,2.5 -3.4,0 0,6.2 c 0,1.1 0.6,1.6 1.6,1.6 0.6,0 1.2,-0.1 1.8,-0.4 l 0,2.4 c -0.7,0.4 -1.5,0.6 -2.6,0.6 -2.2,0 -3.7,-0.9 -3.7,-3.7 z"
       id="path3905"
       inkscape:connector-curvature="0"
       style="fill:#161616" /><path
       class="st1"
       d="m 871,-75.6 0,0 c 0,-3.7 2.9,-6.7 6.8,-6.7 3.9,0 6.7,3 6.7,6.6 l 0,0 c 0,3.6 -2.9,6.6 -6.8,6.6 -3.8,0.1 -6.7,-2.9 -6.7,-6.5 z m 10.6,0 0,0 c 0,-2.3 -1.6,-4.1 -3.9,-4.1 -2.3,0 -3.8,1.8 -3.8,4 l 0,0 c 0,2.2 1.6,4.1 3.9,4.1 2.3,0.1 3.8,-1.8 3.8,-4 z"
       id="path3907"
       inkscape:connector-curvature="0"
       style="fill:#161616" /><path
       class="st1"
       d="m 887.5,-82 2.9,0 0,2.9 c 0.8,-1.9 2.3,-3.2 4.5,-3.1 l 0,3.1 -0.2,0 c -2.5,0 -4.3,1.7 -4.3,5 l 0,4.8 -2.9,0 0,-12.7 0,0 z"
       id="path3909"
       inkscape:connector-curvature="0"
       style="fill:#161616" /><path
       class="st1"
       d="m 896.2,-75.6 0,0 c 0,-3.7 2.6,-6.6 6.2,-6.6 4,0 6.1,3.2 6.1,6.8 0,0.3 0,0.5 0,0.8 l -9.3,0 c 0.3,2.1 1.8,3.2 3.6,3.2 1.4,0 2.4,-0.5 3.4,-1.5 l 1.7,1.5 c -1.2,1.4 -2.9,2.4 -5.2,2.4 -3.6,0 -6.5,-2.7 -6.5,-6.6 z m 9.4,-0.9 c -0.2,-1.9 -1.3,-3.3 -3.2,-3.3 -1.8,0 -3,1.4 -3.3,3.3 l 6.5,0 z"
       id="path3911"
       inkscape:connector-curvature="0"
       style="fill:#161616" /></g><g
     id="g3913"
     transform="translate(-48.5,-49.5)"><g
       id="g3915"><line
         class="st2"
         x1="638.29999"
         y1="-90.599998"
         x2="729.79999"
         y2="-90.599998"
         id="line3917"
         style="fill:none;stroke:#7f7f7f;stroke-width:2;stroke-miterlimit:10" /><g
         id="g3919"><path
           class="st3"
           d="m 652,-81 c 0.3,-0.5 0.2,-1.1 -0.3,-1.4 l -12.9,-8.2 12.9,-8.2 c 0.5,-0.3 0.6,-0.9 0.3,-1.4 -0.3,-0.5 -0.9,-0.6 -1.4,-0.3 l -14.2,9.1 c -0.3,0.2 -0.5,0.5 -0.5,0.8 0,0.3 0.2,0.7 0.5,0.8 l 14.2,9.1 c 0.2,0.1 0.4,0.2 0.5,0.2 0.4,-0.1 0.7,-0.2 0.9,-0.5 z"
           id="path3921"
           inkscape:connector-curvature="0"
           style="fill:#7f7f7f" /></g><g
         id="g3923"><path
           class="st3"
           d="m 716.1,-81 c -0.3,-0.5 -0.2,-1.1 0.3,-1.4 l 12.9,-8.2 -12.9,-8.2 c -0.5,-0.3 -0.6,-0.9 -0.3,-1.4 0.3,-0.5 0.9,-0.6 1.4,-0.3 l 14.2,9.1 c 0.3,0.2 0.5,0.5 0.5,0.8 0,0.3 -0.2,0.7 -0.5,0.8 l -14.2,9.1 c -0.2,0.1 -0.4,0.2 -0.5,0.2 -0.4,-0.1 -0.7,-0.2 -0.9,-0.5 z"
           id="path3925"
           inkscape:connector-curvature="0"
           style="fill:#7f7f7f" /></g></g></g><g
     id="g3927"
     transform="translate(-48.5,-49.5)"><g
       id="g3929"><line
         class="st2"
         x1="968.40002"
         y1="-90.599998"
         x2="1062.2"
         y2="-90.599998"
         id="line3931"
         style="fill:none;stroke:#7f7f7f;stroke-width:2;stroke-miterlimit:10" /><g
         id="g3933"><path
           class="st3"
           d="m 1048.5,-81 c -0.3,-0.5 -0.2,-1.1 0.3,-1.4 l 12.9,-8.2 -12.9,-8.2 c -0.5,-0.3 -0.6,-0.9 -0.3,-1.4 0.3,-0.5 0.9,-0.6 1.4,-0.3 l 14.2,9.1 c 0.3,0.2 0.5,0.5 0.5,0.8 0,0.3 -0.2,0.7 -0.5,0.8 l -14.2,9.1 c -0.2,0.1 -0.4,0.2 -0.5,0.2 -0.4,-0.1 -0.7,-0.2 -0.9,-0.5 z"
           id="path3935"
           inkscape:connector-curvature="0"
           style="fill:#7f7f7f" /></g></g></g><g
     id="g3937"
     transform="translate(-48.5,-49.5)"><path
       class="st4"
       d="m 836.3,-162.9 c 1.6,0 2.9,-1.3 2.9,-2.9 0,-1.6 -1.3,-2.9 -2.9,-2.9 -1.6,0 -2.9,1.3 -2.9,2.9 0,1.6 1.3,2.9 2.9,2.9 m 0,23.5 c -1.6,0 -2.9,1.3 -2.9,2.9 0,1.6 1.3,2.9 2.9,2.9 1.6,0 2.9,-1.3 2.9,-2.9 0.1,-1.6 -1.2,-2.9 -2.9,-2.9 m 0,14 c -1.6,0 -2.9,1.3 -2.9,2.9 0,1.6 1.3,2.9 2.9,2.9 1.6,0 2.9,-1.3 2.9,-2.9 0.1,-1.6 -1.2,-2.9 -2.9,-2.9"
       id="path3939"
       inkscape:connector-curvature="0"
       style="fill:#63af45" /><path
       class="st5"
       d="m 836.3,-154.1 c -1.6,0 -2.9,1.3 -2.9,2.9 0,1.6 1.3,2.9 2.9,2.9 1.6,0 2.9,-1.3 2.9,-2.9 0.1,-1.6 -1.2,-2.9 -2.9,-2.9"
       id="path3941"
       inkscape:connector-curvature="0"
       style="fill:#f08d21" /><path
       class="st6"
       d="m 867.2,-164.4 c 0.8,0 1.5,-0.7 1.5,-1.5 0,-0.8 -0.7,-1.5 -1.5,-1.5 -0.8,0 -1.5,0.7 -1.5,1.5 0.1,0.8 0.7,1.5 1.5,1.5 m -4.4,-2.9 c -0.8,0 -1.5,0.7 -1.5,1.5 0,0.8 0.7,1.5 1.5,1.5 0.8,0 1.5,-0.7 1.5,-1.5 0,-0.9 -0.7,-1.5 -1.5,-1.5 m 4.4,14.7 c -0.8,0 -1.5,0.7 -1.5,1.5 0,0.8 0.7,1.5 1.5,1.5 0.8,0 1.5,-0.7 1.5,-1.5 0,-0.9 -0.7,-1.5 -1.5,-1.5"
       id="path3943"
       inkscape:connector-curvature="0"
       style="fill:#29c2e4" /><path
       class="st6"
       d="m 867.2,-134.2 c 0.8,0 1.5,-0.7 1.5,-1.5 0,-0.8 -0.7,-1.5 -1.5,-1.5 -0.8,0 -1.5,0.7 -1.5,1.5 0.1,0.8 0.7,1.5 1.5,1.5 m -4.4,-3 c -0.8,0 -1.5,0.7 -1.5,1.5 0,0.8 0.7,1.5 1.5,1.5 0.8,0 1.5,-0.7 1.5,-1.5 0,-0.8 -0.7,-1.5 -1.5,-1.5 m 4.4,14.7 c -0.8,0 -1.5,0.7 -1.5,1.5 0,0.8 0.7,1.5 1.5,1.5 0.8,0 1.5,-0.7 1.5,-1.5 0,-0.8 -0.7,-1.5 -1.5,-1.5 m -4.4,0 c -0.8,0 -1.5,0.7 -1.5,1.5 0,0.8 0.7,1.5 1.5,1.5 0.8,0 1.5,-0.7 1.5,-1.5 0,-0.8 -0.7,-1.5 -1.5,-1.5"
       id="path3945"
       inkscape:connector-curvature="0"
       style="fill:#29c2e4" /><g
       class="st7"
       id="g3947"
       style="opacity:0.10199998"><g
         id="g3949"><g
           id="g3951"><g
             id="g3953"><g
               id="g3955"><defs
                 id="defs3957"><rect
                   id="SVGID_1_"
                   x="843"
                   y="-172.5"
                   width="4.4000001"
                   height="57.400002" /></defs><clipPath
                 id="SVGID_2_"><use
                   xlink:href="#SVGID_1_"
                   style="overflow:visible"
                   id="use3961"
                   x="0"
                   y="0"
                   width="100%"
                   height="100%" /></clipPath><path
                 class="st8"
                 d="m 843,-159.3 1.5,0 0,-1.5 -1.5,0 0,1.5 z m 1.4,1.5 1.5,0 0,-1.5 -1.5,0 0,1.5 z m 3,0 -1.5,0 0,1.5 1.5,0 0,-1.5 z m -4.4,1.5 1.5,0 0,-1.5 -1.5,0 0,1.5 z m 1.4,1.5 1.5,0 0,-1.5 -1.5,0 0,1.5 z m 3,0 -1.5,0 0,1.5 1.5,0 0,-1.5 z m -4.4,1.4 1.5,0 0,-1.5 -1.5,0 0,1.5 z m 1.4,1.5 1.5,0 0,-1.5 -1.5,0 0,1.5 z m 3,-8.8 -1.5,0 0,1.5 1.5,0 0,-1.5 z m -4.4,10.3 1.5,0 0,-1.5 -1.5,0 0,1.5 z m 1.4,1.4 1.5,0 0,-1.5 -1.5,0 0,1.5 z m 3,0 -1.5,0 0,1.5 1.5,0 0,-1.5 z m -4.4,1.5 1.5,0 0,-1.5 -1.5,0 0,1.5 z m 1.4,1.5 1.5,0 0,-1.5 -1.5,0 0,1.5 z m 3,0 -1.5,0 0,1.5 1.5,0 0,-1.5 z m -4.4,1.5 1.5,0 0,-1.5 -1.5,0 0,1.5 z m 1.4,1.4 1.5,0 0,-1.5 -1.5,0 0,1.5 z m 3,-8.8 -1.5,0 0,1.5 1.5,0 0,-1.5 z m -4.4,10.3 1.5,0 0,-1.5 -1.5,0 0,1.5 z m 1.4,1.5 1.5,0 0,-1.5 -1.5,0 0,1.5 z m 3,0 -1.5,0 0,1.5 1.5,0 0,-1.5 z m -4.4,1.4 1.5,0 0,-1.5 -1.5,0 0,1.5 z m 1.4,1.5 1.5,0 0,-1.5 -1.5,0 0,1.5 z m 3,0 -1.5,0 0,1.5 1.5,0 0,-1.5 z m -4.4,1.5 1.5,0 0,-1.5 -1.5,0 0,1.5 z m 1.4,1.5 1.5,0 0,-1.5 -1.5,0 0,1.5 z m 3,-8.9 -1.5,0 0,1.5 1.5,0 0,-1.5 z m -4.4,10.3 1.5,0 0,-1.5 -1.5,0 0,1.5 z m 1.4,1.5 1.5,0 0,-1.5 -1.5,0 0,1.5 z m 3,0 -1.5,0 0,1.5 1.5,0 0,-1.5 z m -4.4,1.5 1.5,0 0,-1.5 -1.5,0 0,1.5 z m 4.4,-4.4 -1.5,0 0,1.5 1.5,0 0,-1.5 z m -4.4,-33.9 1.5,0 0,-1.5 -1.5,0 0,1.5 z m 2.9,0 -1.5,0 0,1.5 1.5,0 0,-1.5 z m 1.5,1.5 -1.5,0 0,1.5 1.5,0 0,-1.5 z m -4.4,1.5 1.5,0 0,-1.5 -1.5,0 0,1.5 z m 2.9,0 -1.5,0 0,1.5 1.5,0 0,-1.5 z m 1.5,1.4 -1.5,0 0,1.5 1.5,0 0,-1.5 z m -4.4,1.5 1.5,0 0,-1.5 -1.5,0 0,1.5 z m 2.9,0 -1.5,0 0,1.5 1.5,0 0,-1.5 z m 1.5,-7.3 -1.5,0 0,1.5 1.5,0 0,-1.5 z m 0,-3 -1.5,0 0,1.5 1.5,0 0,-1.5 z m -4.4,1.5 1.5,0 0,-1.5 -1.5,0 0,1.5 z m 2.9,0 -1.5,0 0,1.5 1.5,0 0,-1.5 z m -1.5,42.6 1.5,0 0,-1.5 -1.5,0 0,1.5 z m 3,0 -1.5,0 0,1.5 1.5,0 0,-1.5 z m -4.4,1.5 1.5,0 0,-1.5 -1.5,0 0,1.5 z m 1.4,1.5 1.5,0 0,-1.5 -1.5,0 0,1.5 z m 3,0 -1.5,0 0,1.5 1.5,0 0,-1.5 z m -4.4,1.4 1.5,0 0,-1.5 -1.5,0 0,1.5 z m 1.4,1.5 1.5,0 0,-1.5 -1.5,0 0,1.5 z m -1.4,1.5 1.5,0 0,-1.5 -1.5,0 0,1.5 z m 1.4,1.5 1.5,0 0,-1.5 -1.5,0 0,1.5 z m 3,-3 -1.5,0 0,1.5 1.5,0 0,-1.5 z m -4.4,4.4 1.5,0 0,-1.5 -1.5,0 0,1.5 z m 1.4,1.5 1.5,0 0,-1.5 -1.5,0 0,1.5 z m 3,0 -1.5,0 0,1.5 1.5,0 0,-1.5 z m -4.4,1.5 1.5,0 0,-1.5 -1.5,0 0,1.5 z m 4.4,-4.4 -1.5,0 0,1.5 1.5,0 0,-1.5 z"
                 id="path3963"
                 clip-path="url(#SVGID_2_)"
                 inkscape:connector-curvature="0"
                 style="fill:#161616" /></g></g></g></g></g><rect
       x="829.70001"
       y="-144.5"
       class="st1"
       width="42.700001"
       height="1.5"
       id="rect3965"
       style="fill:#161616" /><rect
       x="829.70001"
       y="-159.3"
       class="st1"
       width="42.700001"
       height="1.5"
       id="rect3967"
       style="fill:#161616" /><path
       class="st1"
       d="m 829.7,-128.4 42.5,0 c 0.3,-0.5 0.6,-1 1,-1.5 l -43.5,0 0,1.5 z"
       id="path3969"
       inkscape:connector-curvature="0"
       style="fill:#161616" /><path
       class="st1"
       d="m 868.9,-112.2 c 3.2,0 5.9,-2.6 5.9,-5.9 l 0,-51.5 c 0,-3.2 -2.6,-5.9 -5.9,-5.9 l -36.2,0 c -3.2,0 -5.9,2.6 -5.9,5.9 l 0,51.5 c 0,3.2 2.6,5.9 5.9,5.9 l 36.2,0 0,0 z m -36.2,-2.9 c -1.6,0 -2.9,-1.3 -2.9,-2.9 l 0,-51.5 c 0,-1.6 1.3,-2.9 2.9,-2.9 l 36.2,0 c 1.6,0 2.9,1.3 2.9,2.9 l 0,51.5 c 0,1.6 -1.3,2.9 -2.9,2.9 0,0 -36.2,0 -36.2,0 z"
       id="path3971"
       inkscape:connector-curvature="0"
       style="fill:#161616" /></g><g
     id="g3973"
     transform="translate(-48.5,-49.5)"><path
       class="st9"
       d="m 1205.4,-153.7 c 0,-0.2 -0.2,-0.8 -0.2,-0.9 -0.1,-0.6 -0.3,-0.7 -0.8,-1 -0.4,-0.3 -0.8,-0.4 -1.3,-0.4 l -56.2,0 c -0.5,0 -0.9,0.1 -1.3,0.4 -0.5,0.3 -0.9,0.9 -1,1.5 0,0.2 0,0.3 0,0.5 l 0,35.1 60.9,0 -0.1,-35.2 0,0 z m -21.8,37.5 c -0.4,0.6 -1,1.2 -1.7,1.2 l -14,0 c -0.9,0 -1.6,-0.5 -2,-1.2 l -25.9,0 c 0.3,1.4 1.3,3.5 4.5,3.5 l 0,0 60.9,0 0,0 c 3.2,0 4.2,-2.1 4.5,-3.5 l -26.3,0 z"
       id="path3975"
       inkscape:connector-curvature="0"
       style="fill:#ffffff" /><rect
       x="1186.7"
       y="-129.10001"
       class="st5"
       width="9.3999996"
       height="4.6999998"
       id="rect3977"
       style="fill:#f08d21" /><rect
       x="1186.7"
       y="-146.7"
       class="st6"
       width="9.3999996"
       height="14.1"
       id="rect3979"
       style="fill:#29c2e4" /><rect
       x="1153.9"
       y="-146.7"
       class="st4"
       width="29.299999"
       height="22.200001"
       id="rect3981"
       style="fill:#63af45" /><g
       class="st10"
       id="g3983"
       style="opacity:0.14900004"><g
         id="g3985"><g
           id="g3987"><g
             id="g3989"><g
               id="g3991"><defs
                 id="defs3993"><rect
                   id="SVGID_3_"
                   x="1146.8"
                   y="-155.39999"
                   width="56.200001"
                   height="36.900002" /></defs><clipPath
                 id="SVGID_4_"><use
                   xlink:href="#SVGID_3_"
                   style="overflow:visible"
                   id="use3997"
                   x="0"
                   y="0"
                   width="100%"
                   height="100%" /></clipPath><path
                 class="st11"
                 d="m 1146.8,-153.7 0,35.1 1.2,0 0,-34 53.9,0 0,34 1.2,0 0,-35.1 -56.3,0 z m 28.1,-0.6 c 0.3,0 0.6,-0.3 0.6,-0.6 0,-0.3 -0.3,-0.6 -0.6,-0.6 -0.3,0 -0.6,0.3 -0.6,0.6 0.1,0.4 0.3,0.6 0.6,0.6"
                 id="path3999"
                 clip-path="url(#SVGID_4_)"
                 inkscape:connector-curvature="0"
                 style="fill:#323f4c" /></g></g></g></g></g><g
       class="st7"
       id="g4001"
       style="opacity:0.10199998"><g
         id="g4003"><g
           id="g4005"><g
             id="g4007"><g
               id="g4009"><defs
                 id="defs4011"><rect
                   id="SVGID_5_"
                   x="1153.9"
                   y="-146.7"
                   width="8.1999998"
                   height="22.200001" /></defs><clipPath
                 id="SVGID_6_"><use
                   xlink:href="#SVGID_5_"
                   style="overflow:visible"
                   id="use4015"
                   x="0"
                   y="0"
                   width="100%"
                   height="100%" /></clipPath><path
                 class="st12"
                 d="m 1157.4,-146.7 -1.2,0 0,1.2 1.2,0 0,-1.2 z m -3.5,1.2 1.2,0 0,-1.2 -1.2,0 0,1.2 z m 5.8,-1.2 -1.2,0 0,1.2 1.2,0 0,-1.2 z m -2.3,4.7 1.2,0 0,-1.2 -1.2,0 0,1.2 z m 1.2,-1.2 1.2,0 0,-1.2 -1.2,0 0,1.2 z m -4.7,0 1.2,0 0,-1.2 -1.2,0 0,1.2 z m 2.3,0 -1.2,0 0,1.2 1.2,0 0,-1.2 z m 1.2,-1.1 -1.2,0 0,1.2 1.2,0 0,-1.2 z m 1.2,-1.2 -1.2,0 0,1.2 1.2,0 0,-1.2 z m -2.4,0 -1.2,0 0,1.2 1.2,0 0,-1.2 z m 1.2,5.9 -1.2,0 0,1.2 1.2,0 0,-1.2 z m 0,0 1.2,0 0,-1.2 -1.2,0 0,1.2 z m 1.2,-1.2 1.2,0 0,-1.2 -1.2,0 0,1.2 z m -4.7,2.3 1.2,0 0,-1.2 -1.2,0 0,1.2 z m 2.3,-2.3 -1.2,0 0,1.2 1.2,0 0,-1.2 z m 1.2,-1.2 -1.2,0 0,1.2 1.2,0 0,-1.2 z m 1.2,3.5 1.2,0 0,-1.2 -1.2,0 0,1.2 z m -4.7,-2.3 1.2,0 0,-1.2 -1.2,0 0,1.2 z m 3.5,5.8 1.2,0 0,-1.2 -1.2,0 0,1.2 z m 1.2,-1.1 1.2,0 0,-1.2 -1.2,0 0,1.2 z m -4.7,0 1.2,0 0,-1.2 -1.2,0 0,1.2 z m 2.3,0 -1.2,0 0,1.2 1.2,0 0,-1.2 z m 1.2,-1.2 -1.2,0 0,1.2 1.2,0 0,-1.2 z m 0,0 1.2,0 0,-1.2 -1.2,0 0,1.2 z m -1.2,-1.2 -1.2,0 0,1.2 1.2,0 0,-1.2 z m 1.2,5.9 -1.2,0 0,1.2 1.2,0 0,-1.2 z m 0,0 1.2,0 0,-1.2 -1.2,0 0,1.2 z m 1.2,-1.2 1.2,0 0,-1.2 -1.2,0 0,1.2 z m -4.7,2.4 1.2,0 0,-1.2 -1.2,0 0,1.2 z m 2.3,-2.4 -1.2,0 0,1.2 1.2,0 0,-1.2 z m 1.2,-1.2 -1.2,0 0,1.2 1.2,0 0,-1.2 z m 1.2,3.6 1.2,0 0,-1.2 -1.2,0 0,1.2 z m -4.7,-2.4 1.2,0 0,-1.2 -1.2,0 0,1.2 z m 3.5,5.9 1.2,0 0,-1.2 -1.2,0 0,1.2 z m 1.2,-1.2 1.2,0 0,-1.2 -1.2,0 0,1.2 z m -4.7,0 1.2,0 0,-1.2 -1.2,0 0,1.2 z m 2.3,0 -1.2,0 0,1.2 1.2,0 0,-1.2 z m 1.2,-1.2 -1.2,0 0,1.2 1.2,0 0,-1.2 z m 0,0 1.2,0 0,-1.2 -1.2,0 0,1.2 z m -1.2,-1.1 -1.2,0 0,1.2 1.2,0 0,-1.2 z m 0,7 1.2,0 0,-1.2 -1.2,0 0,1.2 z m 1.2,-1.2 1.2,0 0,-1.2 -1.2,0 0,1.2 z m 1.2,-1.2 1.2,0 0,-1.2 -1.2,0 0,1.2 z m -4.7,2.4 1.2,0 0,-1.2 -1.2,0 0,1.2 z m 1.1,-1.2 1.2,0 0,-1.2 -1.2,0 0,1.2 z m 1.2,-1.2 1.2,0 0,-1.2 -1.2,0 0,1.2 z m 2.4,2.4 1.2,0 0,-1.2 -1.2,0 0,1.2 z m -4.7,-2.4 1.2,0 0,-1.2 -1.2,0 0,1.2 z m 8.2,-19.9 -1.2,0 0,1.2 1.2,0 0,-1.2 z m -2.4,4.7 1.2,0 0,-1.2 -1.2,0 0,1.2 z m 2.4,-2.3 -1.2,0 0,1.2 1.2,0 0,-1.2 z m -2.4,0 1.2,0 0,-1.2 -1.2,0 0,1.2 z m 0,4.7 1.2,0 0,-1.2 -1.2,0 0,1.2 z m 2.4,-2.4 -1.2,0 0,1.2 1.2,0 0,-1.2 z m 0,2.4 -1.2,0 0,1.2 1.2,0 0,-1.2 z m -2.4,4.6 1.2,0 0,-1.2 -1.2,0 0,1.2 z m 2.4,-2.3 -1.2,0 0,1.2 1.2,0 0,-1.2 z m -2.4,0 1.2,0 0,-1.2 -1.2,0 0,1.2 z m 0,4.7 1.2,0 0,-1.2 -1.2,0 0,1.2 z m 2.4,-2.4 -1.2,0 0,1.2 1.2,0 0,-1.2 z m 0,2.4 -1.2,0 0,1.2 1.2,0 0,-1.2 z m -2.4,4.7 1.2,0 0,-1.2 -1.2,0 0,1.2 z m 2.4,-2.4 -1.2,0 0,1.2 1.2,0 0,-1.2 z m -2.4,0 1.2,0 0,-1.2 -1.2,0 0,1.2 z m 0,4.7 1.2,0 0,-1.2 -1.2,0 0,1.2 z m 2.4,-2.3 -1.2,0 0,1.2 1.2,0 0,-1.2 z m 0,2.3 -1.2,0 0,1.2 1.2,0 0,-1.2 z"
                 id="path4017"
                 clip-path="url(#SVGID_6_)"
                 inkscape:connector-curvature="0"
                 style="fill:#161616" /></g></g></g></g></g><g
       class="st13"
       id="g4019"
       style="opacity:0.85100002"><g
         id="g4021"><g
           id="g4023"><g
             id="g4025"><g
               id="g4027"><defs
                 id="defs4029"><rect
                   id="SVGID_7_"
                   x="1137.5"
                   y="-158.39999"
                   width="74.900002"
                   height="48" /></defs><clipPath
                 id="SVGID_8_"><use
                   xlink:href="#SVGID_7_"
                   style="overflow:visible"
                   id="use4033"
                   x="0"
                   y="0"
                   width="100%"
                   height="100%" /></clipPath><path
                 class="st14"
                 d="m 1212.4,-117.4 c 0,-0.6 -0.5,-1.2 -1.2,-1.2 l -3.5,0 0,-35.1 c 0,-2.6 -2.1,-4.7 -4.7,-4.7 l -56.2,0 c -2.6,0 -4.7,2.1 -4.7,4.7 l 0,35.1 -3.5,0 c -0.6,0 -1.2,0.5 -1.2,1.2 l 0,0 0,0 c 0,2.4 1.5,7 7,7 l 0,0 60.9,0 0,0 c 5.6,0 7.1,-4.6 7.1,-7 l 0,0 0,0 m -67.9,-36.3 c 0,-1.3 1.1,-2.3 2.3,-2.3 l 56.2,0 c 1.3,0 2.3,1 2.3,2.3 l 0,35.1 -60.9,0 0.1,-35.1 0,0 z m 60.9,41 0,0 -60.9,0 0,0 c -3.2,0 -4.2,-2.1 -4.5,-3.5 l 25.9,0 c 0.4,0.7 1.2,1.2 2,1.2 l 14,0 c 0.6,0 1.2,-0.6 1.7,-1.2 l 26.3,0 c -0.3,1.4 -1.3,3.5 -4.5,3.5"
                 id="path4035"
                 clip-path="url(#SVGID_8_)"
                 inkscape:connector-curvature="0"
                 style="fill:#161616" /></g></g></g></g></g></g><g
     id="g4037"
     transform="translate(-48.5,-49.5)"><path
       class="st9"
       d="m 489.8,-114.1 c 0,0.4 0.1,0.9 0.4,1.2 0.3,0.5 0.8,0.8 1.3,0.9 0.1,0 0.3,0 0.4,0 l 53.6,0 0,-35.4 -55.7,0 0,33.3 0,0 z m 55.4,-40.9 c -0.3,-0.5 -0.8,-0.8 -1.3,-0.9 -0.1,0 -0.3,0 -0.4,0 l -51.5,0 c -0.1,0 -0.3,0 -0.4,0 -0.6,0.1 -1,0.4 -1.3,0.9 -0.2,0.3 -0.4,0.8 -0.4,1.2 l 0,4.3 55.7,0 0,-4.3 c 0,-0.4 -0.2,-0.8 -0.4,-1.2"
       id="path4039"
       inkscape:connector-curvature="0"
       style="fill:#ffffff" /><g
       class="st10"
       id="g4041"
       style="opacity:0.14900004"><rect
         x="493.60001"
         y="-147.3"
         class="st1"
         width="1.1"
         height="35.400002"
         id="rect4043"
         style="fill:#161616" /><path
         class="st1"
         d="m 493.1,-153.8 c -0.6,0 -1.1,0.5 -1.1,1.1 0,0.6 0.5,1.1 1.1,1.1 0.6,0 1.1,-0.5 1.1,-1.1 -0.1,-0.6 -0.5,-1.1 -1.1,-1.1"
         id="path4045"
         inkscape:connector-curvature="0"
         style="fill:#161616" /><path
         class="st1"
         d="m 496.3,-153.8 c -0.6,0 -1.1,0.5 -1.1,1.1 0,0.6 0.5,1.1 1.1,1.1 0.6,0 1.1,-0.5 1.1,-1.1 -0.1,-0.6 -0.5,-1.1 -1.1,-1.1"
         id="path4047"
         inkscape:connector-curvature="0"
         style="fill:#161616" /><path
         class="st1"
         d="m 499.5,-153.8 c -0.6,0 -1.1,0.5 -1.1,1.1 0,0.6 0.5,1.1 1.1,1.1 0.6,0 1.1,-0.5 1.1,-1.1 0,-0.6 -0.5,-1.1 -1.1,-1.1"
         id="path4049"
         inkscape:connector-curvature="0"
         style="fill:#161616" /></g><g
       class="st7"
       id="g4051"
       style="opacity:0.10199998"><g
         id="g4053"><g
           id="g4055"><g
             id="g4057"><g
               id="g4059"><defs
                 id="defs4061"><rect
                   id="SVGID_9_"
                   x="490.39999"
                   y="-147.3"
                   width="3.2"
                   height="35.400002" /></defs><clipPath
                 id="SVGID_10_"><use
                   xlink:href="#SVGID_9_"
                   style="overflow:visible"
                   id="use4065"
                   x="0"
                   y="0"
                   width="100%"
                   height="100%" /></clipPath><path
                 class="st15"
                 d="m 490.4,-117.3 1.1,0 0,-1.1 -1.1,0 0,1.1 z m 1.1,-3.2 1.1,0 0,-1.1 -1.1,0 0,1.1 z m -1.1,1 1.1,0 0,-1.1 -1.1,0 0,1.1 z m 0,-2.1 1.1,0 0,-1.1 -1.1,0 0,1.1 z m 1.1,3.2 1.1,0 0,-1.1 -1.1,0 0,1.1 z m -1.1,5.4 1.1,0 0,-1.1 -1.1,0 0,1.1 z m 3.2,-3.3 -1.1,0 0,1.1 1.1,0 0,-1.1 z m 0,-4.2 -1.1,0 0,1.1 1.1,0 0,-1.1 z m 0,2.1 -1.1,0 0,1.1 1.1,0 0,-1.1 z m 0,-4.3 -1.1,0 0,1.1 1.1,0 0,-1.1 z m 0,-2.1 -1.1,0 0,1.1 1.1,0 0,-1.1 z m -3.2,9.6 1.1,0 0,-1.1 -1.1,0 0,1.1 z m 1.1,1.1 1.1,0 0,-1.1 -1.1,0 0,1.1 z m 0,-2.2 1.1,0 0,-1.1 -1.1,0 0,1.1 z m 0,-6.4 1.1,0 0,-1.1 -1.1,0 0,1.1 z m 2.1,8.6 -1.1,0 0,1.1 1.1,0 0,-1.1 z m -2.1,2.1 1.1,0 0,-1.1 -1.1,0 0,1.1 z m -1.1,-26.8 1.1,0 0,-1.1 -1.1,0 0,1.1 z m 3.2,11.8 -1.1,0 0,1.1 1.1,0 0,-1.1 z m -2.1,-8.5 1.1,0 0,-1.1 -1.1,0 0,1.1 z m 0,-2.2 1.1,0 0,-1.1 -1.1,0 0,1.1 z m 2.1,6.4 -1.1,0 0,1.1 1.1,0 0,-1.1 z m -3.2,-5.3 1.1,0 0,-1.1 -1.1,0 0,1.1 z m 3.2,7.5 -1.1,0 0,1.1 1.1,0 0,-1.1 z m 0,-10.7 -1.1,0 0,1.1 1.1,0 0,-1.1 z m 0,2.1 -1.1,0 0,1.1 1.1,0 0,-1.1 z m 0,2.2 -1.1,0 0,1.1 1.1,0 0,-1.1 z m 0,2.1 -1.1,0 0,1.1 1.1,0 0,-1.1 z m -2.1,2.1 1.1,0 0,-1.1 -1.1,0 0,1.1 z m 0,2.2 1.1,0 0,-1.1 -1.1,0 0,1.1 z m -1.1,-5.4 1.1,0 0,-1.1 -1.1,0 0,1.1 z m 0,6.5 1.1,0 0,-1.1 -1.1,0 0,1.1 z m 1.1,3.2 1.1,0 0,-1.1 -1.1,0 0,1.1 z m -1.1,-1.1 1.1,0 0,-1.1 -1.1,0 0,1.1 z m 1.1,-1.1 1.1,0 0,-1.1 -1.1,0 0,1.1 z m -1.1,-3.2 1.1,0 0,-1.1 -1.1,0 0,1.1 z m 0,-2.1 1.1,0 0,-1.1 -1.1,0 0,1.1 z m 1.1,-1.1 1.1,0 0,-1.1 -1.1,0 0,1.1 z m -1.1,9.6 1.1,0 0,-1.1 -1.1,0 0,1.1 z m 3.2,-20.3 -1.1,0 0,1.1 1.1,0 0,-1.1 z m 0,2.1 -1.1,0 0,1.1 1.1,0 0,-1.1 z m -3.2,-3.2 1.1,0 0,-1.1 -1.1,0 0,1.1 z m 2.1,-2.1 -1.1,0 0,1.1 1.1,0 0,-1.1 z m 1.1,1 -1.1,0 0,1.1 1.1,0 0,-1.1 z m -2.1,2.2 1.1,0 0,-1.1 -1.1,0 0,1.1 z m 0,4.3 1.1,0 0,-1.1 -1.1,0 0,1.1 z m -1.1,-3.2 1.1,0 0,-1.1 -1.1,0 0,1.1 z m 0,2.1 1.1,0 0,-1.1 -1.1,0 0,1.1 z m 1.1,-1.1 1.1,0 0,-1.1 -1.1,0 0,1.1 z"
                 id="path4067"
                 clip-path="url(#SVGID_10_)"
                 inkscape:connector-curvature="0"
                 style="fill:#161616" /></g></g></g></g></g><path
       class="st1"
       d="m 543.4,-158 -51.4,0 c -2.4,0 -4.3,1.9 -4.3,4.3 l 0,39.6 c 0,2.4 1.9,4.3 4.3,4.3 l 51.4,0 c 2.4,0 4.3,-1.9 4.3,-4.3 l 0,-39.6 c 0,-2.4 -1.9,-4.3 -4.3,-4.3 m -51.4,46 c -1.2,0 -2.1,-1 -2.1,-2.1 l 0,-33.2 55.7,0 0,33.2 c 0,1.2 -1,2.1 -2.1,2.1 l -51.5,0 0,0 z m 53.6,-37.5 -55.7,0 0,-4.3 c 0,-1.2 1,-2.1 2.1,-2.1 l 51.4,0 c 1.2,0 2.1,1 2.1,2.1 l 0.1,4.3 0,0 z"
       id="path4069"
       inkscape:connector-curvature="0"
       style="fill:#161616" /><rect
       x="487.70001"
       y="-158"
       class="st16"
       width="60"
       height="48.200001"
       id="rect4071"
       style="fill:none" /><rect
       x="500.60001"
       y="-142.8"
       class="st4"
       width="8.5"
       height="6.4000001"
       id="rect4073"
       style="fill:#63af45" /><rect
       x="511.29999"
       y="-142.8"
       class="st4"
       width="8.5"
       height="6.4000001"
       id="rect4075"
       style="fill:#63af45" /><path
       class="st4"
       d="m 529.4,-141.7 0,4.1 -6.2,0 0,-4.1 6.2,0 m 1.1,-1.1 -8.5,0 0,6.4 8.5,0 0,-6.4 0,0 z"
       id="path4077"
       inkscape:connector-curvature="0"
       style="fill:#63af45" /><path
       class="st4"
       d="m 507.9,-132.2 0,4.1 -6.2,0 0,-4.1 6.2,0 m 1.1,-1.1 -8.5,0 0,6.4 8.5,0 0,-6.4 0,0 z"
       id="path4079"
       inkscape:connector-curvature="0"
       style="fill:#63af45" /><path
       class="st4"
       d="m 518.7,-132.2 0,4.1 -6.2,0 0,-4.1 6.2,0 m 1.1,-1.1 -8.5,0 0,6.4 8.5,0 0,-6.4 0,0 z"
       id="path4081"
       inkscape:connector-curvature="0"
       style="fill:#63af45" /><path
       class="st4"
       d="m 529.4,-132.2 0,4.1 -6.2,0 0,-4.1 6.2,0 m 1.1,-1.1 -8.5,0 0,6.4 8.5,0 0,-6.4 0,0 z"
       id="path4083"
       inkscape:connector-curvature="0"
       style="fill:#63af45" /><path
       class="st4"
       d="m 507.9,-122.6 0,4.1 -6.2,0 0,-4.1 6.2,0 m 1.1,-1.2 -8.5,0 0,6.4 8.5,0 0,-6.4 0,0 z"
       id="path4085"
       inkscape:connector-curvature="0"
       style="fill:#63af45" /><path
       class="st4"
       d="m 518.7,-122.6 0,4.1 -6.2,0 0,-4.1 6.2,0 m 1.1,-1.2 -8.5,0 0,6.4 8.5,0 0,-6.4 0,0 z"
       id="path4087"
       inkscape:connector-curvature="0"
       style="fill:#63af45" /><path
       class="st4"
       d="m 529.4,-122.6 0,4.1 -6.2,0 0,-4.1 6.2,0 m 1.1,-1.2 -8.5,0 0,6.4 8.5,0 0,-6.4 0,0 z"
       id="path4089"
       inkscape:connector-curvature="0"
       style="fill:#63af45" /><path
       class="st4"
       d="m 540.7,-141.7 0,4.1 -6.2,0 0,-4.1 6.2,0 m 1.2,-1.1 -8.5,0 0,6.4 8.5,0 0,-6.4 0,0 z"
       id="path4091"
       inkscape:connector-curvature="0"
       style="fill:#63af45" /><path
       class="st4"
       d="m 540.7,-132.2 0,4.1 -6.2,0 0,-4.1 6.2,0 m 1.2,-1.1 -8.5,0 0,6.4 8.5,0 0,-6.4 0,0 z"
       id="path4093"
       inkscape:connector-curvature="0"
       style="fill:#63af45" /><path
       class="st4"
       d="m 540.7,-122.6 0,4.1 -6.2,0 0,-4.1 6.2,0 m 1.2,-1.2 -8.5,0 0,6.4 8.5,0 0,-6.4 0,0 z"
       id="path4095"
       inkscape:connector-curvature="0"
       style="fill:#63af45" /></g></svg>