<?xml version="1.0" encoding="utf-8"?>
<!-- Generator: Adobe Illustrator 16.0.4, SVG Export Plug-In . SVG Version: 6.00 Build 0)  -->
<!DOCTYPE svg PUBLIC "-//W3C//DTD SVG 1.1//EN" "http://www.w3.org/Graphics/SVG/1.1/DTD/svg11.dtd">
<svg version="1.1" id="Layer_1" xmlns="http://www.w3.org/2000/svg" xmlns:xlink="http://www.w3.org/1999/xlink" x="0px" y="0px"
	 width="999.993px" height="500px" viewBox="0 0 999.993 500" enable-background="new 0 0 999.993 500" xml:space="preserve">
<g opacity="0.3">
	
		<rect x="49.48" y="81.935" fill="#FFFFFF" stroke="#7F7F7F" stroke-width="2" stroke-miterlimit="10" width="236.447" height="106.103"/>
	<g>
		<path fill="#161616" d="M85.854,139.511h12.504v2.688h-9.553v4.584h8.473v2.688h-8.473v6.841h-2.951V139.511z"/>
		<path fill="#161616" d="M100.207,150.024v-0.049c0-3.624,2.568-6.601,6.193-6.601c4.031,0,6.072,3.169,6.072,6.817
			c0,0.264-0.023,0.527-0.049,0.815h-9.312c0.312,2.064,1.777,3.217,3.648,3.217c1.416,0,2.424-0.528,3.434-1.513l1.703,1.513
			c-1.199,1.439-2.855,2.376-5.184,2.376C103.039,156.601,100.207,153.937,100.207,150.024z M109.592,149.088
			c-0.191-1.872-1.295-3.336-3.215-3.336c-1.777,0-3.025,1.368-3.289,3.336H109.592z"/>
		<path fill="#161616" d="M114.703,150.024v-0.049c0-3.624,2.568-6.601,6.193-6.601c4.031,0,6.072,3.169,6.072,6.817
			c0,0.264-0.023,0.527-0.049,0.815h-9.312c0.312,2.064,1.777,3.217,3.648,3.217c1.416,0,2.424-0.528,3.434-1.513l1.703,1.513
			c-1.199,1.439-2.855,2.376-5.184,2.376C117.535,156.601,114.703,153.937,114.703,150.024z M124.088,149.088
			c-0.191-1.872-1.295-3.336-3.215-3.336c-1.777,0-3.025,1.368-3.289,3.336H124.088z"/>
		<path fill="#161616" d="M129.248,150v-0.048c0-4.2,2.855-6.577,5.881-6.577c2.088,0,3.408,1.057,4.32,2.232v-6.816h2.904v17.521
			h-2.904V154.2c-0.938,1.32-2.256,2.376-4.32,2.376C132.152,156.576,129.248,154.2,129.248,150z M139.496,150v-0.048
			c0-2.448-1.727-4.057-3.672-4.057c-1.992,0-3.648,1.536-3.648,4.057V150c0,2.448,1.68,4.057,3.648,4.057
			C137.77,154.057,139.496,152.424,139.496,150z"/>
		<path fill="#161616" d="M153.512,139.511H161c2.113,0,3.77,0.624,4.85,1.681c0.889,0.912,1.393,2.16,1.393,3.624v0.048
			c0,2.761-1.656,4.417-4.01,5.089l4.537,6.36h-3.48l-4.129-5.856h-0.047h-3.648v5.856h-2.953V139.511z M160.785,147.84
			c2.111,0,3.455-1.104,3.455-2.809v-0.048c0-1.8-1.295-2.784-3.479-2.784h-4.297v5.641H160.785z"/>
		<path fill="#161616" d="M169.592,150.024v-0.049c0-3.624,2.568-6.601,6.191-6.601c4.033,0,6.074,3.169,6.074,6.817
			c0,0.264-0.025,0.527-0.049,0.815h-9.312c0.312,2.064,1.775,3.217,3.648,3.217c1.416,0,2.424-0.528,3.432-1.513l1.705,1.513
			c-1.201,1.439-2.857,2.376-5.186,2.376C172.424,156.601,169.592,153.937,169.592,150.024z M178.977,149.088
			c-0.191-1.872-1.297-3.336-3.217-3.336c-1.775,0-3.023,1.368-3.287,3.336H178.977z"/>
		<path fill="#161616" d="M184.76,158.688l1.08-2.184c1.344,0.84,2.783,1.344,4.512,1.344c2.592,0,4.01-1.344,4.01-3.889v-0.983
			c-1.057,1.368-2.377,2.328-4.465,2.328c-2.977,0-5.762-2.208-5.762-5.929v-0.048c0-3.744,2.809-5.953,5.762-5.953
			c2.137,0,3.455,0.984,4.439,2.16v-1.896h2.904v10.081c0,2.136-0.551,3.72-1.607,4.776c-1.152,1.151-2.928,1.704-5.209,1.704
			C188.336,160.201,186.393,159.673,184.76,158.688z M194.385,149.376v-0.048c0-2.089-1.705-3.505-3.721-3.505s-3.6,1.393-3.6,3.48
			v0.048c0,2.089,1.607,3.505,3.6,3.505C192.68,152.856,194.385,151.416,194.385,149.376z"/>
		<path fill="#161616" d="M200.912,138.935h3.119v2.761h-3.119V138.935z M201.031,143.64h2.904v12.673h-2.904V143.64z"/>
		<path fill="#161616" d="M206.695,154.656l1.297-1.968c1.367,1.032,2.855,1.56,4.152,1.56c1.248,0,1.969-0.527,1.969-1.368v-0.048
			c0-0.984-1.346-1.32-2.834-1.776c-1.871-0.527-3.959-1.296-3.959-3.72v-0.048c0-2.4,1.992-3.864,4.512-3.864
			c1.584,0,3.312,0.552,4.656,1.439l-1.152,2.064c-1.223-0.744-2.52-1.2-3.576-1.2c-1.127,0-1.775,0.528-1.775,1.272v0.048
			c0,0.912,1.367,1.296,2.855,1.776c1.85,0.575,3.938,1.416,3.938,3.696v0.048c0,2.664-2.064,3.984-4.705,3.984
			C210.271,156.553,208.279,155.904,206.695,154.656z"/>
		<path fill="#161616" d="M220.088,152.809v-6.673h-1.607v-2.496h1.607v-3.48h2.904v3.48h3.408v2.496h-3.408v6.217
			c0,1.128,0.576,1.584,1.561,1.584c0.648,0,1.223-0.145,1.799-0.433v2.377c-0.719,0.407-1.535,0.647-2.615,0.647
			C221.6,156.528,220.088,155.593,220.088,152.809z"/>
		<path fill="#161616" d="M229.328,143.64h2.904v2.856c0.791-1.896,2.256-3.192,4.488-3.097v3.072h-0.168
			c-2.545,0-4.32,1.656-4.32,5.017v4.824h-2.904V143.64z"/>
		<path fill="#161616" d="M238.832,159.457l0.984-2.16c0.527,0.288,1.104,0.479,1.703,0.479c0.816,0,1.32-0.359,1.801-1.464
			l-5.281-12.673h3.098l3.6,9.408l3.289-9.408h3.023l-5.041,13.033c-1.008,2.592-2.135,3.552-4.176,3.552
			C240.607,160.225,239.719,159.937,238.832,159.457z"/>
	</g>
	
		<rect x="714.066" y="81.935" fill="#FFFFFF" stroke="#7F7F7F" stroke-width="2" stroke-miterlimit="10" width="236.447" height="106.103"/>
	<g>
		<path fill="#161616" d="M765.764,139.511h6.625c3.912,0,6.383,2.232,6.383,5.617v0.048c0,3.769-3.023,5.736-6.721,5.736h-3.336
			v5.4h-2.951V139.511z M772.148,148.248c2.232,0,3.623-1.248,3.623-3.001v-0.048c0-1.968-1.416-3-3.623-3h-3.434v6.049H772.148z"/>
		<path fill="#161616" d="M781.627,138.791h2.904v17.521h-2.904V138.791z"/>
		<path fill="#161616" d="M796.076,156.312v-1.561c-0.863,1.032-2.184,1.824-4.104,1.824c-2.4,0-4.514-1.368-4.514-3.912v-0.048
			c0-2.809,2.186-4.152,5.137-4.152c1.537,0,2.521,0.216,3.504,0.528v-0.24c0-1.752-1.104-2.712-3.119-2.712
			c-1.416,0-2.473,0.312-3.625,0.792l-0.791-2.328c1.391-0.624,2.76-1.057,4.824-1.057c3.744,0,5.568,1.969,5.568,5.353v7.513
			H796.076z M796.148,151.008c-0.744-0.288-1.775-0.504-2.904-0.504c-1.824,0-2.904,0.744-2.904,1.968v0.049
			c0,1.2,1.08,1.872,2.447,1.872c1.922,0,3.361-1.08,3.361-2.664V151.008z"/>
		<path fill="#161616" d="M801.523,159.457l0.984-2.16c0.527,0.288,1.104,0.479,1.703,0.479c0.816,0,1.32-0.359,1.801-1.464
			l-5.281-12.673h3.098l3.6,9.408l3.289-9.408h3.023l-5.041,13.033c-1.008,2.592-2.135,3.552-4.176,3.552
			C803.299,160.225,802.41,159.937,801.523,159.457z"/>
		<path fill="#161616" d="M815.613,158.688l1.08-2.184c1.344,0.84,2.783,1.344,4.512,1.344c2.592,0,4.01-1.344,4.01-3.889v-0.983
			c-1.057,1.368-2.377,2.328-4.465,2.328c-2.977,0-5.762-2.208-5.762-5.929v-0.048c0-3.744,2.809-5.953,5.762-5.953
			c2.137,0,3.455,0.984,4.439,2.16v-1.896h2.904v10.081c0,2.136-0.551,3.72-1.607,4.776c-1.152,1.151-2.928,1.704-5.209,1.704
			C819.189,160.201,817.246,159.673,815.613,158.688z M825.238,149.376v-0.048c0-2.089-1.705-3.505-3.721-3.505s-3.6,1.393-3.6,3.48
			v0.048c0,2.089,1.607,3.505,3.6,3.505C823.533,152.856,825.238,151.416,825.238,149.376z"/>
		<path fill="#161616" d="M831.717,143.64h2.904v2.856c0.793-1.896,2.256-3.192,4.488-3.097v3.072h-0.168
			c-2.543,0-4.32,1.656-4.32,5.017v4.824h-2.904V143.64z"/>
		<path fill="#161616" d="M840.5,150.048V150c0-3.624,2.881-6.625,6.768-6.625c3.889,0,6.746,2.952,6.746,6.577V150
			c0,3.601-2.881,6.601-6.793,6.601C843.355,156.601,840.5,153.648,840.5,150.048z M851.109,150.048V150
			c0-2.232-1.609-4.08-3.889-4.08c-2.328,0-3.816,1.824-3.816,4.032V150c0,2.208,1.607,4.08,3.863,4.08
			C849.621,154.08,851.109,152.232,851.109,150.048z"/>
		<path fill="#161616" d="M856.818,151.704v-8.064h2.904v7.2c0,1.969,0.984,3.097,2.713,3.097c1.68,0,2.857-1.177,2.857-3.145
			v-7.152h2.902v12.673h-2.902v-1.968c-0.816,1.199-1.992,2.231-3.961,2.231C858.475,156.576,856.818,154.656,856.818,151.704z"/>
		<path fill="#161616" d="M871.844,143.64h2.904v1.968c0.816-1.2,1.992-2.232,3.959-2.232c2.857,0,4.514,1.921,4.514,4.873v8.064
			h-2.904v-7.2c0-1.969-0.984-3.097-2.713-3.097c-1.68,0-2.855,1.176-2.855,3.145v7.152h-2.904V143.64z"/>
		<path fill="#161616" d="M886.074,150v-0.048c0-4.2,2.857-6.577,5.881-6.577c2.088,0,3.408,1.057,4.32,2.232v-6.816h2.904v17.521
			h-2.904V154.2c-0.936,1.32-2.256,2.376-4.32,2.376C888.979,156.576,886.074,154.2,886.074,150z M896.324,150v-0.048
			c0-2.448-1.729-4.057-3.672-4.057c-1.992,0-3.648,1.536-3.648,4.057V150c0,2.448,1.68,4.057,3.648,4.057
			C894.596,154.057,896.324,152.424,896.324,150z"/>
	</g>
	
		<rect x="382.564" y="81.935" fill="#FFFFFF" stroke="#7F7F7F" stroke-width="2" stroke-miterlimit="10" width="236.447" height="106.103"/>
	<g>
		<path fill="#161616" d="M444.123,139.511h6.264c5.281,0,8.93,3.625,8.93,8.354v0.048c0,4.729-3.648,8.4-8.93,8.4h-6.264V139.511z
			 M450.387,153.624c3.529,0,5.832-2.376,5.832-5.664v-0.048c0-3.289-2.303-5.713-5.832-5.713h-3.312v11.425H450.387z"/>
		<path fill="#161616" d="M470.307,156.312v-1.561c-0.863,1.032-2.184,1.824-4.104,1.824c-2.4,0-4.514-1.368-4.514-3.912v-0.048
			c0-2.809,2.186-4.152,5.137-4.152c1.537,0,2.521,0.216,3.504,0.528v-0.24c0-1.752-1.104-2.712-3.119-2.712
			c-1.416,0-2.473,0.312-3.625,0.792l-0.791-2.328c1.391-0.624,2.76-1.057,4.824-1.057c3.744,0,5.568,1.969,5.568,5.353v7.513
			H470.307z M470.379,151.008c-0.744-0.288-1.775-0.504-2.904-0.504c-1.824,0-2.904,0.744-2.904,1.968v0.049
			c0,1.2,1.08,1.872,2.447,1.872c1.922,0,3.361-1.08,3.361-2.664V151.008z"/>
		<path fill="#161616" d="M477.125,152.809v-6.673h-1.607v-2.496h1.607v-3.48h2.904v3.48h3.408v2.496h-3.408v6.217
			c0,1.128,0.576,1.584,1.561,1.584c0.648,0,1.223-0.145,1.799-0.433v2.377c-0.719,0.407-1.535,0.647-2.615,0.647
			C478.637,156.528,477.125,155.593,477.125,152.809z"/>
		<path fill="#161616" d="M494.117,156.312v-1.561c-0.863,1.032-2.184,1.824-4.104,1.824c-2.4,0-4.514-1.368-4.514-3.912v-0.048
			c0-2.809,2.186-4.152,5.137-4.152c1.537,0,2.521,0.216,3.504,0.528v-0.24c0-1.752-1.104-2.712-3.119-2.712
			c-1.416,0-2.473,0.312-3.625,0.792l-0.791-2.328c1.391-0.624,2.76-1.057,4.824-1.057c3.744,0,5.568,1.969,5.568,5.353v7.513
			H494.117z M494.189,151.008c-0.744-0.288-1.775-0.504-2.904-0.504c-1.824,0-2.904,0.744-2.904,1.968v0.049
			c0,1.2,1.08,1.872,2.447,1.872c1.922,0,3.361-1.08,3.361-2.664V151.008z"/>
		<path fill="#161616" d="M499.42,154.656l1.297-1.968c1.367,1.032,2.855,1.56,4.152,1.56c1.248,0,1.969-0.527,1.969-1.368v-0.048
			c0-0.984-1.346-1.32-2.832-1.776c-1.873-0.527-3.961-1.296-3.961-3.72v-0.048c0-2.4,1.992-3.864,4.512-3.864
			c1.584,0,3.312,0.552,4.656,1.439l-1.152,2.064c-1.223-0.744-2.52-1.2-3.576-1.2c-1.127,0-1.775,0.528-1.775,1.272v0.048
			c0,0.912,1.367,1.296,2.855,1.776c1.85,0.575,3.938,1.416,3.938,3.696v0.048c0,2.664-2.064,3.984-4.705,3.984
			C502.996,156.553,501.004,155.904,499.42,154.656z"/>
		<path fill="#161616" d="M512.812,152.809v-6.673h-1.607v-2.496h1.607v-3.48h2.904v3.48h3.408v2.496h-3.408v6.217
			c0,1.128,0.576,1.584,1.561,1.584c0.648,0,1.223-0.145,1.799-0.433v2.377c-0.719,0.407-1.535,0.647-2.615,0.647
			C514.324,156.528,512.812,155.593,512.812,152.809z"/>
		<path fill="#161616" d="M520.998,150.048V150c0-3.624,2.881-6.625,6.77-6.625s6.744,2.952,6.744,6.577V150
			c0,3.601-2.881,6.601-6.793,6.601C523.855,156.601,520.998,153.648,520.998,150.048z M531.607,150.048V150
			c0-2.232-1.607-4.08-3.889-4.08c-2.328,0-3.816,1.824-3.816,4.032V150c0,2.208,1.609,4.08,3.865,4.08
			C530.119,154.08,531.607,152.232,531.607,150.048z"/>
		<path fill="#161616" d="M537.463,143.64h2.904v2.856c0.791-1.896,2.256-3.192,4.488-3.097v3.072h-0.168
			c-2.545,0-4.32,1.656-4.32,5.017v4.824h-2.904V143.64z"/>
		<path fill="#161616" d="M546.244,150.024v-0.049c0-3.624,2.568-6.601,6.193-6.601c4.031,0,6.072,3.169,6.072,6.817
			c0,0.264-0.023,0.527-0.049,0.815h-9.312c0.312,2.064,1.777,3.217,3.648,3.217c1.416,0,2.424-0.528,3.434-1.513l1.703,1.513
			c-1.199,1.439-2.855,2.376-5.184,2.376C549.076,156.601,546.244,153.937,546.244,150.024z M555.629,149.088
			c-0.191-1.872-1.295-3.336-3.215-3.336c-1.777,0-3.025,1.368-3.289,3.336H555.629z"/>
	</g>
	<g>
		<g>
			
				<line fill="none" stroke="#7F7F7F" stroke-width="2" stroke-miterlimit="10" x1="285.928" y1="134.986" x2="379.762" y2="134.986"/>
			<g>
				<path fill="#7F7F7F" d="M366.093,144.586c-0.297-0.465-0.159-1.084,0.307-1.381l12.905-8.219l-12.905-8.219
					c-0.466-0.297-0.604-0.916-0.307-1.381s0.919-0.6,1.381-0.307l14.229,9.062c0.288,0.184,0.463,0.502,0.463,0.844
					s-0.175,0.66-0.463,0.844l-14.229,9.062c-0.166,0.105-0.353,0.156-0.536,0.156C366.607,145.049,366.284,144.885,366.093,144.586
					z"/>
			</g>
		</g>
	</g>
	<g>
		<g>
			
				<line fill="none" stroke="#7F7F7F" stroke-width="2" stroke-miterlimit="10" x1="618.359" y1="134.986" x2="712.193" y2="134.986"/>
			<g>
				<path fill="#7F7F7F" d="M698.524,144.586c-0.297-0.465-0.159-1.084,0.307-1.381l12.905-8.219l-12.905-8.219
					c-0.466-0.297-0.604-0.916-0.307-1.381s0.919-0.6,1.381-0.307l14.229,9.062c0.288,0.184,0.463,0.502,0.463,0.844
					s-0.175,0.66-0.463,0.844l-14.229,9.062c-0.166,0.105-0.353,0.156-0.536,0.156C699.039,145.049,698.716,144.885,698.524,144.586
					z"/>
			</g>
		</g>
	</g>
	<g>
		<path fill="#63AF45" d="M486.349,62.672c1.624,0,2.941-1.316,2.941-2.94s-1.317-2.941-2.941-2.941
			c-1.625,0-2.941,1.317-2.941,2.941S484.724,62.672,486.349,62.672 M486.349,86.205c-1.625,0-2.941,1.317-2.941,2.941
			s1.316,2.94,2.941,2.94c1.624,0,2.941-1.316,2.941-2.94S487.973,86.205,486.349,86.205 M486.349,100.176
			c-1.625,0-2.941,1.317-2.941,2.943c0,1.624,1.316,2.941,2.941,2.941c1.624,0,2.941-1.317,2.941-2.941
			C489.29,101.493,487.973,100.176,486.349,100.176"/>
		<path fill="#F08D21" d="M486.349,71.498c-1.625,0-2.941,1.316-2.941,2.94c0,1.625,1.316,2.941,2.941,2.941
			c1.624,0,2.941-1.316,2.941-2.941C489.29,72.814,487.973,71.498,486.349,71.498"/>
		<path fill="#29C2E4" d="M517.233,61.202c0.814,0,1.472-0.659,1.472-1.471c0-0.812-0.657-1.471-1.472-1.471
			c-0.812,0-1.47,0.658-1.47,1.471C515.764,60.543,516.422,61.202,517.233,61.202 M512.822,58.261c-0.813,0-1.471,0.658-1.471,1.471
			c0,0.812,0.657,1.471,1.471,1.471s1.471-0.659,1.471-1.471C514.293,58.919,513.636,58.261,512.822,58.261 M517.233,72.969
			c-0.812,0-1.47,0.657-1.47,1.47c0,0.813,0.658,1.472,1.47,1.472c0.814,0,1.472-0.658,1.472-1.472
			C518.705,73.626,518.048,72.969,517.233,72.969"/>
		<path fill="#29C2E4" d="M517.233,91.352c0.814,0,1.472-0.658,1.472-1.471c0-0.812-0.657-1.469-1.472-1.469
			c-0.812,0-1.47,0.657-1.47,1.469C515.764,90.693,516.422,91.352,517.233,91.352 M512.822,88.412c-0.813,0-1.471,0.657-1.471,1.469
			c0,0.812,0.657,1.471,1.471,1.471s1.471-0.658,1.471-1.471C514.293,89.069,513.636,88.412,512.822,88.412 M517.233,103.119
			c-0.812,0-1.47,0.658-1.47,1.469c0,0.813,0.658,1.473,1.47,1.473c0.814,0,1.472-0.659,1.472-1.473
			C518.705,103.777,518.048,103.119,517.233,103.119 M512.822,103.119c-0.813,0-1.471,0.658-1.471,1.469
			c0,0.813,0.657,1.473,1.471,1.473s1.471-0.659,1.471-1.473C514.293,103.777,513.636,103.119,512.822,103.119"/>
		<g opacity="0.102">
			<g>
				<defs>
					<rect id="SVGID_21_" x="492.967" y="53.112" width="4.412" height="57.36"/>
				</defs>
				<clipPath id="SVGID_2_">
					<use xlink:href="#SVGID_21_"  overflow="visible"/>
				</clipPath>
				<path clip-path="url(#SVGID_2_)" fill="#161616" d="M492.967,66.349h1.471v-1.47h-1.471V66.349z M494.438,67.82h1.47v-1.472
					h-1.47V67.82z M497.379,67.82h-1.472v1.471h1.472V67.82z M492.967,69.291h1.471V67.82h-1.471V69.291z M494.438,70.761h1.47
					v-1.47h-1.47V70.761z M497.379,70.761h-1.472v1.472h1.472V70.761z M492.967,72.232h1.471v-1.472h-1.471V72.232z M494.438,73.703
					h1.47v-1.471h-1.47V73.703z M497.379,64.879h-1.472v1.47h1.472V64.879z M492.967,75.173h1.471v-1.47h-1.471V75.173z
					 M494.438,76.645h1.47v-1.472h-1.47V76.645z M497.379,76.645h-1.472v1.471h1.472V76.645z M492.967,78.115h1.471v-1.471h-1.471
					V78.115z M494.438,79.586h1.47v-1.471h-1.47V79.586z M497.379,79.586h-1.472v1.471h1.472V79.586z M492.967,81.057h1.471v-1.471
					h-1.471V81.057z M494.438,82.527h1.47v-1.471h-1.47V82.527z M497.379,73.703h-1.472v1.47h1.472V73.703z M492.967,83.997h1.471
					v-1.47h-1.471V83.997z M494.438,85.469h1.47v-1.472h-1.47V85.469z M497.379,85.469h-1.472v1.471h1.472V85.469z M492.967,86.939
					h1.471v-1.471h-1.471V86.939z M494.438,88.412h1.47v-1.473h-1.47V88.412z M497.379,88.412h-1.472v1.469h1.472V88.412z
					 M492.967,89.881h1.471v-1.469h-1.471V89.881z M494.438,91.352h1.47v-1.471h-1.47V91.352z M497.379,82.527h-1.472v1.47h1.472
					V82.527z M492.967,92.824h1.471v-1.473h-1.471V92.824z M494.438,94.295h1.47v-1.471h-1.47V94.295z M497.379,94.295h-1.472v1.469
					h1.472V94.295z M492.967,95.764h1.471v-1.469h-1.471V95.764z M497.379,91.352h-1.472v1.473h1.472V91.352z M492.967,57.524h1.471
					v-1.471h-1.471V57.524z M495.907,57.524h-1.47v1.472h1.47V57.524z M497.379,58.996h-1.472v1.47h1.472V58.996z M492.967,60.466
					h1.471v-1.47h-1.471V60.466z M495.907,60.466h-1.47v1.471h1.47V60.466z M497.379,61.937h-1.472v1.472h1.472V61.937z
					 M492.967,63.408h1.471v-1.472h-1.471V63.408z M495.907,63.408h-1.47v1.471h1.47V63.408z M497.379,56.054h-1.472v1.471h1.472
					V56.054z M497.379,53.112h-1.472v1.471h1.472V53.112z M492.967,54.583h1.471v-1.471h-1.471V54.583z M495.907,54.583h-1.47v1.471
					h1.47V54.583z M494.438,97.236h1.47v-1.473h-1.47V97.236z M497.379,97.236h-1.472v1.469h1.472V97.236z M492.967,98.705h1.471
					v-1.469h-1.471V98.705z M494.438,100.176h1.47v-1.471h-1.47V100.176z M497.379,100.176h-1.472v1.473h1.472V100.176z
					 M492.967,101.648h1.471v-1.473h-1.471V101.648z M494.438,103.119h1.47v-1.471h-1.47V103.119z M492.967,104.588h1.471v-1.469
					h-1.471V104.588z M494.438,106.061h1.47v-1.473h-1.47V106.061z M497.379,103.119h-1.472v1.469h1.472V103.119z M492.967,107.531
					h1.471v-1.471h-1.471V107.531z M494.438,109.002h1.47v-1.471h-1.47V109.002z M497.379,109.002h-1.472v1.471h1.472V109.002z
					 M492.967,110.473h1.471v-1.471h-1.471V110.473z M497.379,106.061h-1.472v1.471h1.472V106.061z"/>
			</g>
		</g>
		<rect x="479.73" y="81.057" fill="#161616" width="42.651" height="1.471"/>
		<rect x="479.73" y="66.349" fill="#161616" width="42.651" height="1.472"/>
		<path fill="#161616" d="M479.73,97.236h42.521c0.293-0.5,0.609-0.992,0.957-1.473H479.73V97.236z"/>
		<path fill="#161616" d="M518.905,113.414c3.248,0,5.883-2.635,5.883-5.883V56.054c0-3.248-2.635-5.882-5.883-5.882h-36.234
			c-3.248,0-5.883,2.634-5.883,5.882v51.478c0,3.248,2.635,5.883,5.883,5.883H518.905z M482.671,110.473
			c-1.624,0-2.94-1.317-2.94-2.941V56.054c0-1.624,1.316-2.941,2.94-2.941h36.234c1.624,0,2.94,1.317,2.94,2.941v51.478
			c0,1.624-1.316,2.941-2.94,2.941H482.671z"/>
	</g>
	<g>
		<path fill="#FFFFFF" d="M855.388,71.909c0-0.16-0.154-0.759-0.188-0.911c-0.123-0.611-0.349-0.694-0.847-1.03
			c-0.374-0.252-0.825-0.399-1.308-0.399h-56.195c-0.486,0-0.938,0.147-1.311,0.399c-0.498,0.336-0.861,0.86-0.984,1.471
			c-0.032,0.152-0.047,0.311-0.047,0.471v35.122h60.879V71.909z M833.626,109.373c-0.424,0.585-1.008,1.171-1.654,1.171h-14.049
			c-0.865,0-1.611-0.473-2.019-1.171h-25.929c0.32,1.399,1.33,3.508,4.52,3.514l0.008-0.002h60.885l0.01,0.002
			c3.189-0.006,4.2-2.114,4.52-3.514H833.626z"/>
		<rect x="836.653" y="96.495" fill="#F08D21" width="9.365" height="4.683"/>
		<rect x="836.653" y="78.934" fill="#29C2E4" width="9.365" height="14.05"/>
		<rect x="803.872" y="78.934" fill="#63AF45" width="29.27" height="22.244"/>
		<g opacity="0.149">
			<g>
				<defs>
					<rect id="SVGID_23_" x="796.849" y="70.154" width="56.195" height="36.877"/>
				</defs>
				<clipPath id="SVGID_4_">
					<use xlink:href="#SVGID_23_"  overflow="visible"/>
				</clipPath>
				<path clip-path="url(#SVGID_4_)" fill="#323F4C" d="M796.849,71.909v35.122h1.17V73.08h53.854v33.951h1.172V71.909H796.849z
					 M824.946,71.324c0.324,0,0.585-0.262,0.585-0.586c0-0.323-0.261-0.584-0.585-0.584c-0.323,0-0.586,0.261-0.586,0.584
					C824.36,71.062,824.623,71.324,824.946,71.324"/>
			</g>
		</g>
		<g opacity="0.102">
			<g>
				<defs>
					<rect id="SVGID_25_" x="803.872" y="78.934" width="8.197" height="22.244"/>
				</defs>
				<clipPath id="SVGID_6_">
					<use xlink:href="#SVGID_25_"  overflow="visible"/>
				</clipPath>
				<path clip-path="url(#SVGID_6_)" fill="#161616" d="M807.386,78.934h-1.172v1.171h1.172V78.934z M803.872,80.104h1.172v-1.171
					h-1.172V80.104z M809.728,78.934h-1.171v1.171h1.171V78.934z M807.386,83.616h1.171v-1.171h-1.171V83.616z M808.557,82.445
					h1.171v-1.17h-1.171V82.445z M803.872,82.445h1.172v-1.17h-1.172V82.445z M806.214,82.445h-1.17v1.171h1.17V82.445z
					 M807.386,81.275h-1.172v1.17h1.172V81.275z M808.557,80.104h-1.171v1.171h1.171V80.104z M806.214,80.104h-1.17v1.171h1.17
					V80.104z M807.386,85.958h-1.172v1.171h1.172V85.958z M807.386,85.958h1.171v-1.171h-1.171V85.958z M808.557,84.787h1.171
					v-1.171h-1.171V84.787z M803.872,87.129h1.172v-1.171h-1.172V87.129z M806.214,84.787h-1.17v1.171h1.17V84.787z M807.386,83.616
					h-1.172v1.171h1.172V83.616z M808.557,87.129h1.171v-1.171h-1.171V87.129z M803.872,84.787h1.172v-1.171h-1.172V84.787z
					 M807.386,90.642h1.171V89.47h-1.171V90.642z M808.557,89.47h1.171v-1.171h-1.171V89.47z M803.872,89.47h1.172v-1.171h-1.172
					V89.47z M806.214,89.47h-1.17v1.172h1.17V89.47z M807.386,88.299h-1.172v1.171h1.172V88.299z M807.386,88.299h1.171v-1.17
					h-1.171V88.299z M806.214,87.129h-1.17v1.17h1.17V87.129z M807.386,92.983h-1.172v1.171h1.172V92.983z M807.386,92.983h1.171
					v-1.172h-1.171V92.983z M808.557,91.812h1.171v-1.17h-1.171V91.812z M803.872,94.154h1.172v-1.171h-1.172V94.154z
					 M806.214,91.812h-1.17v1.172h1.17V91.812z M807.386,90.642h-1.172v1.17h1.172V90.642z M808.557,94.154h1.171v-1.171h-1.171
					V94.154z M803.872,91.812h1.172v-1.17h-1.172V91.812z M807.386,97.666h1.171v-1.171h-1.171V97.666z M808.557,96.495h1.171
					v-1.171h-1.171V96.495z M803.872,96.495h1.172v-1.171h-1.172V96.495z M806.214,96.495h-1.17v1.171h1.17V96.495z M807.386,95.324
					h-1.172v1.171h1.172V95.324z M807.386,95.324h1.171v-1.17h-1.171V95.324z M806.214,94.154h-1.17v1.17h1.17V94.154z
					 M806.214,101.178h1.172v-1.17h-1.172V101.178z M807.386,100.008h1.171v-1.171h-1.171V100.008z M808.557,98.837h1.171v-1.171
					h-1.171V98.837z M803.872,101.178h1.172v-1.17h-1.172V101.178z M805.044,100.008h1.17v-1.171h-1.17V100.008z M806.214,98.837
					h1.172v-1.171h-1.172V98.837z M808.557,101.178h1.171v-1.17h-1.171V101.178z M803.872,98.837h1.172v-1.171h-1.172V98.837z
					 M812.069,78.934h-1.172v1.171h1.172V78.934z M809.728,83.616h1.17v-1.171h-1.17V83.616z M812.069,81.275h-1.172v1.17h1.172
					V81.275z M809.728,81.275h1.17v-1.171h-1.17V81.275z M809.728,85.958h1.17v-1.171h-1.17V85.958z M812.069,83.616h-1.172v1.171
					h1.172V83.616z M812.069,85.958h-1.172v1.171h1.172V85.958z M809.728,90.642h1.17V89.47h-1.17V90.642z M812.069,88.299h-1.172
					v1.171h1.172V88.299z M809.728,88.299h1.17v-1.17h-1.17V88.299z M809.728,92.983h1.17v-1.172h-1.17V92.983z M812.069,90.642
					h-1.172v1.17h1.172V90.642z M812.069,92.983h-1.172v1.171h1.172V92.983z M809.728,97.666h1.17v-1.171h-1.17V97.666z
					 M812.069,95.324h-1.172v1.171h1.172V95.324z M809.728,95.324h1.17v-1.17h-1.17V95.324z M809.728,100.008h1.17v-1.171h-1.17
					V100.008z M812.069,97.666h-1.172v1.171h1.172V97.666z M812.069,100.008h-1.172v1.17h1.172V100.008z"/>
			</g>
		</g>
		<g opacity="0.851">
			<g>
				<defs>
					<rect id="SVGID_27_" x="787.483" y="67.227" width="74.927" height="48"/>
				</defs>
				<clipPath id="SVGID_8_">
					<use xlink:href="#SVGID_27_"  overflow="visible"/>
				</clipPath>
				<path clip-path="url(#SVGID_8_)" fill="#161616" d="M862.41,108.202c0-0.646-0.524-1.171-1.171-1.171h-3.512V71.909
					c0-2.586-2.098-4.683-4.684-4.683h-56.195c-2.586,0-4.684,2.097-4.684,4.683v35.122h-3.512c-0.646,0-1.17,0.524-1.17,1.171
					v0.005l0,0c0,2.43,1.468,7.021,7.023,7.021v-0.001h60.879v0.001c5.557,0,7.024-4.591,7.024-7.021h-0.003l0.003-0.002
					 M794.507,71.909c0-1.292,1.051-2.341,2.342-2.341h56.195c1.295,0,2.342,1.049,2.342,2.341v35.122h-60.879V71.909z
					 M855.397,112.887l-0.008-0.002h-60.883l-0.012,0.002c-3.191-0.006-4.199-2.114-4.52-3.514h25.93
					c0.406,0.696,1.152,1.171,2.018,1.171h14.048c0.647,0,1.231-0.586,1.655-1.171h26.291
					C859.598,110.772,858.587,112.881,855.397,112.887"/>
			</g>
		</g>
	</g>
	<g>
		<path fill="#FFFFFF" d="M139.845,111.481c0,0.444,0.137,0.855,0.366,1.198c0.31,0.456,0.788,0.787,1.345,0.9
			c0.141,0.029,0.284,0.045,0.434,0.045h53.57V78.268h-55.715V111.481z M195.194,70.641c-0.309-0.456-0.787-0.787-1.344-0.9
			c-0.141-0.029-0.285-0.045-0.434-0.045h-51.428c-0.149,0-0.293,0.016-0.434,0.045c-0.557,0.113-1.035,0.444-1.345,0.9
			c-0.229,0.342-0.366,0.756-0.366,1.198v4.286h55.715v-4.286C195.56,71.396,195.425,70.982,195.194,70.641"/>
		<g opacity="0.149">
			<rect x="143.597" y="78.268" fill="#161616" width="1.07" height="35.357"/>
			<path fill="#161616" d="M143.062,71.839c-0.594,0-1.072,0.48-1.072,1.071c0,0.592,0.479,1.072,1.072,1.072
				c0.59,0,1.07-0.48,1.07-1.072C144.132,72.319,143.651,71.839,143.062,71.839"/>
			<path fill="#161616" d="M146.274,71.839c-0.592,0-1.071,0.48-1.071,1.071c0,0.592,0.479,1.072,1.071,1.072
				s1.072-0.48,1.072-1.072C147.347,72.319,146.866,71.839,146.274,71.839"/>
			<path fill="#161616" d="M149.489,71.839c-0.592,0-1.072,0.48-1.072,1.071c0,0.592,0.48,1.072,1.072,1.072s1.07-0.48,1.07-1.072
				C150.56,72.319,150.081,71.839,149.489,71.839"/>
		</g>
		<g opacity="0.102">
			<g>
				<defs>
					<rect id="SVGID_29_" x="140.382" y="78.268" width="3.213" height="35.357"/>
				</defs>
				<clipPath id="SVGID_10_">
					<use xlink:href="#SVGID_29_"  overflow="visible"/>
				</clipPath>
				<path clip-path="url(#SVGID_10_)" fill="#161616" d="M140.382,108.268h1.071v-1.072h-1.071V108.268z M141.453,105.053h1.072
					v-1.071h-1.072V105.053z M140.382,106.125h1.071v-1.072h-1.071V106.125z M140.382,103.981h1.071v-1.071h-1.071V103.981z
					 M141.453,107.195h1.072v-1.07h-1.072V107.195z M140.382,112.554h1.071v-1.072h-1.071V112.554z M143.595,109.338h-1.069v1.072
					h1.069V109.338z M143.595,105.053h-1.069v1.072h1.069V105.053z M143.595,107.195h-1.069v1.072h1.069V107.195z M143.595,102.91
					h-1.069v1.071h1.069V102.91z M143.595,100.767h-1.069v1.072h1.069V100.767z M140.382,110.41h1.071v-1.072h-1.071V110.41z
					 M141.453,111.481h1.072v-1.071h-1.072V111.481z M141.453,109.338h1.072v-1.07h-1.072V109.338z M141.453,102.91h1.072v-1.071
					h-1.072V102.91z M143.595,111.481h-1.069v1.072h1.069V111.481z M141.453,113.625h1.072v-1.071h-1.072V113.625z M140.382,86.839
					h1.071v-1.072h-1.071V86.839z M143.595,98.625h-1.069v1.07h1.069V98.625z M141.453,90.053h1.072v-1.07h-1.072V90.053z
					 M141.453,87.91h1.072v-1.071h-1.072V87.91z M143.595,94.339h-1.069v1.071h1.069V94.339z M140.382,88.982h1.071V87.91h-1.071
					V88.982z M143.595,96.481h-1.069v1.072h1.069V96.481z M143.595,85.767h-1.069v1.072h1.069V85.767z M143.595,87.91h-1.069v1.072
					h1.069V87.91z M143.595,90.053h-1.069v1.072h1.069V90.053z M143.595,92.195h-1.069v1.072h1.069V92.195z M141.453,94.339h1.072
					v-1.071h-1.072V94.339z M141.453,96.481h1.072V95.41h-1.072V96.481z M140.382,91.125h1.071v-1.072h-1.071V91.125z
					 M140.382,97.554h1.071v-1.072h-1.071V97.554z M141.453,100.767h1.072v-1.071h-1.072V100.767z M140.382,99.695h1.071v-1.07
					h-1.071V99.695z M141.453,98.625h1.072v-1.071h-1.072V98.625z M140.382,95.41h1.071v-1.071h-1.071V95.41z M140.382,93.268h1.071
					v-1.072h-1.071V93.268z M141.453,92.195h1.072v-1.07h-1.072V92.195z M140.382,101.839h1.071v-1.072h-1.071V101.839z
					 M143.595,81.481h-1.069v1.072h1.069V81.481z M143.595,83.625h-1.069v1.07h1.069V83.625z M140.382,80.41h1.071v-1.071h-1.071
					V80.41z M142.525,78.268h-1.072v1.071h1.072V78.268z M143.595,79.339h-1.069v1.071h1.069V79.339z M141.453,81.481h1.072V80.41
					h-1.072V81.481z M141.453,85.767h1.072v-1.071h-1.072V85.767z M140.382,82.554h1.071v-1.072h-1.071V82.554z M140.382,84.695
					h1.071v-1.07h-1.071V84.695z M141.453,83.625h1.072v-1.071h-1.072V83.625z"/>
			</g>
		</g>
		<path fill="#161616" d="M193.417,67.554h-51.428c-2.367,0-4.286,1.918-4.286,4.285v39.643c0,2.367,1.919,4.285,4.286,4.285h51.428
			c2.367,0,4.286-1.918,4.286-4.285V71.839C197.703,69.472,195.784,67.554,193.417,67.554 M141.989,113.625
			c-1.184,0-2.145-0.96-2.145-2.144V78.268h55.715v33.214c0,1.184-0.959,2.144-2.143,2.144H141.989z M195.56,76.125h-55.715v-4.286
			c0-1.184,0.961-2.144,2.145-2.144h51.428c1.184,0,2.143,0.96,2.143,2.144V76.125z"/>
		<rect x="137.703" y="67.554" fill="none" width="60" height="48.213"/>
		<rect x="150.56" y="82.779" fill="#63AF45" width="8.486" height="6.412"/>
		<rect x="161.31" y="82.779" fill="#63AF45" width="8.486" height="6.412"/>
		<path fill="#63AF45" d="M179.413,83.91v4.15h-6.223v-4.15H179.413 M180.544,82.779h-8.484v6.412h8.484V82.779L180.544,82.779z"/>
		<path fill="#63AF45" d="M157.915,93.437v4.149h-6.223v-4.149H157.915 M159.046,92.306h-8.486v6.413h8.486V92.306L159.046,92.306z"
			/>
		<path fill="#63AF45" d="M168.665,93.437v4.149h-6.225v-4.149H168.665 M169.796,92.306h-8.486v6.413h8.486V92.306L169.796,92.306z"
			/>
		<path fill="#63AF45" d="M179.413,93.437v4.149h-6.223v-4.149H179.413 M180.544,92.306h-8.484v6.413h8.484V92.306L180.544,92.306z"
			/>
		<path fill="#63AF45" d="M157.915,102.963v4.149h-6.223v-4.149H157.915 M159.046,101.832h-8.486v6.412h8.486V101.832
			L159.046,101.832z"/>
		<path fill="#63AF45" d="M168.665,102.963v4.149h-6.225v-4.149H168.665 M169.796,101.832h-8.486v6.412h8.486V101.832
			L169.796,101.832z"/>
		<path fill="#63AF45" d="M179.413,102.963v4.149h-6.223v-4.149H179.413 M180.544,101.832h-8.484v6.412h8.484V101.832
			L180.544,101.832z"/>
		<path fill="#63AF45" d="M190.725,83.91v4.15h-6.223v-4.15H190.725 M191.855,82.779h-8.485v6.412h8.485V82.779L191.855,82.779z"/>
		<path fill="#63AF45" d="M190.725,93.437v4.149h-6.223v-4.149H190.725 M191.855,92.306h-8.485v6.413h8.485V92.306L191.855,92.306z"
			/>
		<path fill="#63AF45" d="M190.725,102.963v4.149h-6.223v-4.149H190.725 M191.855,101.832h-8.485v6.412h8.485V101.832
			L191.855,101.832z"/>
	</g>
	<g>
		<g>
			<path fill="#63AF45" d="M577.019,344.238h-1.206v-1.818h1.206v-0.684c0-1.062,0.271-1.854,0.774-2.359
				c0.504-0.504,1.206-0.756,2.143-0.756c0.756,0,1.278,0.108,1.765,0.252v1.837c-0.433-0.145-0.811-0.234-1.278-0.234
				c-0.828,0-1.261,0.45-1.261,1.44v0.522h2.521v1.8h-2.484v7.635h-2.179V344.238z"/>
			<path fill="#63AF45" d="M582.599,347.155v-0.036c0-2.719,1.926-4.951,4.645-4.951c3.025,0,4.556,2.377,4.556,5.113
				c0,0.198-0.018,0.396-0.036,0.612h-6.985c0.233,1.549,1.332,2.413,2.736,2.413c1.062,0,1.818-0.396,2.575-1.135l1.278,1.135
				c-0.9,1.08-2.143,1.782-3.89,1.782C584.723,352.089,582.599,350.091,582.599,347.155z M589.639,346.453
				c-0.145-1.404-0.973-2.502-2.413-2.502c-1.332,0-2.269,1.025-2.467,2.502H589.639z"/>
			<path fill="#63AF45" d="M593.505,347.138v-0.036c0-3.15,2.144-4.934,4.412-4.934c1.566,0,2.557,0.792,3.24,1.675v-5.113h2.179
				v13.144h-2.179v-1.584c-0.702,0.99-1.692,1.782-3.24,1.782C595.684,352.071,593.505,350.289,593.505,347.138z M601.193,347.138
				v-0.036c0-1.837-1.296-3.043-2.755-3.043c-1.494,0-2.736,1.152-2.736,3.043v0.036c0,1.837,1.26,3.043,2.736,3.043
				C599.897,350.181,601.193,348.956,601.193,347.138z"/>
			<path fill="#63AF45" d="M605.53,347.155v-0.036c0-2.719,1.926-4.951,4.645-4.951c3.025,0,4.556,2.377,4.556,5.113
				c0,0.198-0.018,0.396-0.036,0.612h-6.985c0.233,1.549,1.332,2.413,2.736,2.413c1.062,0,1.818-0.396,2.575-1.135l1.278,1.135
				c-0.9,1.08-2.143,1.782-3.89,1.782C607.654,352.089,605.53,350.091,605.53,347.155z M612.57,346.453
				c-0.145-1.404-0.973-2.502-2.413-2.502c-1.332,0-2.269,1.025-2.467,2.502H612.57z"/>
			<path fill="#63AF45" d="M616.923,342.366h2.179v2.143c0.595-1.423,1.692-2.395,3.367-2.322v2.305h-0.126
				c-1.908,0-3.241,1.242-3.241,3.763v3.619h-2.179V342.366z"/>
			<path fill="#63AF45" d="M629.726,351.873v-1.17c-0.648,0.773-1.639,1.368-3.079,1.368c-1.801,0-3.385-1.026-3.385-2.935v-0.036
				c0-2.107,1.638-3.115,3.853-3.115c1.152,0,1.891,0.162,2.629,0.396v-0.181c0-1.314-0.828-2.034-2.341-2.034
				c-1.062,0-1.854,0.233-2.719,0.594l-0.594-1.746c1.044-0.469,2.07-0.792,3.619-0.792c2.809,0,4.177,1.476,4.177,4.015v5.636
				H629.726z M629.779,347.894c-0.559-0.216-1.332-0.378-2.179-0.378c-1.368,0-2.179,0.559-2.179,1.477v0.036
				c0,0.9,0.811,1.404,1.837,1.404c1.44,0,2.521-0.811,2.521-1.999V347.894z"/>
			<path fill="#63AF45" d="M634.836,349.244v-5.006h-1.206v-1.872h1.206v-2.61h2.179v2.61h2.557v1.872h-2.557v4.664
				c0,0.846,0.433,1.188,1.171,1.188c0.485,0,0.918-0.108,1.35-0.324v1.782c-0.54,0.307-1.152,0.486-1.962,0.486
				C635.971,352.035,634.836,351.333,634.836,349.244z"/>
			<path fill="#63AF45" d="M641.803,338.837h2.341v2.071h-2.341V338.837z M641.893,342.366h2.179v9.507h-2.179V342.366z"/>
			<path fill="#63AF45" d="M646.392,347.174v-0.036c0-2.719,2.16-4.97,5.077-4.97s5.06,2.215,5.06,4.934v0.036
				c0,2.701-2.161,4.951-5.096,4.951C648.534,352.089,646.392,349.874,646.392,347.174z M654.35,347.174v-0.036
				c0-1.675-1.206-3.061-2.917-3.061c-1.746,0-2.862,1.368-2.862,3.024v0.036c0,1.656,1.206,3.061,2.898,3.061
				C653.233,350.198,654.35,348.812,654.35,347.174z"/>
			<path fill="#63AF45" d="M658.739,342.366h2.179v1.477c0.612-0.9,1.494-1.675,2.971-1.675c2.143,0,3.386,1.44,3.386,3.655v6.05
				h-2.179v-5.401c0-1.477-0.738-2.323-2.035-2.323c-1.26,0-2.143,0.883-2.143,2.359v5.365h-2.179V342.366z"/>
			<path fill="#63AF45" d="M674.778,347.174v-0.036c0-2.719,2.16-4.97,5.077-4.97s5.06,2.215,5.06,4.934v0.036
				c0,2.701-2.161,4.951-5.096,4.951C676.921,352.089,674.778,349.874,674.778,347.174z M682.736,347.174v-0.036
				c0-1.675-1.206-3.061-2.917-3.061c-1.746,0-2.862,1.368-2.862,3.024v0.036c0,1.656,1.206,3.061,2.898,3.061
				C681.62,350.198,682.736,348.812,682.736,347.174z"/>
			<path fill="#63AF45" d="M687.612,344.238h-1.206v-1.818h1.206v-0.684c0-1.062,0.271-1.854,0.774-2.359
				c0.504-0.504,1.206-0.756,2.143-0.756c0.756,0,1.278,0.108,1.765,0.252v1.837c-0.433-0.145-0.811-0.234-1.278-0.234
				c-0.828,0-1.261,0.45-1.261,1.44v0.522h2.521v1.8h-2.484v7.635h-2.179V344.238z"/>
			<path fill="#63AF45" d="M705.108,351.873v-1.17c-0.648,0.773-1.639,1.368-3.079,1.368c-1.801,0-3.385-1.026-3.385-2.935v-0.036
				c0-2.107,1.638-3.115,3.853-3.115c1.152,0,1.891,0.162,2.629,0.396v-0.181c0-1.314-0.828-2.034-2.341-2.034
				c-1.062,0-1.854,0.233-2.719,0.594l-0.594-1.746c1.044-0.469,2.07-0.792,3.619-0.792c2.809,0,4.177,1.476,4.177,4.015v5.636
				H705.108z M705.162,347.894c-0.559-0.216-1.332-0.378-2.179-0.378c-1.368,0-2.179,0.559-2.179,1.477v0.036
				c0,0.9,0.811,1.404,1.837,1.404c1.44,0,2.521-0.811,2.521-1.999V347.894z"/>
			<path fill="#63AF45" d="M709.751,348.416v-6.05h2.179v5.401c0,1.477,0.738,2.323,2.034,2.323c1.261,0,2.143-0.883,2.143-2.359
				v-5.365h2.179v9.507h-2.179v-1.477c-0.612,0.9-1.494,1.675-2.971,1.675C710.993,352.071,709.751,350.631,709.751,348.416z"/>
			<path fill="#63AF45" d="M721.469,349.244v-5.006h-1.206v-1.872h1.206v-2.61h2.179v2.61h2.557v1.872h-2.557v4.664
				c0,0.846,0.433,1.188,1.171,1.188c0.485,0,0.918-0.108,1.35-0.324v1.782c-0.54,0.307-1.152,0.486-1.962,0.486
				C722.604,352.035,721.469,351.333,721.469,349.244z"/>
			<path fill="#63AF45" d="M728.397,338.729h2.179v5.113c0.612-0.9,1.494-1.675,2.971-1.675c2.143,0,3.386,1.44,3.386,3.655v6.05
				h-2.179v-5.401c0-1.477-0.738-2.323-2.035-2.323c-1.26,0-2.143,0.883-2.143,2.359v5.365h-2.179V338.729z"/>
			<path fill="#63AF45" d="M739.036,347.174v-0.036c0-2.719,2.16-4.97,5.077-4.97s5.06,2.215,5.06,4.934v0.036
				c0,2.701-2.161,4.951-5.096,4.951C741.179,352.089,739.036,349.874,739.036,347.174z M746.994,347.174v-0.036
				c0-1.675-1.206-3.061-2.917-3.061c-1.746,0-2.862,1.368-2.862,3.024v0.036c0,1.656,1.206,3.061,2.898,3.061
				C745.878,350.198,746.994,348.812,746.994,347.174z"/>
			<path fill="#63AF45" d="M751.384,342.366h2.179v2.143c0.595-1.423,1.692-2.395,3.367-2.322v2.305h-0.126
				c-1.908,0-3.241,1.242-3.241,3.763v3.619h-2.179V342.366z"/>
			<path fill="#63AF45" d="M758.854,338.837h2.341v2.071h-2.341V338.837z M758.943,342.366h2.179v9.507h-2.179V342.366z"/>
			<path fill="#63AF45" d="M764.416,349.244v-5.006h-1.206v-1.872h1.206v-2.61h2.179v2.61h2.557v1.872h-2.557v4.664
				c0,0.846,0.433,1.188,1.171,1.188c0.485,0,0.918-0.108,1.35-0.324v1.782c-0.54,0.307-1.152,0.486-1.962,0.486
				C765.551,352.035,764.416,351.333,764.416,349.244z"/>
			<path fill="#63AF45" d="M777.161,351.873v-1.17c-0.648,0.773-1.639,1.368-3.079,1.368c-1.801,0-3.385-1.026-3.385-2.935v-0.036
				c0-2.107,1.638-3.115,3.853-3.115c1.152,0,1.891,0.162,2.629,0.396v-0.181c0-1.314-0.828-2.034-2.341-2.034
				c-1.062,0-1.854,0.233-2.719,0.594l-0.594-1.746c1.044-0.469,2.07-0.792,3.619-0.792c2.809,0,4.177,1.476,4.177,4.015v5.636
				H777.161z M777.215,347.894c-0.559-0.216-1.332-0.378-2.179-0.378c-1.368,0-2.179,0.559-2.179,1.477v0.036
				c0,0.9,0.811,1.404,1.837,1.404c1.44,0,2.521-0.811,2.521-1.999V347.894z"/>
			<path fill="#63AF45" d="M782.273,349.244v-5.006h-1.206v-1.872h1.206v-2.61h2.179v2.61h2.557v1.872h-2.557v4.664
				c0,0.846,0.433,1.188,1.171,1.188c0.485,0,0.918-0.108,1.35-0.324v1.782c-0.54,0.307-1.152,0.486-1.962,0.486
				C783.408,352.035,782.273,351.333,782.273,349.244z"/>
			<path fill="#63AF45" d="M789.238,338.837h2.341v2.071h-2.341V338.837z M789.328,342.366h2.179v9.507h-2.179V342.366z"/>
			<path fill="#63AF45" d="M793.45,342.366h2.341l2.557,6.986l2.575-6.986h2.286l-3.889,9.579h-1.963L793.45,342.366z"/>
			<path fill="#63AF45" d="M803.998,347.155v-0.036c0-2.719,1.926-4.951,4.645-4.951c3.025,0,4.556,2.377,4.556,5.113
				c0,0.198-0.018,0.396-0.036,0.612h-6.986c0.234,1.549,1.333,2.413,2.737,2.413c1.062,0,1.818-0.396,2.575-1.135l1.278,1.135
				c-0.9,1.08-2.143,1.782-3.89,1.782C806.122,352.089,803.998,350.091,803.998,347.155z M811.038,346.453
				c-0.145-1.404-0.973-2.502-2.413-2.502c-1.332,0-2.269,1.025-2.467,2.502H811.038z"/>
			<path fill="#63AF45" d="M820.305,347.138v-0.036c0-3.15,2.143-4.934,4.412-4.934c1.566,0,2.557,0.792,3.24,1.675v-5.113h2.179
				v13.144h-2.179v-1.584c-0.702,0.99-1.692,1.782-3.24,1.782C822.483,352.071,820.305,350.289,820.305,347.138z M827.993,347.138
				v-0.036c0-1.837-1.296-3.043-2.755-3.043c-1.494,0-2.736,1.152-2.736,3.043v0.036c0,1.837,1.26,3.043,2.736,3.043
				C826.697,350.181,827.993,348.956,827.993,347.138z"/>
			<path fill="#63AF45" d="M838.667,351.873v-1.17c-0.648,0.773-1.639,1.368-3.079,1.368c-1.801,0-3.385-1.026-3.385-2.935v-0.036
				c0-2.107,1.638-3.115,3.853-3.115c1.152,0,1.891,0.162,2.629,0.396v-0.181c0-1.314-0.828-2.034-2.341-2.034
				c-1.062,0-1.854,0.233-2.719,0.594l-0.594-1.746c1.044-0.469,2.07-0.792,3.619-0.792c2.809,0,4.177,1.476,4.177,4.015v5.636
				H838.667z M838.721,347.894c-0.559-0.216-1.332-0.378-2.179-0.378c-1.368,0-2.179,0.559-2.179,1.477v0.036
				c0,0.9,0.811,1.404,1.837,1.404c1.44,0,2.521-0.811,2.521-1.999V347.894z"/>
			<path fill="#63AF45" d="M843.778,349.244v-5.006h-1.206v-1.872h1.206v-2.61h2.179v2.61h2.557v1.872h-2.557v4.664
				c0,0.846,0.433,1.188,1.171,1.188c0.485,0,0.918-0.108,1.35-0.324v1.782c-0.54,0.307-1.152,0.486-1.962,0.486
				C844.913,352.035,843.778,351.333,843.778,349.244z"/>
			<path fill="#63AF45" d="M856.524,351.873v-1.17c-0.648,0.773-1.639,1.368-3.079,1.368c-1.801,0-3.385-1.026-3.385-2.935v-0.036
				c0-2.107,1.638-3.115,3.853-3.115c1.152,0,1.891,0.162,2.629,0.396v-0.181c0-1.314-0.828-2.034-2.341-2.034
				c-1.062,0-1.854,0.233-2.719,0.594l-0.594-1.746c1.044-0.469,2.07-0.792,3.619-0.792c2.809,0,4.177,1.476,4.177,4.015v5.636
				H856.524z M856.578,347.894c-0.559-0.216-1.332-0.378-2.179-0.378c-1.368,0-2.179,0.559-2.179,1.477v0.036
				c0,0.9,0.811,1.404,1.837,1.404c1.44,0,2.521-0.811,2.521-1.999V347.894z"/>
			<path fill="#63AF45" d="M865.898,350.631l0.973-1.477c1.026,0.774,2.143,1.17,3.115,1.17c0.936,0,1.477-0.396,1.477-1.026v-0.035
				c0-0.738-1.009-0.991-2.125-1.333c-1.404-0.396-2.971-0.972-2.971-2.791v-0.035c0-1.801,1.494-2.899,3.385-2.899
				c1.188,0,2.484,0.414,3.493,1.08l-0.864,1.549c-0.918-0.559-1.891-0.9-2.683-0.9c-0.847,0-1.333,0.396-1.333,0.954v0.036
				c0,0.685,1.026,0.973,2.143,1.333c1.387,0.432,2.953,1.062,2.953,2.772v0.036c0,1.998-1.548,2.988-3.529,2.988
				C868.582,352.053,867.087,351.567,865.898,350.631z"/>
			<path fill="#63AF45" d="M875.151,347.174v-0.036c0-2.719,2.16-4.97,5.077-4.97s5.06,2.215,5.06,4.934v0.036
				c0,2.701-2.161,4.951-5.096,4.951C877.294,352.089,875.151,349.874,875.151,347.174z M883.109,347.174v-0.036
				c0-1.675-1.206-3.061-2.917-3.061c-1.746,0-2.862,1.368-2.862,3.024v0.036c0,1.656,1.206,3.061,2.898,3.061
				C881.993,350.198,883.109,348.812,883.109,347.174z"/>
			<path fill="#63AF45" d="M887.392,348.416v-6.05h2.179v5.401c0,1.477,0.738,2.323,2.034,2.323c1.261,0,2.143-0.883,2.143-2.359
				v-5.365h2.179v9.507h-2.179v-1.477c-0.612,0.9-1.494,1.675-2.971,1.675C888.634,352.071,887.392,350.631,887.392,348.416z"/>
			<path fill="#63AF45" d="M898.659,342.366h2.179v2.143c0.595-1.423,1.692-2.395,3.367-2.322v2.305h-0.126
				c-1.908,0-3.241,1.242-3.241,3.763v3.619h-2.179V342.366z"/>
			<path fill="#63AF45" d="M905.246,347.174v-0.036c0-2.701,2.088-4.97,4.933-4.97c1.8,0,2.917,0.666,3.8,1.639l-1.351,1.458
				c-0.667-0.702-1.368-1.188-2.468-1.188c-1.584,0-2.736,1.368-2.736,3.024v0.036c0,1.692,1.171,3.061,2.846,3.061
				c1.026,0,1.782-0.485,2.467-1.188l1.314,1.297c-0.937,1.044-2.035,1.782-3.891,1.782
				C907.334,352.089,905.246,349.874,905.246,347.174z"/>
			<path fill="#63AF45" d="M915.257,347.155v-0.036c0-2.719,1.926-4.951,4.645-4.951c3.025,0,4.556,2.377,4.556,5.113
				c0,0.198-0.018,0.396-0.036,0.612h-6.985c0.233,1.549,1.332,2.413,2.736,2.413c1.062,0,1.818-0.396,2.575-1.135l1.278,1.135
				c-0.9,1.08-2.143,1.782-3.89,1.782C917.381,352.089,915.257,350.091,915.257,347.155z M922.297,346.453
				c-0.145-1.404-0.973-2.502-2.413-2.502c-1.332,0-2.269,1.025-2.467,2.502H922.297z"/>
			<path fill="#63AF45" d="M925.875,350.631l0.973-1.477c1.026,0.774,2.143,1.17,3.115,1.17c0.936,0,1.477-0.396,1.477-1.026v-0.035
				c0-0.738-1.009-0.991-2.125-1.333c-1.404-0.396-2.971-0.972-2.971-2.791v-0.035c0-1.801,1.494-2.899,3.385-2.899
				c1.188,0,2.484,0.414,3.493,1.08l-0.864,1.549c-0.918-0.559-1.891-0.9-2.683-0.9c-0.847,0-1.333,0.396-1.333,0.954v0.036
				c0,0.685,1.026,0.973,2.143,1.333c1.387,0.432,2.953,1.062,2.953,2.772v0.036c0,1.998-1.548,2.988-3.529,2.988
				C928.559,352.053,927.062,351.567,925.875,350.631z"/>
		</g>
		<g>
			<g>
				
					<line fill="none" stroke="#63AF45" stroke-width="3" stroke-miterlimit="10" x1="50.98" y1="368.982" x2="949.014" y2="368.982"/>
				<g>
					<rect x="49.48" y="359.232" fill="#63AF45" width="3" height="19.5"/>
				</g>
				<g>
					<rect x="947.514" y="359.232" fill="#63AF45" width="3" height="19.5"/>
				</g>
			</g>
		</g>
		<g>
			<path fill="#864D9E" d="M517.925,428.883v-0.036c0-3.15,2.144-4.934,4.412-4.934c1.566,0,2.557,0.792,3.24,1.675v-5.113h2.179
				v13.144h-2.179v-1.584c-0.702,0.99-1.692,1.782-3.24,1.782C520.104,433.816,517.925,432.034,517.925,428.883z M525.613,428.883
				v-0.036c0-1.837-1.296-3.043-2.755-3.043c-1.494,0-2.736,1.152-2.736,3.043v0.036c0,1.837,1.26,3.043,2.736,3.043
				C524.317,431.926,525.613,430.701,525.613,428.883z"/>
			<path fill="#864D9E" d="M536.287,433.618v-1.17c-0.648,0.773-1.639,1.368-3.079,1.368c-1.801,0-3.386-1.026-3.386-2.935v-0.036
				c0-2.107,1.639-3.115,3.854-3.115c1.152,0,1.891,0.162,2.629,0.396v-0.181c0-1.314-0.828-2.034-2.341-2.034
				c-1.062,0-1.854,0.233-2.719,0.594l-0.594-1.746c1.044-0.469,2.07-0.792,3.619-0.792c2.809,0,4.177,1.476,4.177,4.015v5.636
				H536.287z M536.341,429.639c-0.559-0.216-1.333-0.378-2.179-0.378c-1.368,0-2.179,0.559-2.179,1.477v0.036
				c0,0.9,0.811,1.404,1.837,1.404c1.44,0,2.521-0.811,2.521-1.999V429.639z"/>
			<path fill="#864D9E" d="M541.398,430.989v-5.006h-1.206v-1.872h1.206v-2.61h2.179v2.61h2.557v1.872h-2.557v4.664
				c0,0.846,0.433,1.188,1.171,1.188c0.485,0,0.918-0.108,1.35-0.324v1.782c-0.54,0.307-1.152,0.486-1.962,0.486
				C542.533,433.78,541.398,433.078,541.398,430.989z"/>
			<path fill="#864D9E" d="M554.145,433.618v-1.17c-0.648,0.773-1.639,1.368-3.079,1.368c-1.801,0-3.386-1.026-3.386-2.935v-0.036
				c0-2.107,1.639-3.115,3.854-3.115c1.152,0,1.891,0.162,2.629,0.396v-0.181c0-1.314-0.828-2.034-2.341-2.034
				c-1.062,0-1.854,0.233-2.719,0.594l-0.594-1.746c1.044-0.469,2.07-0.792,3.619-0.792c2.809,0,4.177,1.476,4.177,4.015v5.636
				H554.145z M554.198,429.639c-0.559-0.216-1.333-0.378-2.179-0.378c-1.368,0-2.179,0.559-2.179,1.477v0.036
				c0,0.9,0.811,1.404,1.837,1.404c1.44,0,2.521-0.811,2.521-1.999V429.639z"/>
			<path fill="#864D9E" d="M563.771,428.919v-0.036c0-2.701,2.088-4.97,4.933-4.97c1.801,0,2.917,0.666,3.8,1.639l-1.351,1.458
				c-0.666-0.702-1.368-1.188-2.467-1.188c-1.585,0-2.737,1.368-2.737,3.024v0.036c0,1.692,1.171,3.061,2.846,3.061
				c1.026,0,1.782-0.485,2.467-1.188l1.314,1.297c-0.937,1.044-2.035,1.782-3.89,1.782
				C565.859,433.834,563.771,431.619,563.771,428.919z"/>
			<path fill="#864D9E" d="M573.782,428.919v-0.036c0-2.719,2.16-4.97,5.077-4.97s5.06,2.215,5.06,4.934v0.036
				c0,2.701-2.161,4.951-5.096,4.951C575.925,433.834,573.782,431.619,573.782,428.919z M581.74,428.919v-0.036
				c0-1.675-1.206-3.061-2.917-3.061c-1.746,0-2.862,1.368-2.862,3.024v0.036c0,1.656,1.206,3.061,2.898,3.061
				C580.624,431.943,581.74,430.558,581.74,428.919z"/>
			<path fill="#864D9E" d="M586.13,424.111h2.179v1.477c0.612-0.9,1.494-1.675,2.971-1.675c2.143,0,3.386,1.44,3.386,3.655v6.05
				h-2.179v-5.401c0-1.477-0.738-2.323-2.035-2.323c-1.26,0-2.143,0.883-2.143,2.359v5.365h-2.179V424.111z"/>
			<path fill="#864D9E" d="M597.74,430.989v-5.006h-1.206v-1.872h1.206v-2.61h2.179v2.61h2.557v1.872h-2.557v4.664
				c0,0.846,0.433,1.188,1.171,1.188c0.485,0,0.918-0.108,1.35-0.324v1.782c-0.54,0.307-1.152,0.486-1.962,0.486
				C598.875,433.78,597.74,433.078,597.74,430.989z"/>
			<path fill="#864D9E" d="M604.669,424.111h2.179v2.143c0.595-1.423,1.692-2.395,3.367-2.322v2.305h-0.126
				c-1.908,0-3.241,1.242-3.241,3.763v3.619h-2.179V424.111z"/>
			<path fill="#864D9E" d="M612.139,420.582h2.341v2.071h-2.341V420.582z M612.229,424.111h2.179v9.507h-2.179V424.111z"/>
			<path fill="#864D9E" d="M619.43,432.142v1.477h-2.179v-13.144h2.179v5.222c0.702-0.991,1.692-1.783,3.223-1.783
				c2.251,0,4.43,1.783,4.43,4.934v0.036c0,3.151-2.16,4.934-4.43,4.934C621.086,433.816,620.096,433.024,619.43,432.142z
				 M624.867,428.883v-0.036c0-1.837-1.242-3.043-2.719-3.043s-2.772,1.225-2.772,3.043v0.036c0,1.837,1.296,3.043,2.772,3.043
				C623.644,431.926,624.867,430.755,624.867,428.883z"/>
			<path fill="#864D9E" d="M629.202,430.161v-6.05h2.179v5.401c0,1.477,0.738,2.323,2.034,2.323c1.261,0,2.143-0.883,2.143-2.359
				v-5.365h2.179v9.507h-2.179v-1.477c-0.612,0.9-1.494,1.675-2.971,1.675C630.444,433.816,629.202,432.376,629.202,430.161z"/>
			<path fill="#864D9E" d="M640.92,430.989v-5.006h-1.206v-1.872h1.206v-2.61h2.179v2.61h2.557v1.872h-2.557v4.664
				c0,0.846,0.433,1.188,1.171,1.188c0.485,0,0.918-0.108,1.35-0.324v1.782c-0.54,0.307-1.152,0.486-1.962,0.486
				C642.055,433.78,640.92,433.078,640.92,430.989z"/>
			<path fill="#864D9E" d="M647.061,428.9v-0.036c0-2.719,1.926-4.951,4.645-4.951c3.025,0,4.556,2.377,4.556,5.113
				c0,0.198-0.018,0.396-0.036,0.612h-6.986c0.234,1.549,1.333,2.413,2.737,2.413c1.062,0,1.818-0.396,2.575-1.135l1.278,1.135
				c-0.9,1.08-2.143,1.782-3.89,1.782C649.185,433.834,647.061,431.836,647.061,428.9z M654.101,428.198
				c-0.145-1.404-0.973-2.502-2.413-2.502c-1.332,0-2.269,1.025-2.467,2.502H654.101z"/>
			<path fill="#864D9E" d="M657.968,428.883v-0.036c0-3.15,2.144-4.934,4.412-4.934c1.566,0,2.557,0.792,3.24,1.675v-5.113h2.179
				v13.144h-2.179v-1.584c-0.702,0.99-1.692,1.782-3.24,1.782C660.146,433.816,657.968,432.034,657.968,428.883z M665.656,428.883
				v-0.036c0-1.837-1.296-3.043-2.755-3.043c-1.494,0-2.736,1.152-2.736,3.043v0.036c0,1.837,1.26,3.043,2.736,3.043
				C664.36,431.926,665.656,430.701,665.656,428.883z"/>
			<path fill="#864D9E" d="M681.729,433.618v-1.17c-0.648,0.773-1.639,1.368-3.079,1.368c-1.801,0-3.385-1.026-3.385-2.935v-0.036
				c0-2.107,1.638-3.115,3.853-3.115c1.152,0,1.891,0.162,2.629,0.396v-0.181c0-1.314-0.828-2.034-2.341-2.034
				c-1.062,0-1.854,0.233-2.719,0.594l-0.594-1.746c1.044-0.469,2.07-0.792,3.619-0.792c2.809,0,4.177,1.476,4.177,4.015v5.636
				H681.729z M681.783,429.639c-0.559-0.216-1.332-0.378-2.179-0.378c-1.368,0-2.179,0.559-2.179,1.477v0.036
				c0,0.9,0.811,1.404,1.837,1.404c1.44,0,2.521-0.811,2.521-1.999V429.639z"/>
			<path fill="#864D9E" d="M686.479,424.111h2.179v1.477c0.612-0.9,1.495-1.675,2.971-1.675c2.143,0,3.386,1.44,3.386,3.655v6.05
				h-2.179v-5.401c0-1.477-0.738-2.323-2.035-2.323c-1.26,0-2.143,0.883-2.143,2.359v5.365h-2.179V424.111z"/>
			<path fill="#864D9E" d="M697.152,428.883v-0.036c0-3.15,2.143-4.934,4.412-4.934c1.566,0,2.557,0.792,3.24,1.675v-5.113h2.179
				v13.144h-2.179v-1.584c-0.702,0.99-1.692,1.782-3.24,1.782C699.331,433.816,697.152,432.034,697.152,428.883z M704.841,428.883
				v-0.036c0-1.837-1.296-3.043-2.755-3.043c-1.494,0-2.736,1.152-2.736,3.043v0.036c0,1.837,1.26,3.043,2.736,3.043
				C703.545,431.926,704.841,430.701,704.841,428.883z"/>
			<path fill="#864D9E" d="M715.134,420.582h2.341v2.071h-2.341V420.582z M715.224,424.111h2.179v9.507h-2.179V424.111z"/>
			<path fill="#864D9E" d="M720.245,424.111h2.179v1.44c0.612-0.847,1.44-1.639,2.899-1.639c1.368,0,2.322,0.666,2.826,1.675
				c0.774-1.009,1.783-1.675,3.224-1.675c2.07,0,3.331,1.314,3.331,3.638v6.067h-2.179v-5.401c0-1.513-0.702-2.323-1.927-2.323
				c-1.188,0-2.035,0.828-2.035,2.359v5.365h-2.179v-5.42c0-1.477-0.72-2.305-1.926-2.305c-1.207,0-2.035,0.9-2.035,2.377v5.348
				h-2.179V424.111z"/>
			<path fill="#864D9E" d="M737.345,424.111h2.179v1.585c0.702-0.991,1.692-1.783,3.223-1.783c2.251,0,4.43,1.783,4.43,4.934v0.036
				c0,3.151-2.16,4.934-4.43,4.934c-1.566,0-2.557-0.792-3.223-1.675v4.357h-2.179V424.111z M744.961,428.883v-0.036
				c0-1.837-1.242-3.043-2.719-3.043s-2.772,1.225-2.772,3.043v0.036c0,1.837,1.296,3.043,2.772,3.043
				C743.737,431.926,744.961,430.755,744.961,428.883z"/>
			<path fill="#864D9E" d="M749.404,424.111h2.179v2.143c0.595-1.423,1.692-2.395,3.367-2.322v2.305h-0.126
				c-1.908,0-3.241,1.242-3.241,3.763v3.619h-2.179V424.111z"/>
			<path fill="#864D9E" d="M755.991,428.919v-0.036c0-2.719,2.16-4.97,5.077-4.97s5.06,2.215,5.06,4.934v0.036
				c0,2.701-2.161,4.951-5.096,4.951C758.134,433.834,755.991,431.619,755.991,428.919z M763.949,428.919v-0.036
				c0-1.675-1.206-3.061-2.917-3.061c-1.746,0-2.862,1.368-2.862,3.024v0.036c0,1.656,1.206,3.061,2.898,3.061
				C762.833,431.943,763.949,430.558,763.949,428.919z"/>
			<path fill="#864D9E" d="M766.897,424.111h2.341l2.557,6.986l2.575-6.986h2.286l-3.889,9.579h-1.963L766.897,424.111z"/>
			<path fill="#864D9E" d="M777.446,428.9v-0.036c0-2.719,1.926-4.951,4.645-4.951c3.025,0,4.556,2.377,4.556,5.113
				c0,0.198-0.018,0.396-0.036,0.612h-6.985c0.233,1.549,1.332,2.413,2.736,2.413c1.062,0,1.818-0.396,2.575-1.135l1.278,1.135
				c-0.9,1.08-2.143,1.782-3.89,1.782C779.57,433.834,777.446,431.836,777.446,428.9z M784.486,428.198
				c-0.145-1.404-0.973-2.502-2.413-2.502c-1.332,0-2.269,1.025-2.467,2.502H784.486z"/>
			<path fill="#864D9E" d="M788.354,428.883v-0.036c0-3.15,2.143-4.934,4.412-4.934c1.566,0,2.557,0.792,3.24,1.675v-5.113h2.179
				v13.144h-2.179v-1.584c-0.702,0.99-1.692,1.782-3.24,1.782C790.532,433.816,788.354,432.034,788.354,428.883z M796.042,428.883
				v-0.036c0-1.837-1.296-3.043-2.755-3.043c-1.494,0-2.736,1.152-2.736,3.043v0.036c0,1.837,1.26,3.043,2.736,3.043
				C794.746,431.926,796.042,430.701,796.042,428.883z"/>
			<path fill="#864D9E" d="M808.478,432.142v1.477h-2.179v-13.144h2.179v5.222c0.702-0.991,1.692-1.783,3.224-1.783
				c2.25,0,4.429,1.783,4.429,4.934v0.036c0,3.151-2.16,4.934-4.429,4.934C810.134,433.816,809.144,433.024,808.478,432.142z
				 M813.915,428.883v-0.036c0-1.837-1.242-3.043-2.719-3.043s-2.772,1.225-2.772,3.043v0.036c0,1.837,1.296,3.043,2.772,3.043
				C812.691,431.926,813.915,430.755,813.915,428.883z"/>
			<path fill="#864D9E" d="M817.604,435.977l0.738-1.62c0.396,0.216,0.828,0.36,1.278,0.36c0.612,0,0.99-0.271,1.351-1.099
				l-3.962-9.507h2.323l2.7,7.058l2.467-7.058h2.27l-3.781,9.777c-0.757,1.944-1.603,2.664-3.133,2.664
				C818.937,436.553,818.271,436.337,817.604,435.977z"/>
			<path fill="#864D9E" d="M833.516,428.919v-0.036c0-2.701,2.088-4.97,4.933-4.97c1.801,0,2.917,0.666,3.8,1.639l-1.351,1.458
				c-0.666-0.702-1.368-1.188-2.467-1.188c-1.585,0-2.737,1.368-2.737,3.024v0.036c0,1.692,1.171,3.061,2.846,3.061
				c1.026,0,1.782-0.485,2.467-1.188l1.314,1.297c-0.937,1.044-2.035,1.782-3.89,1.782
				C835.604,433.834,833.516,431.619,833.516,428.919z"/>
			<path fill="#864D9E" d="M843.526,428.919v-0.036c0-2.719,2.16-4.97,5.077-4.97s5.06,2.215,5.06,4.934v0.036
				c0,2.701-2.161,4.951-5.096,4.951C845.669,433.834,843.526,431.619,843.526,428.919z M851.484,428.919v-0.036
				c0-1.675-1.206-3.061-2.917-3.061c-1.746,0-2.862,1.368-2.862,3.024v0.036c0,1.656,1.206,3.061,2.898,3.061
				C850.368,431.943,851.484,430.558,851.484,428.919z"/>
			<path fill="#864D9E" d="M855.874,424.111h2.179v1.44c0.612-0.847,1.44-1.639,2.899-1.639c1.368,0,2.322,0.666,2.826,1.675
				c0.774-1.009,1.783-1.675,3.224-1.675c2.07,0,3.331,1.314,3.331,3.638v6.067h-2.179v-5.401c0-1.513-0.702-2.323-1.927-2.323
				c-1.188,0-2.035,0.828-2.035,2.359v5.365h-2.179v-5.42c0-1.477-0.72-2.305-1.926-2.305c-1.207,0-2.035,0.9-2.035,2.377v5.348
				h-2.179V424.111z"/>
			<path fill="#864D9E" d="M872.974,424.111h2.179v1.44c0.612-0.847,1.44-1.639,2.899-1.639c1.368,0,2.322,0.666,2.826,1.675
				c0.774-1.009,1.783-1.675,3.224-1.675c2.07,0,3.331,1.314,3.331,3.638v6.067h-2.179v-5.401c0-1.513-0.702-2.323-1.927-2.323
				c-1.188,0-2.035,0.828-2.035,2.359v5.365h-2.179v-5.42c0-1.477-0.72-2.305-1.926-2.305c-1.207,0-2.035,0.9-2.035,2.377v5.348
				h-2.179V424.111z"/>
			<path fill="#864D9E" d="M889.966,430.161v-6.05h2.179v5.401c0,1.477,0.738,2.323,2.034,2.323c1.261,0,2.143-0.883,2.143-2.359
				v-5.365h2.179v9.507h-2.179v-1.477c-0.612,0.9-1.494,1.675-2.971,1.675C891.208,433.816,889.966,432.376,889.966,430.161z"/>
			<path fill="#864D9E" d="M901.233,424.111h2.179v1.477c0.612-0.9,1.494-1.675,2.971-1.675c2.143,0,3.386,1.44,3.386,3.655v6.05
				h-2.179v-5.401c0-1.477-0.738-2.323-2.035-2.323c-1.26,0-2.143,0.883-2.143,2.359v5.365h-2.179V424.111z"/>
			<path fill="#864D9E" d="M912.43,420.582h2.341v2.071h-2.341V420.582z M912.52,424.111h2.179v9.507h-2.179V424.111z"/>
			<path fill="#864D9E" d="M917.99,430.989v-5.006h-1.206v-1.872h1.206v-2.61h2.179v2.61h2.557v1.872h-2.557v4.664
				c0,0.846,0.433,1.188,1.171,1.188c0.485,0,0.918-0.108,1.35-0.324v1.782c-0.54,0.307-1.152,0.486-1.963,0.486
				C919.125,433.78,917.99,433.078,917.99,430.989z"/>
			<path fill="#864D9E" d="M924.615,435.977l0.738-1.62c0.396,0.216,0.828,0.36,1.278,0.36c0.612,0,0.99-0.271,1.351-1.099
				l-3.962-9.507h2.323l2.7,7.058l2.467-7.058h2.269l-3.78,9.777c-0.757,1.944-1.603,2.664-3.134,2.664
				C925.947,436.553,925.281,436.337,924.615,435.977z"/>
		</g>
		<g>
			<g>
				
					<line fill="none" stroke="#864D9E" stroke-width="3" stroke-miterlimit="10" x1="384.064" y1="402.106" x2="949.014" y2="402.106"/>
				<g>
					<rect x="382.564" y="392.356" fill="#864D9E" width="3" height="19.5"/>
				</g>
				<g>
					<rect x="947.514" y="392.356" fill="#864D9E" width="3" height="19.5"/>
				</g>
			</g>
		</g>
	</g>
</g>
<rect x="49.48" y="81.935" fill="#FFFFFF" stroke="#7F7F7F" stroke-width="2" stroke-miterlimit="10" width="236.447" height="106.103"/>
<g>
	<path fill="#161616" d="M85.854,139.511h12.504v2.688h-9.553v4.584h8.473v2.688h-8.473v6.841h-2.951V139.511z"/>
	<path fill="#161616" d="M100.207,150.024v-0.049c0-3.624,2.568-6.601,6.193-6.601c4.031,0,6.072,3.169,6.072,6.817
		c0,0.264-0.023,0.527-0.049,0.815h-9.312c0.312,2.064,1.777,3.217,3.648,3.217c1.416,0,2.424-0.528,3.434-1.513l1.703,1.513
		c-1.199,1.439-2.855,2.376-5.184,2.376C103.039,156.601,100.207,153.937,100.207,150.024z M109.592,149.088
		c-0.191-1.872-1.295-3.336-3.215-3.336c-1.777,0-3.025,1.368-3.289,3.336H109.592z"/>
	<path fill="#161616" d="M114.703,150.024v-0.049c0-3.624,2.568-6.601,6.193-6.601c4.031,0,6.072,3.169,6.072,6.817
		c0,0.264-0.023,0.527-0.049,0.815h-9.312c0.312,2.064,1.777,3.217,3.648,3.217c1.416,0,2.424-0.528,3.434-1.513l1.703,1.513
		c-1.199,1.439-2.855,2.376-5.184,2.376C117.535,156.601,114.703,153.937,114.703,150.024z M124.088,149.088
		c-0.191-1.872-1.295-3.336-3.215-3.336c-1.777,0-3.025,1.368-3.289,3.336H124.088z"/>
	<path fill="#161616" d="M129.248,150v-0.048c0-4.2,2.855-6.577,5.881-6.577c2.088,0,3.408,1.057,4.32,2.232v-6.816h2.904v17.521
		h-2.904V154.2c-0.938,1.32-2.256,2.376-4.32,2.376C132.152,156.576,129.248,154.2,129.248,150z M139.496,150v-0.048
		c0-2.448-1.727-4.057-3.672-4.057c-1.992,0-3.648,1.536-3.648,4.057V150c0,2.448,1.68,4.057,3.648,4.057
		C137.77,154.057,139.496,152.424,139.496,150z"/>
	<path fill="#161616" d="M153.512,139.511H161c2.113,0,3.77,0.624,4.85,1.681c0.889,0.912,1.393,2.16,1.393,3.624v0.048
		c0,2.761-1.656,4.417-4.01,5.089l4.537,6.36h-3.48l-4.129-5.856h-0.047h-3.648v5.856h-2.953V139.511z M160.785,147.84
		c2.111,0,3.455-1.104,3.455-2.809v-0.048c0-1.8-1.295-2.784-3.479-2.784h-4.297v5.641H160.785z"/>
	<path fill="#161616" d="M169.592,150.024v-0.049c0-3.624,2.568-6.601,6.191-6.601c4.033,0,6.074,3.169,6.074,6.817
		c0,0.264-0.025,0.527-0.049,0.815h-9.312c0.312,2.064,1.775,3.217,3.648,3.217c1.416,0,2.424-0.528,3.432-1.513l1.705,1.513
		c-1.201,1.439-2.857,2.376-5.186,2.376C172.424,156.601,169.592,153.937,169.592,150.024z M178.977,149.088
		c-0.191-1.872-1.297-3.336-3.217-3.336c-1.775,0-3.023,1.368-3.287,3.336H178.977z"/>
	<path fill="#161616" d="M184.76,158.688l1.08-2.184c1.344,0.84,2.783,1.344,4.512,1.344c2.592,0,4.01-1.344,4.01-3.889v-0.983
		c-1.057,1.368-2.377,2.328-4.465,2.328c-2.977,0-5.762-2.208-5.762-5.929v-0.048c0-3.744,2.809-5.953,5.762-5.953
		c2.137,0,3.455,0.984,4.439,2.16v-1.896h2.904v10.081c0,2.136-0.551,3.72-1.607,4.776c-1.152,1.151-2.928,1.704-5.209,1.704
		C188.336,160.201,186.393,159.673,184.76,158.688z M194.385,149.376v-0.048c0-2.089-1.705-3.505-3.721-3.505s-3.6,1.393-3.6,3.48
		v0.048c0,2.089,1.607,3.505,3.6,3.505C192.68,152.856,194.385,151.416,194.385,149.376z"/>
	<path fill="#161616" d="M200.912,138.935h3.119v2.761h-3.119V138.935z M201.031,143.64h2.904v12.673h-2.904V143.64z"/>
	<path fill="#161616" d="M206.695,154.656l1.297-1.968c1.367,1.032,2.855,1.56,4.152,1.56c1.248,0,1.969-0.527,1.969-1.368v-0.048
		c0-0.984-1.346-1.32-2.834-1.776c-1.871-0.527-3.959-1.296-3.959-3.72v-0.048c0-2.4,1.992-3.864,4.512-3.864
		c1.584,0,3.312,0.552,4.656,1.439l-1.152,2.064c-1.223-0.744-2.52-1.2-3.576-1.2c-1.127,0-1.775,0.528-1.775,1.272v0.048
		c0,0.912,1.367,1.296,2.855,1.776c1.85,0.575,3.938,1.416,3.938,3.696v0.048c0,2.664-2.064,3.984-4.705,3.984
		C210.271,156.553,208.279,155.904,206.695,154.656z"/>
	<path fill="#161616" d="M220.088,152.809v-6.673h-1.607v-2.496h1.607v-3.48h2.904v3.48h3.408v2.496h-3.408v6.217
		c0,1.128,0.576,1.584,1.561,1.584c0.648,0,1.223-0.145,1.799-0.433v2.377c-0.719,0.407-1.535,0.647-2.615,0.647
		C221.6,156.528,220.088,155.593,220.088,152.809z"/>
	<path fill="#161616" d="M229.328,143.64h2.904v2.856c0.791-1.896,2.256-3.192,4.488-3.097v3.072h-0.168
		c-2.545,0-4.32,1.656-4.32,5.017v4.824h-2.904V143.64z"/>
	<path fill="#161616" d="M238.832,159.457l0.984-2.16c0.527,0.288,1.104,0.479,1.703,0.479c0.816,0,1.32-0.359,1.801-1.464
		l-5.281-12.673h3.098l3.6,9.408l3.289-9.408h3.023l-5.041,13.033c-1.008,2.592-2.135,3.552-4.176,3.552
		C240.607,160.225,239.719,159.937,238.832,159.457z"/>
</g>
<g>
	<g>
		
			<line fill="none" stroke="#7F7F7F" stroke-width="2" stroke-miterlimit="10" x1="288.332" y1="134.986" x2="379.762" y2="134.986"/>
		<g>
			<path fill="#7F7F7F" d="M302.001,144.586c0.297-0.465,0.159-1.084-0.307-1.381l-12.905-8.219l12.905-8.219
				c0.466-0.297,0.604-0.916,0.307-1.381s-0.919-0.6-1.381-0.307l-14.229,9.062c-0.288,0.184-0.463,0.502-0.463,0.844
				s0.175,0.66,0.463,0.844l14.229,9.062c0.166,0.105,0.353,0.156,0.536,0.156C301.486,145.049,301.81,144.885,302.001,144.586z"/>
		</g>
		<g>
			<path fill="#7F7F7F" d="M366.093,144.586c-0.297-0.465-0.159-1.084,0.307-1.381l12.905-8.219l-12.905-8.219
				c-0.466-0.297-0.604-0.916-0.307-1.381s0.919-0.6,1.381-0.307l14.229,9.062c0.288,0.184,0.463,0.502,0.463,0.844
				s-0.175,0.66-0.463,0.844l-14.229,9.062c-0.166,0.105-0.353,0.156-0.536,0.156C366.607,145.049,366.284,144.885,366.093,144.586z
				"/>
		</g>
	</g>
</g>
<g>
	<path fill="#FFFFFF" d="M139.845,111.481c0,0.444,0.137,0.855,0.366,1.198c0.31,0.456,0.788,0.787,1.345,0.9
		c0.141,0.029,0.284,0.045,0.434,0.045h53.57V78.268h-55.715V111.481z M195.194,70.641c-0.309-0.456-0.787-0.787-1.344-0.9
		c-0.141-0.029-0.285-0.045-0.434-0.045h-51.428c-0.149,0-0.293,0.016-0.434,0.045c-0.557,0.113-1.035,0.444-1.345,0.9
		c-0.229,0.342-0.366,0.756-0.366,1.198v4.286h55.715v-4.286C195.56,71.396,195.425,70.982,195.194,70.641"/>
	<g opacity="0.149">
		<rect x="143.597" y="78.268" fill="#161616" width="1.07" height="35.357"/>
		<path fill="#161616" d="M143.062,71.839c-0.594,0-1.072,0.48-1.072,1.071c0,0.592,0.479,1.072,1.072,1.072
			c0.59,0,1.07-0.48,1.07-1.072C144.132,72.319,143.651,71.839,143.062,71.839"/>
		<path fill="#161616" d="M146.274,71.839c-0.592,0-1.071,0.48-1.071,1.071c0,0.592,0.479,1.072,1.071,1.072s1.072-0.48,1.072-1.072
			C147.347,72.319,146.866,71.839,146.274,71.839"/>
		<path fill="#161616" d="M149.489,71.839c-0.592,0-1.072,0.48-1.072,1.071c0,0.592,0.48,1.072,1.072,1.072s1.07-0.48,1.07-1.072
			C150.56,72.319,150.081,71.839,149.489,71.839"/>
	</g>
	<g opacity="0.102">
		<g>
			<defs>
				<rect id="SVGID_35_" x="140.382" y="78.268" width="3.213" height="35.357"/>
			</defs>
			<clipPath id="SVGID_12_">
				<use xlink:href="#SVGID_35_"  overflow="visible"/>
			</clipPath>
			<path clip-path="url(#SVGID_12_)" fill="#161616" d="M140.382,108.268h1.071v-1.072h-1.071V108.268z M141.453,105.053h1.072
				v-1.071h-1.072V105.053z M140.382,106.125h1.071v-1.072h-1.071V106.125z M140.382,103.981h1.071v-1.071h-1.071V103.981z
				 M141.453,107.195h1.072v-1.07h-1.072V107.195z M140.382,112.554h1.071v-1.072h-1.071V112.554z M143.595,109.338h-1.069v1.072
				h1.069V109.338z M143.595,105.053h-1.069v1.072h1.069V105.053z M143.595,107.195h-1.069v1.072h1.069V107.195z M143.595,102.91
				h-1.069v1.071h1.069V102.91z M143.595,100.767h-1.069v1.072h1.069V100.767z M140.382,110.41h1.071v-1.072h-1.071V110.41z
				 M141.453,111.481h1.072v-1.071h-1.072V111.481z M141.453,109.338h1.072v-1.07h-1.072V109.338z M141.453,102.91h1.072v-1.071
				h-1.072V102.91z M143.595,111.481h-1.069v1.072h1.069V111.481z M141.453,113.625h1.072v-1.071h-1.072V113.625z M140.382,86.839
				h1.071v-1.072h-1.071V86.839z M143.595,98.625h-1.069v1.07h1.069V98.625z M141.453,90.053h1.072v-1.07h-1.072V90.053z
				 M141.453,87.91h1.072v-1.071h-1.072V87.91z M143.595,94.339h-1.069v1.071h1.069V94.339z M140.382,88.982h1.071V87.91h-1.071
				V88.982z M143.595,96.481h-1.069v1.072h1.069V96.481z M143.595,85.767h-1.069v1.072h1.069V85.767z M143.595,87.91h-1.069v1.072
				h1.069V87.91z M143.595,90.053h-1.069v1.072h1.069V90.053z M143.595,92.195h-1.069v1.072h1.069V92.195z M141.453,94.339h1.072
				v-1.071h-1.072V94.339z M141.453,96.481h1.072V95.41h-1.072V96.481z M140.382,91.125h1.071v-1.072h-1.071V91.125z
				 M140.382,97.554h1.071v-1.072h-1.071V97.554z M141.453,100.767h1.072v-1.071h-1.072V100.767z M140.382,99.695h1.071v-1.07
				h-1.071V99.695z M141.453,98.625h1.072v-1.071h-1.072V98.625z M140.382,95.41h1.071v-1.071h-1.071V95.41z M140.382,93.268h1.071
				v-1.072h-1.071V93.268z M141.453,92.195h1.072v-1.07h-1.072V92.195z M140.382,101.839h1.071v-1.072h-1.071V101.839z
				 M143.595,81.481h-1.069v1.072h1.069V81.481z M143.595,83.625h-1.069v1.07h1.069V83.625z M140.382,80.41h1.071v-1.071h-1.071
				V80.41z M142.525,78.268h-1.072v1.071h1.072V78.268z M143.595,79.339h-1.069v1.071h1.069V79.339z M141.453,81.481h1.072V80.41
				h-1.072V81.481z M141.453,85.767h1.072v-1.071h-1.072V85.767z M140.382,82.554h1.071v-1.072h-1.071V82.554z M140.382,84.695
				h1.071v-1.07h-1.071V84.695z M141.453,83.625h1.072v-1.071h-1.072V83.625z"/>
		</g>
	</g>
	<path fill="#161616" d="M193.417,67.554h-51.428c-2.367,0-4.286,1.918-4.286,4.285v39.643c0,2.367,1.919,4.285,4.286,4.285h51.428
		c2.367,0,4.286-1.918,4.286-4.285V71.839C197.703,69.472,195.784,67.554,193.417,67.554 M141.989,113.625
		c-1.184,0-2.145-0.96-2.145-2.144V78.268h55.715v33.214c0,1.184-0.959,2.144-2.143,2.144H141.989z M195.56,76.125h-55.715v-4.286
		c0-1.184,0.961-2.144,2.145-2.144h51.428c1.184,0,2.143,0.96,2.143,2.144V76.125z"/>
	<rect x="137.703" y="67.554" fill="none" width="60" height="48.213"/>
	<rect x="150.56" y="82.779" fill="#63AF45" width="8.486" height="6.412"/>
	<rect x="161.31" y="82.779" fill="#63AF45" width="8.486" height="6.412"/>
	<path fill="#63AF45" d="M179.413,83.91v4.15h-6.223v-4.15H179.413 M180.544,82.779h-8.484v6.412h8.484V82.779L180.544,82.779z"/>
	<path fill="#63AF45" d="M157.915,93.437v4.149h-6.223v-4.149H157.915 M159.046,92.306h-8.486v6.413h8.486V92.306L159.046,92.306z"
		/>
	<path fill="#63AF45" d="M168.665,93.437v4.149h-6.225v-4.149H168.665 M169.796,92.306h-8.486v6.413h8.486V92.306L169.796,92.306z"
		/>
	<path fill="#63AF45" d="M179.413,93.437v4.149h-6.223v-4.149H179.413 M180.544,92.306h-8.484v6.413h8.484V92.306L180.544,92.306z"
		/>
	<path fill="#63AF45" d="M157.915,102.963v4.149h-6.223v-4.149H157.915 M159.046,101.832h-8.486v6.412h8.486V101.832
		L159.046,101.832z"/>
	<path fill="#63AF45" d="M168.665,102.963v4.149h-6.225v-4.149H168.665 M169.796,101.832h-8.486v6.412h8.486V101.832
		L169.796,101.832z"/>
	<path fill="#63AF45" d="M179.413,102.963v4.149h-6.223v-4.149H179.413 M180.544,101.832h-8.484v6.412h8.484V101.832
		L180.544,101.832z"/>
	<path fill="#63AF45" d="M190.725,83.91v4.15h-6.223v-4.15H190.725 M191.855,82.779h-8.485v6.412h8.485V82.779L191.855,82.779z"/>
	<path fill="#63AF45" d="M190.725,93.437v4.149h-6.223v-4.149H190.725 M191.855,92.306h-8.485v6.413h8.485V92.306L191.855,92.306z"
		/>
	<path fill="#63AF45" d="M190.725,102.963v4.149h-6.223v-4.149H190.725 M191.855,101.832h-8.485v6.412h8.485V101.832
		L191.855,101.832z"/>
</g>
<g>
	<path fill="#63AF45" d="M577.019,344.238h-1.206v-1.818h1.206v-0.684c0-1.062,0.271-1.854,0.774-2.359
		c0.504-0.504,1.206-0.756,2.143-0.756c0.756,0,1.278,0.108,1.765,0.252v1.837c-0.433-0.145-0.811-0.234-1.278-0.234
		c-0.828,0-1.261,0.45-1.261,1.44v0.522h2.521v1.8h-2.484v7.635h-2.179V344.238z"/>
	<path fill="#63AF45" d="M582.599,347.155v-0.036c0-2.719,1.926-4.951,4.645-4.951c3.025,0,4.556,2.377,4.556,5.113
		c0,0.198-0.018,0.396-0.036,0.612h-6.985c0.233,1.549,1.332,2.413,2.736,2.413c1.062,0,1.818-0.396,2.575-1.135l1.278,1.135
		c-0.9,1.08-2.143,1.782-3.89,1.782C584.723,352.089,582.599,350.091,582.599,347.155z M589.639,346.453
		c-0.145-1.404-0.973-2.502-2.413-2.502c-1.332,0-2.269,1.025-2.467,2.502H589.639z"/>
	<path fill="#63AF45" d="M593.505,347.138v-0.036c0-3.15,2.144-4.934,4.412-4.934c1.566,0,2.557,0.792,3.24,1.675v-5.113h2.179
		v13.144h-2.179v-1.584c-0.702,0.99-1.692,1.782-3.24,1.782C595.684,352.071,593.505,350.289,593.505,347.138z M601.193,347.138
		v-0.036c0-1.837-1.296-3.043-2.755-3.043c-1.494,0-2.736,1.152-2.736,3.043v0.036c0,1.837,1.26,3.043,2.736,3.043
		C599.897,350.181,601.193,348.956,601.193,347.138z"/>
	<path fill="#63AF45" d="M605.53,347.155v-0.036c0-2.719,1.926-4.951,4.645-4.951c3.025,0,4.556,2.377,4.556,5.113
		c0,0.198-0.018,0.396-0.036,0.612h-6.985c0.233,1.549,1.332,2.413,2.736,2.413c1.062,0,1.818-0.396,2.575-1.135l1.278,1.135
		c-0.9,1.08-2.143,1.782-3.89,1.782C607.654,352.089,605.53,350.091,605.53,347.155z M612.57,346.453
		c-0.145-1.404-0.973-2.502-2.413-2.502c-1.332,0-2.269,1.025-2.467,2.502H612.57z"/>
	<path fill="#63AF45" d="M616.923,342.366h2.179v2.143c0.595-1.423,1.692-2.395,3.367-2.322v2.305h-0.126
		c-1.908,0-3.241,1.242-3.241,3.763v3.619h-2.179V342.366z"/>
	<path fill="#63AF45" d="M629.726,351.873v-1.17c-0.648,0.773-1.639,1.368-3.079,1.368c-1.801,0-3.385-1.026-3.385-2.935v-0.036
		c0-2.107,1.638-3.115,3.853-3.115c1.152,0,1.891,0.162,2.629,0.396v-0.181c0-1.314-0.828-2.034-2.341-2.034
		c-1.062,0-1.854,0.233-2.719,0.594l-0.594-1.746c1.044-0.469,2.07-0.792,3.619-0.792c2.809,0,4.177,1.476,4.177,4.015v5.636
		H629.726z M629.779,347.894c-0.559-0.216-1.332-0.378-2.179-0.378c-1.368,0-2.179,0.559-2.179,1.477v0.036
		c0,0.9,0.811,1.404,1.837,1.404c1.44,0,2.521-0.811,2.521-1.999V347.894z"/>
	<path fill="#63AF45" d="M634.836,349.244v-5.006h-1.206v-1.872h1.206v-2.61h2.179v2.61h2.557v1.872h-2.557v4.664
		c0,0.846,0.433,1.188,1.171,1.188c0.485,0,0.918-0.108,1.35-0.324v1.782c-0.54,0.307-1.152,0.486-1.962,0.486
		C635.971,352.035,634.836,351.333,634.836,349.244z"/>
	<path fill="#63AF45" d="M641.803,338.837h2.341v2.071h-2.341V338.837z M641.893,342.366h2.179v9.507h-2.179V342.366z"/>
	<path fill="#63AF45" d="M646.392,347.174v-0.036c0-2.719,2.16-4.97,5.077-4.97s5.06,2.215,5.06,4.934v0.036
		c0,2.701-2.161,4.951-5.096,4.951C648.534,352.089,646.392,349.874,646.392,347.174z M654.35,347.174v-0.036
		c0-1.675-1.206-3.061-2.917-3.061c-1.746,0-2.862,1.368-2.862,3.024v0.036c0,1.656,1.206,3.061,2.898,3.061
		C653.233,350.198,654.35,348.812,654.35,347.174z"/>
	<path fill="#63AF45" d="M658.739,342.366h2.179v1.477c0.612-0.9,1.494-1.675,2.971-1.675c2.143,0,3.386,1.44,3.386,3.655v6.05
		h-2.179v-5.401c0-1.477-0.738-2.323-2.035-2.323c-1.26,0-2.143,0.883-2.143,2.359v5.365h-2.179V342.366z"/>
	<path fill="#63AF45" d="M674.778,347.174v-0.036c0-2.719,2.16-4.97,5.077-4.97s5.06,2.215,5.06,4.934v0.036
		c0,2.701-2.161,4.951-5.096,4.951C676.921,352.089,674.778,349.874,674.778,347.174z M682.736,347.174v-0.036
		c0-1.675-1.206-3.061-2.917-3.061c-1.746,0-2.862,1.368-2.862,3.024v0.036c0,1.656,1.206,3.061,2.898,3.061
		C681.62,350.198,682.736,348.812,682.736,347.174z"/>
	<path fill="#63AF45" d="M687.612,344.238h-1.206v-1.818h1.206v-0.684c0-1.062,0.271-1.854,0.774-2.359
		c0.504-0.504,1.206-0.756,2.143-0.756c0.756,0,1.278,0.108,1.765,0.252v1.837c-0.433-0.145-0.811-0.234-1.278-0.234
		c-0.828,0-1.261,0.45-1.261,1.44v0.522h2.521v1.8h-2.484v7.635h-2.179V344.238z"/>
	<path fill="#63AF45" d="M705.108,351.873v-1.17c-0.648,0.773-1.639,1.368-3.079,1.368c-1.801,0-3.385-1.026-3.385-2.935v-0.036
		c0-2.107,1.638-3.115,3.853-3.115c1.152,0,1.891,0.162,2.629,0.396v-0.181c0-1.314-0.828-2.034-2.341-2.034
		c-1.062,0-1.854,0.233-2.719,0.594l-0.594-1.746c1.044-0.469,2.07-0.792,3.619-0.792c2.809,0,4.177,1.476,4.177,4.015v5.636
		H705.108z M705.162,347.894c-0.559-0.216-1.332-0.378-2.179-0.378c-1.368,0-2.179,0.559-2.179,1.477v0.036
		c0,0.9,0.811,1.404,1.837,1.404c1.44,0,2.521-0.811,2.521-1.999V347.894z"/>
	<path fill="#63AF45" d="M709.751,348.416v-6.05h2.179v5.401c0,1.477,0.738,2.323,2.034,2.323c1.261,0,2.143-0.883,2.143-2.359
		v-5.365h2.179v9.507h-2.179v-1.477c-0.612,0.9-1.494,1.675-2.971,1.675C710.993,352.071,709.751,350.631,709.751,348.416z"/>
	<path fill="#63AF45" d="M721.469,349.244v-5.006h-1.206v-1.872h1.206v-2.61h2.179v2.61h2.557v1.872h-2.557v4.664
		c0,0.846,0.433,1.188,1.171,1.188c0.485,0,0.918-0.108,1.35-0.324v1.782c-0.54,0.307-1.152,0.486-1.962,0.486
		C722.604,352.035,721.469,351.333,721.469,349.244z"/>
	<path fill="#63AF45" d="M728.397,338.729h2.179v5.113c0.612-0.9,1.494-1.675,2.971-1.675c2.143,0,3.386,1.44,3.386,3.655v6.05
		h-2.179v-5.401c0-1.477-0.738-2.323-2.035-2.323c-1.26,0-2.143,0.883-2.143,2.359v5.365h-2.179V338.729z"/>
	<path fill="#63AF45" d="M739.036,347.174v-0.036c0-2.719,2.16-4.97,5.077-4.97s5.06,2.215,5.06,4.934v0.036
		c0,2.701-2.161,4.951-5.096,4.951C741.179,352.089,739.036,349.874,739.036,347.174z M746.994,347.174v-0.036
		c0-1.675-1.206-3.061-2.917-3.061c-1.746,0-2.862,1.368-2.862,3.024v0.036c0,1.656,1.206,3.061,2.898,3.061
		C745.878,350.198,746.994,348.812,746.994,347.174z"/>
	<path fill="#63AF45" d="M751.384,342.366h2.179v2.143c0.595-1.423,1.692-2.395,3.367-2.322v2.305h-0.126
		c-1.908,0-3.241,1.242-3.241,3.763v3.619h-2.179V342.366z"/>
	<path fill="#63AF45" d="M758.854,338.837h2.341v2.071h-2.341V338.837z M758.943,342.366h2.179v9.507h-2.179V342.366z"/>
	<path fill="#63AF45" d="M764.416,349.244v-5.006h-1.206v-1.872h1.206v-2.61h2.179v2.61h2.557v1.872h-2.557v4.664
		c0,0.846,0.433,1.188,1.171,1.188c0.485,0,0.918-0.108,1.35-0.324v1.782c-0.54,0.307-1.152,0.486-1.962,0.486
		C765.551,352.035,764.416,351.333,764.416,349.244z"/>
	<path fill="#63AF45" d="M777.161,351.873v-1.17c-0.648,0.773-1.639,1.368-3.079,1.368c-1.801,0-3.385-1.026-3.385-2.935v-0.036
		c0-2.107,1.638-3.115,3.853-3.115c1.152,0,1.891,0.162,2.629,0.396v-0.181c0-1.314-0.828-2.034-2.341-2.034
		c-1.062,0-1.854,0.233-2.719,0.594l-0.594-1.746c1.044-0.469,2.07-0.792,3.619-0.792c2.809,0,4.177,1.476,4.177,4.015v5.636
		H777.161z M777.215,347.894c-0.559-0.216-1.332-0.378-2.179-0.378c-1.368,0-2.179,0.559-2.179,1.477v0.036
		c0,0.9,0.811,1.404,1.837,1.404c1.44,0,2.521-0.811,2.521-1.999V347.894z"/>
	<path fill="#63AF45" d="M782.273,349.244v-5.006h-1.206v-1.872h1.206v-2.61h2.179v2.61h2.557v1.872h-2.557v4.664
		c0,0.846,0.433,1.188,1.171,1.188c0.485,0,0.918-0.108,1.35-0.324v1.782c-0.54,0.307-1.152,0.486-1.962,0.486
		C783.408,352.035,782.273,351.333,782.273,349.244z"/>
	<path fill="#63AF45" d="M789.238,338.837h2.341v2.071h-2.341V338.837z M789.328,342.366h2.179v9.507h-2.179V342.366z"/>
	<path fill="#63AF45" d="M793.45,342.366h2.341l2.557,6.986l2.575-6.986h2.286l-3.889,9.579h-1.963L793.45,342.366z"/>
	<path fill="#63AF45" d="M803.998,347.155v-0.036c0-2.719,1.926-4.951,4.645-4.951c3.025,0,4.556,2.377,4.556,5.113
		c0,0.198-0.018,0.396-0.036,0.612h-6.986c0.234,1.549,1.333,2.413,2.737,2.413c1.062,0,1.818-0.396,2.575-1.135l1.278,1.135
		c-0.9,1.08-2.143,1.782-3.89,1.782C806.122,352.089,803.998,350.091,803.998,347.155z M811.038,346.453
		c-0.145-1.404-0.973-2.502-2.413-2.502c-1.332,0-2.269,1.025-2.467,2.502H811.038z"/>
	<path fill="#63AF45" d="M820.305,347.138v-0.036c0-3.15,2.143-4.934,4.412-4.934c1.566,0,2.557,0.792,3.24,1.675v-5.113h2.179
		v13.144h-2.179v-1.584c-0.702,0.99-1.692,1.782-3.24,1.782C822.483,352.071,820.305,350.289,820.305,347.138z M827.993,347.138
		v-0.036c0-1.837-1.296-3.043-2.755-3.043c-1.494,0-2.736,1.152-2.736,3.043v0.036c0,1.837,1.26,3.043,2.736,3.043
		C826.697,350.181,827.993,348.956,827.993,347.138z"/>
	<path fill="#63AF45" d="M838.667,351.873v-1.17c-0.648,0.773-1.639,1.368-3.079,1.368c-1.801,0-3.385-1.026-3.385-2.935v-0.036
		c0-2.107,1.638-3.115,3.853-3.115c1.152,0,1.891,0.162,2.629,0.396v-0.181c0-1.314-0.828-2.034-2.341-2.034
		c-1.062,0-1.854,0.233-2.719,0.594l-0.594-1.746c1.044-0.469,2.07-0.792,3.619-0.792c2.809,0,4.177,1.476,4.177,4.015v5.636
		H838.667z M838.721,347.894c-0.559-0.216-1.332-0.378-2.179-0.378c-1.368,0-2.179,0.559-2.179,1.477v0.036
		c0,0.9,0.811,1.404,1.837,1.404c1.44,0,2.521-0.811,2.521-1.999V347.894z"/>
	<path fill="#63AF45" d="M843.778,349.244v-5.006h-1.206v-1.872h1.206v-2.61h2.179v2.61h2.557v1.872h-2.557v4.664
		c0,0.846,0.433,1.188,1.171,1.188c0.485,0,0.918-0.108,1.35-0.324v1.782c-0.54,0.307-1.152,0.486-1.962,0.486
		C844.913,352.035,843.778,351.333,843.778,349.244z"/>
	<path fill="#63AF45" d="M856.524,351.873v-1.17c-0.648,0.773-1.639,1.368-3.079,1.368c-1.801,0-3.385-1.026-3.385-2.935v-0.036
		c0-2.107,1.638-3.115,3.853-3.115c1.152,0,1.891,0.162,2.629,0.396v-0.181c0-1.314-0.828-2.034-2.341-2.034
		c-1.062,0-1.854,0.233-2.719,0.594l-0.594-1.746c1.044-0.469,2.07-0.792,3.619-0.792c2.809,0,4.177,1.476,4.177,4.015v5.636
		H856.524z M856.578,347.894c-0.559-0.216-1.332-0.378-2.179-0.378c-1.368,0-2.179,0.559-2.179,1.477v0.036
		c0,0.9,0.811,1.404,1.837,1.404c1.44,0,2.521-0.811,2.521-1.999V347.894z"/>
	<path fill="#63AF45" d="M865.898,350.631l0.973-1.477c1.026,0.774,2.143,1.17,3.115,1.17c0.936,0,1.477-0.396,1.477-1.026v-0.035
		c0-0.738-1.009-0.991-2.125-1.333c-1.404-0.396-2.971-0.972-2.971-2.791v-0.035c0-1.801,1.494-2.899,3.385-2.899
		c1.188,0,2.484,0.414,3.493,1.08l-0.864,1.549c-0.918-0.559-1.891-0.9-2.683-0.9c-0.847,0-1.333,0.396-1.333,0.954v0.036
		c0,0.685,1.026,0.973,2.143,1.333c1.387,0.432,2.953,1.062,2.953,2.772v0.036c0,1.998-1.548,2.988-3.529,2.988
		C868.582,352.053,867.087,351.567,865.898,350.631z"/>
	<path fill="#63AF45" d="M875.151,347.174v-0.036c0-2.719,2.16-4.97,5.077-4.97s5.06,2.215,5.06,4.934v0.036
		c0,2.701-2.161,4.951-5.096,4.951C877.294,352.089,875.151,349.874,875.151,347.174z M883.109,347.174v-0.036
		c0-1.675-1.206-3.061-2.917-3.061c-1.746,0-2.862,1.368-2.862,3.024v0.036c0,1.656,1.206,3.061,2.898,3.061
		C881.993,350.198,883.109,348.812,883.109,347.174z"/>
	<path fill="#63AF45" d="M887.392,348.416v-6.05h2.179v5.401c0,1.477,0.738,2.323,2.034,2.323c1.261,0,2.143-0.883,2.143-2.359
		v-5.365h2.179v9.507h-2.179v-1.477c-0.612,0.9-1.494,1.675-2.971,1.675C888.634,352.071,887.392,350.631,887.392,348.416z"/>
	<path fill="#63AF45" d="M898.659,342.366h2.179v2.143c0.595-1.423,1.692-2.395,3.367-2.322v2.305h-0.126
		c-1.908,0-3.241,1.242-3.241,3.763v3.619h-2.179V342.366z"/>
	<path fill="#63AF45" d="M905.246,347.174v-0.036c0-2.701,2.088-4.97,4.933-4.97c1.8,0,2.917,0.666,3.8,1.639l-1.351,1.458
		c-0.667-0.702-1.368-1.188-2.468-1.188c-1.584,0-2.736,1.368-2.736,3.024v0.036c0,1.692,1.171,3.061,2.846,3.061
		c1.026,0,1.782-0.485,2.467-1.188l1.314,1.297c-0.937,1.044-2.035,1.782-3.891,1.782
		C907.334,352.089,905.246,349.874,905.246,347.174z"/>
	<path fill="#63AF45" d="M915.257,347.155v-0.036c0-2.719,1.926-4.951,4.645-4.951c3.025,0,4.556,2.377,4.556,5.113
		c0,0.198-0.018,0.396-0.036,0.612h-6.985c0.233,1.549,1.332,2.413,2.736,2.413c1.062,0,1.818-0.396,2.575-1.135l1.278,1.135
		c-0.9,1.08-2.143,1.782-3.89,1.782C917.381,352.089,915.257,350.091,915.257,347.155z M922.297,346.453
		c-0.145-1.404-0.973-2.502-2.413-2.502c-1.332,0-2.269,1.025-2.467,2.502H922.297z"/>
	<path fill="#63AF45" d="M925.875,350.631l0.973-1.477c1.026,0.774,2.143,1.17,3.115,1.17c0.936,0,1.477-0.396,1.477-1.026v-0.035
		c0-0.738-1.009-0.991-2.125-1.333c-1.404-0.396-2.971-0.972-2.971-2.791v-0.035c0-1.801,1.494-2.899,3.385-2.899
		c1.188,0,2.484,0.414,3.493,1.08l-0.864,1.549c-0.918-0.559-1.891-0.9-2.683-0.9c-0.847,0-1.333,0.396-1.333,0.954v0.036
		c0,0.685,1.026,0.973,2.143,1.333c1.387,0.432,2.953,1.062,2.953,2.772v0.036c0,1.998-1.548,2.988-3.529,2.988
		C928.559,352.053,927.062,351.567,925.875,350.631z"/>
</g>
<g>
	<g>
		<line fill="none" stroke="#63AF45" stroke-width="3" stroke-miterlimit="10" x1="50.98" y1="368.982" x2="949.014" y2="368.982"/>
		<g>
			<rect x="49.48" y="359.232" fill="#63AF45" width="3" height="19.5"/>
		</g>
		<g>
			<rect x="947.514" y="359.232" fill="#63AF45" width="3" height="19.5"/>
		</g>
	</g>
</g>
</svg>
