<?xml version="1.0" encoding="utf-8"?>
<!-- Generator: Adobe Illustrator 16.0.4, SVG Export Plug-In . SVG Version: 6.00 Build 0)  -->
<!DOCTYPE svg PUBLIC "-//W3C//DTD SVG 1.1//EN" "http://www.w3.org/Graphics/SVG/1.1/DTD/svg11.dtd">
<svg version="1.1" id="Layer_1" xmlns="http://www.w3.org/2000/svg" xmlns:xlink="http://www.w3.org/1999/xlink" x="0px" y="0px"
	 width="999.994px" height="500px" viewBox="0 0 999.994 500" enable-background="new 0 0 999.994 500" xml:space="preserve">
<g opacity="0.3">
	
		<rect x="49.481" y="81.935" fill="#FFFFFF" stroke="#7F7F7F" stroke-width="2" stroke-miterlimit="10" width="236.447" height="106.103"/>
	<g>
		<path fill="#161616" d="M85.854,139.511h12.506v2.688h-9.553v4.584h8.473v2.688h-8.473v6.841h-2.953V139.511z"/>
		<path fill="#161616" d="M100.209,150.024v-0.049c0-3.624,2.568-6.601,6.191-6.601c4.033,0,6.074,3.169,6.074,6.817
			c0,0.264-0.025,0.527-0.049,0.815h-9.312c0.312,2.064,1.775,3.217,3.648,3.217c1.416,0,2.424-0.528,3.432-1.513l1.705,1.513
			c-1.201,1.439-2.857,2.376-5.186,2.376C103.041,156.601,100.209,153.937,100.209,150.024z M109.594,149.088
			c-0.191-1.872-1.297-3.336-3.217-3.336c-1.775,0-3.023,1.368-3.287,3.336H109.594z"/>
		<path fill="#161616" d="M114.705,150.024v-0.049c0-3.624,2.568-6.601,6.191-6.601c4.033,0,6.074,3.169,6.074,6.817
			c0,0.264-0.025,0.527-0.049,0.815h-9.312c0.312,2.064,1.775,3.217,3.648,3.217c1.416,0,2.424-0.528,3.432-1.513l1.705,1.513
			c-1.201,1.439-2.857,2.376-5.186,2.376C117.537,156.601,114.705,153.937,114.705,150.024z M124.09,149.088
			c-0.191-1.872-1.297-3.336-3.217-3.336c-1.775,0-3.023,1.368-3.287,3.336H124.09z"/>
		<path fill="#161616" d="M129.248,150v-0.048c0-4.2,2.857-6.577,5.881-6.577c2.088,0,3.408,1.057,4.32,2.232v-6.816h2.904v17.521
			h-2.904V154.2c-0.936,1.32-2.256,2.376-4.32,2.376C132.152,156.576,129.248,154.2,129.248,150z M139.498,150v-0.048
			c0-2.448-1.729-4.057-3.672-4.057c-1.992,0-3.648,1.536-3.648,4.057V150c0,2.448,1.68,4.057,3.648,4.057
			C137.77,154.057,139.498,152.424,139.498,150z"/>
		<path fill="#161616" d="M153.514,139.511h7.488c2.111,0,3.768,0.624,4.848,1.681c0.889,0.912,1.393,2.16,1.393,3.624v0.048
			c0,2.761-1.656,4.417-4.008,5.089l4.535,6.36h-3.479l-4.129-5.856h-0.049h-3.648v5.856h-2.951V139.511z M160.785,147.84
			c2.113,0,3.457-1.104,3.457-2.809v-0.048c0-1.8-1.297-2.784-3.48-2.784h-4.297v5.641H160.785z"/>
		<path fill="#161616" d="M169.592,150.024v-0.049c0-3.624,2.568-6.601,6.193-6.601c4.031,0,6.072,3.169,6.072,6.817
			c0,0.264-0.023,0.527-0.049,0.815h-9.312c0.312,2.064,1.777,3.217,3.648,3.217c1.416,0,2.424-0.528,3.434-1.513l1.703,1.513
			c-1.199,1.439-2.855,2.376-5.184,2.376C172.424,156.601,169.592,153.937,169.592,150.024z M178.977,149.088
			c-0.191-1.872-1.295-3.336-3.215-3.336c-1.777,0-3.025,1.368-3.289,3.336H178.977z"/>
		<path fill="#161616" d="M184.76,158.688l1.08-2.184c1.346,0.84,2.785,1.344,4.514,1.344c2.592,0,4.008-1.344,4.008-3.889v-0.983
			c-1.057,1.368-2.377,2.328-4.465,2.328c-2.977,0-5.76-2.208-5.76-5.929v-0.048c0-3.744,2.809-5.953,5.76-5.953
			c2.137,0,3.457,0.984,4.441,2.16v-1.896h2.904v10.081c0,2.136-0.553,3.72-1.609,4.776c-1.15,1.151-2.928,1.704-5.207,1.704
			C188.338,160.201,186.393,159.673,184.76,158.688z M194.385,149.376v-0.048c0-2.089-1.703-3.505-3.719-3.505
			c-2.018,0-3.602,1.393-3.602,3.48v0.048c0,2.089,1.609,3.505,3.602,3.505C192.682,152.856,194.385,151.416,194.385,149.376z"/>
		<path fill="#161616" d="M200.912,138.935h3.121v2.761h-3.121V138.935z M201.033,143.64h2.904v12.673h-2.904V143.64z"/>
		<path fill="#161616" d="M206.697,154.656l1.295-1.968c1.369,1.032,2.857,1.56,4.152,1.56c1.248,0,1.969-0.527,1.969-1.368v-0.048
			c0-0.984-1.344-1.32-2.832-1.776c-1.873-0.527-3.961-1.296-3.961-3.72v-0.048c0-2.4,1.992-3.864,4.514-3.864
			c1.584,0,3.312,0.552,4.656,1.439l-1.152,2.064c-1.225-0.744-2.52-1.2-3.576-1.2c-1.129,0-1.777,0.528-1.777,1.272v0.048
			c0,0.912,1.369,1.296,2.857,1.776c1.848,0.575,3.936,1.416,3.936,3.696v0.048c0,2.664-2.064,3.984-4.703,3.984
			C210.273,156.553,208.281,155.904,206.697,154.656z"/>
		<path fill="#161616" d="M220.088,152.809v-6.673h-1.607v-2.496h1.607v-3.48h2.904v3.48h3.408v2.496h-3.408v6.217
			c0,1.128,0.576,1.584,1.561,1.584c0.648,0,1.225-0.145,1.801-0.433v2.377c-0.721,0.407-1.537,0.647-2.617,0.647
			C221.602,156.528,220.088,155.593,220.088,152.809z"/>
		<path fill="#161616" d="M229.328,143.64h2.904v2.856c0.793-1.896,2.256-3.192,4.488-3.097v3.072h-0.168
			c-2.543,0-4.32,1.656-4.32,5.017v4.824h-2.904V143.64z"/>
		<path fill="#161616" d="M238.832,159.457l0.984-2.16c0.529,0.288,1.104,0.479,1.705,0.479c0.816,0,1.32-0.359,1.799-1.464
			l-5.279-12.673h3.096l3.6,9.408l3.289-9.408h3.023l-5.039,13.033c-1.008,2.592-2.137,3.552-4.178,3.552
			C240.609,160.225,239.721,159.937,238.832,159.457z"/>
	</g>
	
		<rect x="714.066" y="81.935" fill="#FFFFFF" stroke="#7F7F7F" stroke-width="2" stroke-miterlimit="10" width="236.447" height="106.103"/>
	<g>
		<path fill="#161616" d="M765.764,139.511h6.625c3.912,0,6.385,2.232,6.385,5.617v0.048c0,3.769-3.023,5.736-6.721,5.736h-3.336
			v5.4h-2.953V139.511z M772.148,148.248c2.232,0,3.625-1.248,3.625-3.001v-0.048c0-1.968-1.416-3-3.625-3h-3.432v6.049H772.148z"/>
		<path fill="#161616" d="M781.629,138.791h2.904v17.521h-2.904V138.791z"/>
		<path fill="#161616" d="M796.078,156.312v-1.561c-0.865,1.032-2.186,1.824-4.105,1.824c-2.4,0-4.512-1.368-4.512-3.912v-0.048
			c0-2.809,2.184-4.152,5.137-4.152c1.535,0,2.52,0.216,3.504,0.528v-0.24c0-1.752-1.104-2.712-3.121-2.712
			c-1.416,0-2.471,0.312-3.623,0.792l-0.793-2.328c1.393-0.624,2.76-1.057,4.824-1.057c3.744,0,5.568,1.969,5.568,5.353v7.513
			H796.078z M796.148,151.008c-0.744-0.288-1.775-0.504-2.904-0.504c-1.822,0-2.902,0.744-2.902,1.968v0.049
			c0,1.2,1.08,1.872,2.447,1.872c1.92,0,3.359-1.08,3.359-2.664V151.008z"/>
		<path fill="#161616" d="M801.523,159.457l0.984-2.16c0.529,0.288,1.104,0.479,1.705,0.479c0.816,0,1.32-0.359,1.799-1.464
			l-5.279-12.673h3.096l3.6,9.408l3.289-9.408h3.023l-5.039,13.033c-1.008,2.592-2.137,3.552-4.178,3.552
			C803.301,160.225,802.412,159.937,801.523,159.457z"/>
		<path fill="#161616" d="M815.613,158.688l1.08-2.184c1.346,0.84,2.785,1.344,4.514,1.344c2.592,0,4.008-1.344,4.008-3.889v-0.983
			c-1.057,1.368-2.377,2.328-4.465,2.328c-2.977,0-5.76-2.208-5.76-5.929v-0.048c0-3.744,2.809-5.953,5.76-5.953
			c2.137,0,3.457,0.984,4.441,2.16v-1.896h2.904v10.081c0,2.136-0.553,3.72-1.609,4.776c-1.15,1.151-2.928,1.704-5.207,1.704
			C819.191,160.201,817.246,159.673,815.613,158.688z M825.238,149.376v-0.048c0-2.089-1.703-3.505-3.719-3.505
			c-2.018,0-3.602,1.393-3.602,3.48v0.048c0,2.089,1.609,3.505,3.602,3.505C823.535,152.856,825.238,151.416,825.238,149.376z"/>
		<path fill="#161616" d="M831.719,143.64h2.904v2.856c0.791-1.896,2.256-3.192,4.488-3.097v3.072h-0.168
			c-2.545,0-4.32,1.656-4.32,5.017v4.824h-2.904V143.64z"/>
		<path fill="#161616" d="M840.5,150.048V150c0-3.624,2.881-6.625,6.77-6.625s6.744,2.952,6.744,6.577V150
			c0,3.601-2.881,6.601-6.793,6.601C843.357,156.601,840.5,153.648,840.5,150.048z M851.109,150.048V150
			c0-2.232-1.607-4.08-3.889-4.08c-2.328,0-3.816,1.824-3.816,4.032V150c0,2.208,1.609,4.08,3.865,4.08
			C849.621,154.08,851.109,152.232,851.109,150.048z"/>
		<path fill="#161616" d="M856.82,151.704v-8.064h2.904v7.2c0,1.969,0.984,3.097,2.713,3.097c1.68,0,2.855-1.177,2.855-3.145v-7.152
			h2.904v12.673h-2.904v-1.968c-0.816,1.199-1.992,2.231-3.961,2.231C858.477,156.576,856.82,154.656,856.82,151.704z"/>
		<path fill="#161616" d="M871.844,143.64h2.904v1.968c0.816-1.2,1.992-2.232,3.961-2.232c2.855,0,4.512,1.921,4.512,4.873v8.064
			h-2.904v-7.2c0-1.969-0.984-3.097-2.711-3.097c-1.682,0-2.857,1.176-2.857,3.145v7.152h-2.904V143.64z"/>
		<path fill="#161616" d="M886.076,150v-0.048c0-4.2,2.855-6.577,5.881-6.577c2.088,0,3.408,1.057,4.32,2.232v-6.816h2.904v17.521
			h-2.904V154.2c-0.938,1.32-2.256,2.376-4.32,2.376C888.98,156.576,886.076,154.2,886.076,150z M896.324,150v-0.048
			c0-2.448-1.727-4.057-3.672-4.057c-1.992,0-3.648,1.536-3.648,4.057V150c0,2.448,1.68,4.057,3.648,4.057
			C894.598,154.057,896.324,152.424,896.324,150z"/>
	</g>
	
		<rect x="382.565" y="81.935" fill="#FFFFFF" stroke="#7F7F7F" stroke-width="2" stroke-miterlimit="10" width="236.447" height="106.103"/>
	<g>
		<path fill="#161616" d="M444.123,139.511h6.266c5.279,0,8.928,3.625,8.928,8.354v0.048c0,4.729-3.648,8.4-8.928,8.4h-6.266
			V139.511z M450.389,153.624c3.527,0,5.832-2.376,5.832-5.664v-0.048c0-3.289-2.305-5.713-5.832-5.713h-3.312v11.425H450.389z"/>
		<path fill="#161616" d="M470.309,156.312v-1.561c-0.865,1.032-2.186,1.824-4.105,1.824c-2.4,0-4.512-1.368-4.512-3.912v-0.048
			c0-2.809,2.184-4.152,5.137-4.152c1.535,0,2.52,0.216,3.504,0.528v-0.24c0-1.752-1.104-2.712-3.121-2.712
			c-1.416,0-2.471,0.312-3.623,0.792l-0.793-2.328c1.393-0.624,2.76-1.057,4.824-1.057c3.744,0,5.568,1.969,5.568,5.353v7.513
			H470.309z M470.379,151.008c-0.744-0.288-1.775-0.504-2.904-0.504c-1.822,0-2.904,0.744-2.904,1.968v0.049
			c0,1.2,1.082,1.872,2.449,1.872c1.92,0,3.359-1.08,3.359-2.664V151.008z"/>
		<path fill="#161616" d="M477.125,152.809v-6.673h-1.607v-2.496h1.607v-3.48h2.904v3.48h3.408v2.496h-3.408v6.217
			c0,1.128,0.576,1.584,1.561,1.584c0.648,0,1.225-0.145,1.801-0.433v2.377c-0.721,0.407-1.537,0.647-2.617,0.647
			C478.639,156.528,477.125,155.593,477.125,152.809z"/>
		<path fill="#161616" d="M494.119,156.312v-1.561c-0.865,1.032-2.186,1.824-4.105,1.824c-2.4,0-4.512-1.368-4.512-3.912v-0.048
			c0-2.809,2.184-4.152,5.137-4.152c1.535,0,2.52,0.216,3.504,0.528v-0.24c0-1.752-1.104-2.712-3.121-2.712
			c-1.416,0-2.471,0.312-3.623,0.792l-0.793-2.328c1.393-0.624,2.76-1.057,4.824-1.057c3.744,0,5.568,1.969,5.568,5.353v7.513
			H494.119z M494.189,151.008c-0.744-0.288-1.775-0.504-2.904-0.504c-1.822,0-2.904,0.744-2.904,1.968v0.049
			c0,1.2,1.082,1.872,2.449,1.872c1.92,0,3.359-1.08,3.359-2.664V151.008z"/>
		<path fill="#161616" d="M499.422,154.656l1.295-1.968c1.369,1.032,2.857,1.56,4.152,1.56c1.248,0,1.969-0.527,1.969-1.368v-0.048
			c0-0.984-1.344-1.32-2.832-1.776c-1.873-0.527-3.961-1.296-3.961-3.72v-0.048c0-2.4,1.992-3.864,4.514-3.864
			c1.584,0,3.312,0.552,4.656,1.439l-1.152,2.064c-1.225-0.744-2.521-1.2-3.576-1.2c-1.129,0-1.777,0.528-1.777,1.272v0.048
			c0,0.912,1.369,1.296,2.857,1.776c1.848,0.575,3.936,1.416,3.936,3.696v0.048c0,2.664-2.064,3.984-4.703,3.984
			C502.998,156.553,501.006,155.904,499.422,154.656z"/>
		<path fill="#161616" d="M512.812,152.809v-6.673h-1.607v-2.496h1.607v-3.48h2.904v3.48h3.408v2.496h-3.408v6.217
			c0,1.128,0.576,1.584,1.561,1.584c0.648,0,1.225-0.145,1.801-0.433v2.377c-0.721,0.407-1.537,0.647-2.617,0.647
			C514.326,156.528,512.812,155.593,512.812,152.809z"/>
		<path fill="#161616" d="M521,150.048V150c0-3.624,2.881-6.625,6.768-6.625c3.889,0,6.746,2.952,6.746,6.577V150
			c0,3.601-2.881,6.601-6.793,6.601C523.855,156.601,521,153.648,521,150.048z M531.609,150.048V150c0-2.232-1.609-4.08-3.889-4.08
			c-2.328,0-3.816,1.824-3.816,4.032V150c0,2.208,1.607,4.08,3.863,4.08C530.121,154.08,531.609,152.232,531.609,150.048z"/>
		<path fill="#161616" d="M537.463,143.64h2.904v2.856c0.793-1.896,2.256-3.192,4.488-3.097v3.072h-0.168
			c-2.543,0-4.32,1.656-4.32,5.017v4.824h-2.904V143.64z"/>
		<path fill="#161616" d="M546.246,150.024v-0.049c0-3.624,2.568-6.601,6.191-6.601c4.033,0,6.074,3.169,6.074,6.817
			c0,0.264-0.025,0.527-0.049,0.815h-9.312c0.312,2.064,1.775,3.217,3.648,3.217c1.416,0,2.424-0.528,3.432-1.513l1.705,1.513
			c-1.201,1.439-2.857,2.376-5.186,2.376C549.078,156.601,546.246,153.937,546.246,150.024z M555.631,149.088
			c-0.191-1.872-1.297-3.336-3.217-3.336c-1.775,0-3.023,1.368-3.287,3.336H555.631z"/>
	</g>
	<g>
		<g>
			
				<line fill="none" stroke="#7F7F7F" stroke-width="2" stroke-miterlimit="10" x1="285.929" y1="134.986" x2="379.763" y2="134.986"/>
			<g>
				<path fill="#7F7F7F" d="M366.094,144.586c-0.297-0.465-0.16-1.084,0.307-1.381l12.905-8.219l-12.905-8.219
					c-0.467-0.297-0.604-0.916-0.307-1.381s0.919-0.6,1.381-0.307l14.229,9.062c0.288,0.184,0.463,0.502,0.463,0.844
					s-0.175,0.66-0.463,0.844l-14.229,9.062c-0.166,0.105-0.353,0.156-0.536,0.156C366.608,145.049,366.285,144.885,366.094,144.586
					z"/>
			</g>
		</g>
	</g>
	<g>
		<g>
			
				<line fill="none" stroke="#7F7F7F" stroke-width="2" stroke-miterlimit="10" x1="618.36" y1="134.986" x2="712.194" y2="134.986"/>
			<g>
				<path fill="#7F7F7F" d="M698.525,144.586c-0.297-0.465-0.159-1.084,0.307-1.381l12.905-8.219l-12.905-8.219
					c-0.466-0.297-0.604-0.916-0.307-1.381s0.919-0.6,1.381-0.307l14.229,9.062c0.288,0.184,0.462,0.502,0.462,0.844
					s-0.174,0.66-0.462,0.844l-14.229,9.062c-0.166,0.105-0.353,0.156-0.536,0.156C699.04,145.049,698.717,144.885,698.525,144.586z
					"/>
			</g>
		</g>
	</g>
	<g>
		<path fill="#63AF45" d="M486.35,62.672c1.624,0,2.941-1.316,2.941-2.94s-1.317-2.941-2.941-2.941
			c-1.625,0-2.941,1.317-2.941,2.941S484.725,62.672,486.35,62.672 M486.35,86.205c-1.625,0-2.941,1.317-2.941,2.941
			s1.316,2.94,2.941,2.94c1.624,0,2.941-1.316,2.941-2.94S487.974,86.205,486.35,86.205 M486.35,100.176
			c-1.625,0-2.941,1.317-2.941,2.943c0,1.624,1.316,2.941,2.941,2.941c1.624,0,2.941-1.317,2.941-2.941
			C489.291,101.493,487.974,100.176,486.35,100.176"/>
		<path fill="#F08D21" d="M486.35,71.498c-1.625,0-2.941,1.316-2.941,2.94c0,1.625,1.316,2.941,2.941,2.941
			c1.624,0,2.941-1.316,2.941-2.941C489.291,72.814,487.974,71.498,486.35,71.498"/>
		<path fill="#29C2E4" d="M517.234,61.202c0.814,0,1.472-0.659,1.472-1.471c0-0.812-0.657-1.471-1.472-1.471
			c-0.812,0-1.47,0.658-1.47,1.471C515.765,60.543,516.423,61.202,517.234,61.202 M512.823,58.261c-0.813,0-1.471,0.658-1.471,1.471
			c0,0.812,0.657,1.471,1.471,1.471s1.471-0.659,1.471-1.471C514.294,58.919,513.637,58.261,512.823,58.261 M517.234,72.969
			c-0.812,0-1.47,0.657-1.47,1.47c0,0.813,0.658,1.472,1.47,1.472c0.814,0,1.472-0.658,1.472-1.472
			C518.706,73.626,518.049,72.969,517.234,72.969"/>
		<path fill="#29C2E4" d="M517.234,91.352c0.814,0,1.472-0.658,1.472-1.471c0-0.812-0.657-1.469-1.472-1.469
			c-0.812,0-1.47,0.657-1.47,1.469C515.765,90.693,516.423,91.352,517.234,91.352 M512.823,88.412c-0.813,0-1.471,0.657-1.471,1.469
			c0,0.812,0.657,1.471,1.471,1.471s1.471-0.658,1.471-1.471C514.294,89.069,513.637,88.412,512.823,88.412 M517.234,103.119
			c-0.812,0-1.47,0.658-1.47,1.469c0,0.813,0.658,1.473,1.47,1.473c0.814,0,1.472-0.659,1.472-1.473
			C518.706,103.777,518.049,103.119,517.234,103.119 M512.823,103.119c-0.813,0-1.471,0.658-1.471,1.469
			c0,0.813,0.657,1.473,1.471,1.473s1.471-0.659,1.471-1.473C514.294,103.777,513.637,103.119,512.823,103.119"/>
		<g opacity="0.102">
			<g>
				<defs>
					<rect id="SVGID_37_" x="492.967" y="53.112" width="4.413" height="57.36"/>
				</defs>
				<clipPath id="SVGID_2_">
					<use xlink:href="#SVGID_37_"  overflow="visible"/>
				</clipPath>
				<path clip-path="url(#SVGID_2_)" fill="#161616" d="M492.967,66.349h1.472v-1.47h-1.472V66.349z M494.438,67.82h1.47v-1.472
					h-1.47V67.82z M497.38,67.82h-1.472v1.471h1.472V67.82z M492.967,69.291h1.472V67.82h-1.472V69.291z M494.438,70.761h1.47v-1.47
					h-1.47V70.761z M497.38,70.761h-1.472v1.472h1.472V70.761z M492.967,72.232h1.472v-1.472h-1.472V72.232z M494.438,73.703h1.47
					v-1.471h-1.47V73.703z M497.38,64.879h-1.472v1.47h1.472V64.879z M492.967,75.173h1.472v-1.47h-1.472V75.173z M494.438,76.645
					h1.47v-1.472h-1.47V76.645z M497.38,76.645h-1.472v1.471h1.472V76.645z M492.967,78.115h1.472v-1.471h-1.472V78.115z
					 M494.438,79.586h1.47v-1.471h-1.47V79.586z M497.38,79.586h-1.472v1.471h1.472V79.586z M492.967,81.057h1.472v-1.471h-1.472
					V81.057z M494.438,82.527h1.47v-1.471h-1.47V82.527z M497.38,73.703h-1.472v1.47h1.472V73.703z M492.967,83.997h1.472v-1.47
					h-1.472V83.997z M494.438,85.469h1.47v-1.472h-1.47V85.469z M497.38,85.469h-1.472v1.471h1.472V85.469z M492.967,86.939h1.472
					v-1.471h-1.472V86.939z M494.438,88.412h1.47v-1.473h-1.47V88.412z M497.38,88.412h-1.472v1.469h1.472V88.412z M492.967,89.881
					h1.472v-1.469h-1.472V89.881z M494.438,91.352h1.47v-1.471h-1.47V91.352z M497.38,82.527h-1.472v1.47h1.472V82.527z
					 M492.967,92.824h1.472v-1.473h-1.472V92.824z M494.438,94.295h1.47v-1.471h-1.47V94.295z M497.38,94.295h-1.472v1.469h1.472
					V94.295z M492.967,95.764h1.472v-1.469h-1.472V95.764z M497.38,91.352h-1.472v1.473h1.472V91.352z M492.967,57.524h1.472v-1.471
					h-1.472V57.524z M495.908,57.524h-1.47v1.472h1.47V57.524z M497.38,58.996h-1.472v1.47h1.472V58.996z M492.967,60.466h1.472
					v-1.47h-1.472V60.466z M495.908,60.466h-1.47v1.471h1.47V60.466z M497.38,61.937h-1.472v1.472h1.472V61.937z M492.967,63.408
					h1.472v-1.472h-1.472V63.408z M495.908,63.408h-1.47v1.471h1.47V63.408z M497.38,56.054h-1.472v1.471h1.472V56.054z
					 M497.38,53.112h-1.472v1.471h1.472V53.112z M492.967,54.583h1.472v-1.471h-1.472V54.583z M495.908,54.583h-1.47v1.471h1.47
					V54.583z M494.438,97.236h1.47v-1.473h-1.47V97.236z M497.38,97.236h-1.472v1.469h1.472V97.236z M492.967,98.705h1.472v-1.469
					h-1.472V98.705z M494.438,100.176h1.47v-1.471h-1.47V100.176z M497.38,100.176h-1.472v1.473h1.472V100.176z M492.967,101.648
					h1.472v-1.473h-1.472V101.648z M494.438,103.119h1.47v-1.471h-1.47V103.119z M492.967,104.588h1.472v-1.469h-1.472V104.588z
					 M494.438,106.061h1.47v-1.473h-1.47V106.061z M497.38,103.119h-1.472v1.469h1.472V103.119z M492.967,107.531h1.472v-1.471
					h-1.472V107.531z M494.438,109.002h1.47v-1.471h-1.47V109.002z M497.38,109.002h-1.472v1.471h1.472V109.002z M492.967,110.473
					h1.472v-1.471h-1.472V110.473z M497.38,106.061h-1.472v1.471h1.472V106.061z"/>
			</g>
		</g>
		<rect x="479.731" y="81.057" fill="#161616" width="42.651" height="1.471"/>
		<rect x="479.731" y="66.349" fill="#161616" width="42.651" height="1.472"/>
		<path fill="#161616" d="M479.731,97.236h42.521c0.293-0.5,0.609-0.992,0.957-1.473h-43.478V97.236z"/>
		<path fill="#161616" d="M518.906,113.414c3.248,0,5.883-2.635,5.883-5.883V56.054c0-3.248-2.635-5.882-5.883-5.882h-36.234
			c-3.248,0-5.883,2.634-5.883,5.882v51.478c0,3.248,2.635,5.883,5.883,5.883H518.906z M482.672,110.473
			c-1.624,0-2.94-1.317-2.94-2.941V56.054c0-1.624,1.316-2.941,2.94-2.941h36.234c1.624,0,2.939,1.317,2.939,2.941v51.478
			c0,1.624-1.315,2.941-2.939,2.941H482.672z"/>
	</g>
	<g>
		<path fill="#FFFFFF" d="M855.389,71.909c0-0.16-0.154-0.759-0.188-0.911c-0.123-0.611-0.349-0.694-0.847-1.03
			c-0.374-0.252-0.825-0.399-1.308-0.399h-56.195c-0.486,0-0.938,0.147-1.311,0.399c-0.498,0.336-0.861,0.86-0.984,1.471
			c-0.031,0.152-0.047,0.311-0.047,0.471v35.122h60.879V71.909z M833.627,109.373c-0.424,0.585-1.008,1.171-1.654,1.171h-14.049
			c-0.865,0-1.611-0.473-2.019-1.171h-25.929c0.32,1.399,1.33,3.508,4.52,3.514l0.008-0.002h60.885l0.01,0.002
			c3.189-0.006,4.199-2.114,4.52-3.514H833.627z"/>
		<rect x="836.654" y="96.495" fill="#F08D21" width="9.365" height="4.683"/>
		<rect x="836.654" y="78.934" fill="#29C2E4" width="9.365" height="14.05"/>
		<rect x="803.873" y="78.934" fill="#63AF45" width="29.27" height="22.244"/>
		<g opacity="0.149">
			<g>
				<defs>
					<rect id="SVGID_39_" x="796.85" y="70.154" width="56.195" height="36.877"/>
				</defs>
				<clipPath id="SVGID_4_">
					<use xlink:href="#SVGID_39_"  overflow="visible"/>
				</clipPath>
				<path clip-path="url(#SVGID_4_)" fill="#323F4C" d="M796.85,71.909v35.122h1.17V73.08h53.854v33.951h1.172V71.909H796.85z
					 M824.947,71.324c0.324,0,0.584-0.262,0.584-0.586c0-0.323-0.26-0.584-0.584-0.584c-0.323,0-0.586,0.261-0.586,0.584
					C824.361,71.062,824.624,71.324,824.947,71.324"/>
			</g>
		</g>
		<g opacity="0.102">
			<g>
				<defs>
					<rect id="SVGID_41_" x="803.873" y="78.934" width="8.197" height="22.244"/>
				</defs>
				<clipPath id="SVGID_6_">
					<use xlink:href="#SVGID_41_"  overflow="visible"/>
				</clipPath>
				<path clip-path="url(#SVGID_6_)" fill="#161616" d="M807.387,78.934h-1.172v1.171h1.172V78.934z M803.873,80.104h1.172v-1.171
					h-1.172V80.104z M809.729,78.934h-1.171v1.171h1.171V78.934z M807.387,83.616h1.171v-1.171h-1.171V83.616z M808.558,82.445
					h1.171v-1.17h-1.171V82.445z M803.873,82.445h1.172v-1.17h-1.172V82.445z M806.215,82.445h-1.17v1.171h1.17V82.445z
					 M807.387,81.275h-1.172v1.17h1.172V81.275z M808.558,80.104h-1.171v1.171h1.171V80.104z M806.215,80.104h-1.17v1.171h1.17
					V80.104z M807.387,85.958h-1.172v1.171h1.172V85.958z M807.387,85.958h1.171v-1.171h-1.171V85.958z M808.558,84.787h1.171
					v-1.171h-1.171V84.787z M803.873,87.129h1.172v-1.171h-1.172V87.129z M806.215,84.787h-1.17v1.171h1.17V84.787z M807.387,83.616
					h-1.172v1.171h1.172V83.616z M808.558,87.129h1.171v-1.171h-1.171V87.129z M803.873,84.787h1.172v-1.171h-1.172V84.787z
					 M807.387,90.642h1.171V89.47h-1.171V90.642z M808.558,89.47h1.171v-1.171h-1.171V89.47z M803.873,89.47h1.172v-1.171h-1.172
					V89.47z M806.215,89.47h-1.17v1.172h1.17V89.47z M807.387,88.299h-1.172v1.171h1.172V88.299z M807.387,88.299h1.171v-1.17
					h-1.171V88.299z M806.215,87.129h-1.17v1.17h1.17V87.129z M807.387,92.983h-1.172v1.171h1.172V92.983z M807.387,92.983h1.171
					v-1.172h-1.171V92.983z M808.558,91.812h1.171v-1.17h-1.171V91.812z M803.873,94.154h1.172v-1.171h-1.172V94.154z
					 M806.215,91.812h-1.17v1.172h1.17V91.812z M807.387,90.642h-1.172v1.17h1.172V90.642z M808.558,94.154h1.171v-1.171h-1.171
					V94.154z M803.873,91.812h1.172v-1.17h-1.172V91.812z M807.387,97.666h1.171v-1.171h-1.171V97.666z M808.558,96.495h1.171
					v-1.171h-1.171V96.495z M803.873,96.495h1.172v-1.171h-1.172V96.495z M806.215,96.495h-1.17v1.171h1.17V96.495z M807.387,95.324
					h-1.172v1.171h1.172V95.324z M807.387,95.324h1.171v-1.17h-1.171V95.324z M806.215,94.154h-1.17v1.17h1.17V94.154z
					 M806.215,101.178h1.172v-1.17h-1.172V101.178z M807.387,100.008h1.171v-1.171h-1.171V100.008z M808.558,98.837h1.171v-1.171
					h-1.171V98.837z M803.873,101.178h1.172v-1.17h-1.172V101.178z M805.045,100.008h1.17v-1.171h-1.17V100.008z M806.215,98.837
					h1.172v-1.171h-1.172V98.837z M808.558,101.178h1.171v-1.17h-1.171V101.178z M803.873,98.837h1.172v-1.171h-1.172V98.837z
					 M812.07,78.934h-1.172v1.171h1.172V78.934z M809.729,83.616h1.17v-1.171h-1.17V83.616z M812.07,81.275h-1.172v1.17h1.172
					V81.275z M809.729,81.275h1.17v-1.171h-1.17V81.275z M809.729,85.958h1.17v-1.171h-1.17V85.958z M812.07,83.616h-1.172v1.171
					h1.172V83.616z M812.07,85.958h-1.172v1.171h1.172V85.958z M809.729,90.642h1.17V89.47h-1.17V90.642z M812.07,88.299h-1.172
					v1.171h1.172V88.299z M809.729,88.299h1.17v-1.17h-1.17V88.299z M809.729,92.983h1.17v-1.172h-1.17V92.983z M812.07,90.642
					h-1.172v1.17h1.172V90.642z M812.07,92.983h-1.172v1.171h1.172V92.983z M809.729,97.666h1.17v-1.171h-1.17V97.666z
					 M812.07,95.324h-1.172v1.171h1.172V95.324z M809.729,95.324h1.17v-1.17h-1.17V95.324z M809.729,100.008h1.17v-1.171h-1.17
					V100.008z M812.07,97.666h-1.172v1.171h1.172V97.666z M812.07,100.008h-1.172v1.17h1.172V100.008z"/>
			</g>
		</g>
		<g opacity="0.851">
			<g>
				<defs>
					<rect id="SVGID_43_" x="787.484" y="67.227" width="74.927" height="48"/>
				</defs>
				<clipPath id="SVGID_8_">
					<use xlink:href="#SVGID_43_"  overflow="visible"/>
				</clipPath>
				<path clip-path="url(#SVGID_8_)" fill="#161616" d="M862.411,108.202c0-0.646-0.524-1.171-1.171-1.171h-3.512V71.909
					c0-2.586-2.098-4.683-4.684-4.683H796.85c-2.586,0-4.684,2.097-4.684,4.683v35.122h-3.512c-0.646,0-1.17,0.524-1.17,1.171v0.005
					l0,0c0,2.43,1.468,7.021,7.023,7.021v-0.001h60.879v0.001c5.557,0,7.024-4.591,7.024-7.021h-0.003l0.003-0.002 M794.508,71.909
					c0-1.292,1.051-2.341,2.342-2.341h56.195c1.295,0,2.342,1.049,2.342,2.341v35.122h-60.879V71.909z M855.398,112.887
					l-0.008-0.002h-60.883l-0.012,0.002c-3.191-0.006-4.199-2.114-4.52-3.514h25.93c0.406,0.696,1.152,1.171,2.018,1.171h14.048
					c0.647,0,1.231-0.586,1.655-1.171h26.291C859.598,110.772,858.588,112.881,855.398,112.887"/>
			</g>
		</g>
	</g>
	<g>
		<path fill="#FFFFFF" d="M139.846,111.481c0,0.444,0.137,0.855,0.366,1.198c0.31,0.456,0.788,0.787,1.345,0.9
			c0.141,0.029,0.284,0.045,0.434,0.045h53.57V78.268h-55.715V111.481z M195.195,70.641c-0.309-0.456-0.787-0.787-1.344-0.9
			c-0.141-0.029-0.285-0.045-0.434-0.045H141.99c-0.149,0-0.293,0.016-0.434,0.045c-0.557,0.113-1.035,0.444-1.345,0.9
			c-0.229,0.342-0.366,0.756-0.366,1.198v4.286h55.715v-4.286C195.561,71.396,195.426,70.982,195.195,70.641"/>
		<g opacity="0.149">
			<rect x="143.598" y="78.268" fill="#161616" width="1.07" height="35.357"/>
			<path fill="#161616" d="M143.062,71.839c-0.594,0-1.072,0.48-1.072,1.071c0,0.592,0.479,1.072,1.072,1.072
				c0.59,0,1.07-0.48,1.07-1.072C144.133,72.319,143.652,71.839,143.062,71.839"/>
			<path fill="#161616" d="M146.275,71.839c-0.592,0-1.071,0.48-1.071,1.071c0,0.592,0.479,1.072,1.071,1.072
				s1.072-0.48,1.072-1.072C147.348,72.319,146.867,71.839,146.275,71.839"/>
			<path fill="#161616" d="M149.49,71.839c-0.592,0-1.072,0.48-1.072,1.071c0,0.592,0.48,1.072,1.072,1.072s1.07-0.48,1.07-1.072
				C150.561,72.319,150.082,71.839,149.49,71.839"/>
		</g>
		<g opacity="0.102">
			<g>
				<defs>
					<rect id="SVGID_45_" x="140.383" y="78.268" width="3.213" height="35.357"/>
				</defs>
				<clipPath id="SVGID_10_">
					<use xlink:href="#SVGID_45_"  overflow="visible"/>
				</clipPath>
				<path clip-path="url(#SVGID_10_)" fill="#161616" d="M140.383,108.268h1.071v-1.072h-1.071V108.268z M141.454,105.053h1.072
					v-1.071h-1.072V105.053z M140.383,106.125h1.071v-1.072h-1.071V106.125z M140.383,103.981h1.071v-1.071h-1.071V103.981z
					 M141.454,107.195h1.072v-1.07h-1.072V107.195z M140.383,112.554h1.071v-1.072h-1.071V112.554z M143.596,109.338h-1.069v1.072
					h1.069V109.338z M143.596,105.053h-1.069v1.072h1.069V105.053z M143.596,107.195h-1.069v1.072h1.069V107.195z M143.596,102.91
					h-1.069v1.071h1.069V102.91z M143.596,100.767h-1.069v1.072h1.069V100.767z M140.383,110.41h1.071v-1.072h-1.071V110.41z
					 M141.454,111.481h1.072v-1.071h-1.072V111.481z M141.454,109.338h1.072v-1.07h-1.072V109.338z M141.454,102.91h1.072v-1.071
					h-1.072V102.91z M143.596,111.481h-1.069v1.072h1.069V111.481z M141.454,113.625h1.072v-1.071h-1.072V113.625z M140.383,86.839
					h1.071v-1.072h-1.071V86.839z M143.596,98.625h-1.069v1.07h1.069V98.625z M141.454,90.053h1.072v-1.07h-1.072V90.053z
					 M141.454,87.91h1.072v-1.071h-1.072V87.91z M143.596,94.339h-1.069v1.071h1.069V94.339z M140.383,88.982h1.071V87.91h-1.071
					V88.982z M143.596,96.481h-1.069v1.072h1.069V96.481z M143.596,85.767h-1.069v1.072h1.069V85.767z M143.596,87.91h-1.069v1.072
					h1.069V87.91z M143.596,90.053h-1.069v1.072h1.069V90.053z M143.596,92.195h-1.069v1.072h1.069V92.195z M141.454,94.339h1.072
					v-1.071h-1.072V94.339z M141.454,96.481h1.072V95.41h-1.072V96.481z M140.383,91.125h1.071v-1.072h-1.071V91.125z
					 M140.383,97.554h1.071v-1.072h-1.071V97.554z M141.454,100.767h1.072v-1.071h-1.072V100.767z M140.383,99.695h1.071v-1.07
					h-1.071V99.695z M141.454,98.625h1.072v-1.071h-1.072V98.625z M140.383,95.41h1.071v-1.071h-1.071V95.41z M140.383,93.268h1.071
					v-1.072h-1.071V93.268z M141.454,92.195h1.072v-1.07h-1.072V92.195z M140.383,101.839h1.071v-1.072h-1.071V101.839z
					 M143.596,81.481h-1.069v1.072h1.069V81.481z M143.596,83.625h-1.069v1.07h1.069V83.625z M140.383,80.41h1.071v-1.071h-1.071
					V80.41z M142.526,78.268h-1.072v1.071h1.072V78.268z M143.596,79.339h-1.069v1.071h1.069V79.339z M141.454,81.481h1.072V80.41
					h-1.072V81.481z M141.454,85.767h1.072v-1.071h-1.072V85.767z M140.383,82.554h1.071v-1.072h-1.071V82.554z M140.383,84.695
					h1.071v-1.07h-1.071V84.695z M141.454,83.625h1.072v-1.071h-1.072V83.625z"/>
			</g>
		</g>
		<path fill="#161616" d="M193.418,67.554H141.99c-2.367,0-4.286,1.918-4.286,4.285v39.643c0,2.367,1.919,4.285,4.286,4.285h51.428
			c2.367,0,4.286-1.918,4.286-4.285V71.839C197.704,69.472,195.785,67.554,193.418,67.554 M141.99,113.625
			c-1.184,0-2.145-0.96-2.145-2.144V78.268h55.715v33.214c0,1.184-0.959,2.144-2.143,2.144H141.99z M195.561,76.125h-55.715v-4.286
			c0-1.184,0.961-2.144,2.145-2.144h51.428c1.184,0,2.143,0.96,2.143,2.144V76.125z"/>
		<rect x="137.704" y="67.554" fill="none" width="60" height="48.213"/>
		<rect x="150.561" y="82.779" fill="#63AF45" width="8.486" height="6.412"/>
		<rect x="161.311" y="82.779" fill="#63AF45" width="8.486" height="6.412"/>
		<path fill="#63AF45" d="M179.414,83.91v4.15h-6.223v-4.15H179.414 M180.545,82.779h-8.484v6.412h8.484V82.779L180.545,82.779z"/>
		<path fill="#63AF45" d="M157.916,93.437v4.149h-6.223v-4.149H157.916 M159.047,92.306h-8.486v6.413h8.486V92.306L159.047,92.306z"
			/>
		<path fill="#63AF45" d="M168.666,93.437v4.149h-6.225v-4.149H168.666 M169.797,92.306h-8.486v6.413h8.486V92.306L169.797,92.306z"
			/>
		<path fill="#63AF45" d="M179.414,93.437v4.149h-6.223v-4.149H179.414 M180.545,92.306h-8.484v6.413h8.484V92.306L180.545,92.306z"
			/>
		<path fill="#63AF45" d="M157.916,102.963v4.149h-6.223v-4.149H157.916 M159.047,101.832h-8.486v6.412h8.486V101.832
			L159.047,101.832z"/>
		<path fill="#63AF45" d="M168.666,102.963v4.149h-6.225v-4.149H168.666 M169.797,101.832h-8.486v6.412h8.486V101.832
			L169.797,101.832z"/>
		<path fill="#63AF45" d="M179.414,102.963v4.149h-6.223v-4.149H179.414 M180.545,101.832h-8.484v6.412h8.484V101.832
			L180.545,101.832z"/>
		<path fill="#63AF45" d="M190.726,83.91v4.15h-6.223v-4.15H190.726 M191.856,82.779h-8.485v6.412h8.485V82.779L191.856,82.779z"/>
		<path fill="#63AF45" d="M190.726,93.437v4.149h-6.223v-4.149H190.726 M191.856,92.306h-8.485v6.413h8.485V92.306L191.856,92.306z"
			/>
		<path fill="#63AF45" d="M190.726,102.963v4.149h-6.223v-4.149H190.726 M191.856,101.832h-8.485v6.412h8.485V101.832
			L191.856,101.832z"/>
	</g>
	<g>
		<g>
			<path fill="#63AF45" d="M577.02,344.238h-1.206v-1.818h1.206v-0.684c0-1.062,0.271-1.854,0.774-2.359
				c0.503-0.504,1.206-0.756,2.143-0.756c0.756,0,1.278,0.108,1.765,0.252v1.837c-0.433-0.145-0.811-0.234-1.278-0.234
				c-0.828,0-1.261,0.45-1.261,1.44v0.522h2.52v1.8h-2.483v7.635h-2.179V344.238z"/>
			<path fill="#63AF45" d="M582.6,347.155v-0.036c0-2.719,1.926-4.951,4.645-4.951c3.025,0,4.556,2.377,4.556,5.113
				c0,0.198-0.018,0.396-0.036,0.612h-6.985c0.233,1.549,1.332,2.413,2.735,2.413c1.063,0,1.818-0.396,2.576-1.135l1.277,1.135
				c-0.9,1.08-2.142,1.782-3.889,1.782C584.724,352.089,582.6,350.091,582.6,347.155z M589.64,346.453
				c-0.145-1.404-0.973-2.502-2.413-2.502c-1.332,0-2.269,1.025-2.467,2.502H589.64z"/>
			<path fill="#63AF45" d="M593.506,347.138v-0.036c0-3.15,2.145-4.934,4.412-4.934c1.566,0,2.557,0.792,3.24,1.675v-5.113h2.179
				v13.144h-2.179v-1.584c-0.702,0.99-1.693,1.782-3.24,1.782C595.684,352.071,593.506,350.289,593.506,347.138z M601.194,347.138
				v-0.036c0-1.837-1.296-3.043-2.755-3.043c-1.494,0-2.736,1.152-2.736,3.043v0.036c0,1.837,1.26,3.043,2.736,3.043
				C599.898,350.181,601.194,348.956,601.194,347.138z"/>
			<path fill="#63AF45" d="M605.531,347.155v-0.036c0-2.719,1.926-4.951,4.645-4.951c3.025,0,4.556,2.377,4.556,5.113
				c0,0.198-0.019,0.396-0.036,0.612h-6.985c0.233,1.549,1.332,2.413,2.736,2.413c1.062,0,1.818-0.396,2.575-1.135l1.278,1.135
				c-0.899,1.08-2.143,1.782-3.89,1.782C607.655,352.089,605.531,350.091,605.531,347.155z M612.571,346.453
				c-0.145-1.404-0.974-2.502-2.413-2.502c-1.332,0-2.269,1.025-2.467,2.502H612.571z"/>
			<path fill="#63AF45" d="M616.924,342.366h2.179v2.143c0.595-1.423,1.692-2.395,3.367-2.322v2.305h-0.126
				c-1.908,0-3.241,1.242-3.241,3.763v3.619h-2.179V342.366z"/>
			<path fill="#63AF45" d="M629.727,351.873v-1.17c-0.648,0.773-1.639,1.368-3.079,1.368c-1.802,0-3.385-1.026-3.385-2.935v-0.036
				c0-2.107,1.638-3.115,3.853-3.115c1.152,0,1.891,0.162,2.629,0.396v-0.181c0-1.314-0.828-2.034-2.341-2.034
				c-1.062,0-1.854,0.233-2.72,0.594l-0.593-1.746c1.044-0.469,2.07-0.792,3.619-0.792c2.809,0,4.177,1.476,4.177,4.015v5.636
				H629.727z M629.779,347.894c-0.558-0.216-1.332-0.378-2.178-0.378c-1.367,0-2.179,0.559-2.179,1.477v0.036
				c0,0.9,0.812,1.404,1.837,1.404c1.439,0,2.52-0.811,2.52-1.999V347.894z"/>
			<path fill="#63AF45" d="M634.837,349.244v-5.006h-1.206v-1.872h1.206v-2.61h2.179v2.61h2.557v1.872h-2.557v4.664
				c0,0.846,0.432,1.188,1.171,1.188c0.485,0,0.918-0.108,1.35-0.324v1.782c-0.54,0.307-1.152,0.486-1.962,0.486
				C635.972,352.035,634.837,351.333,634.837,349.244z"/>
			<path fill="#63AF45" d="M641.804,338.837h2.341v2.071h-2.341V338.837z M641.894,342.366h2.179v9.507h-2.179V342.366z"/>
			<path fill="#63AF45" d="M646.393,347.174v-0.036c0-2.719,2.16-4.97,5.077-4.97s5.06,2.215,5.06,4.934v0.036
				c0,2.701-2.162,4.951-5.096,4.951C648.535,352.089,646.393,349.874,646.393,347.174z M654.35,347.174v-0.036
				c0-1.675-1.205-3.061-2.916-3.061c-1.746,0-2.862,1.368-2.862,3.024v0.036c0,1.656,1.206,3.061,2.898,3.061
				C653.234,350.198,654.35,348.812,654.35,347.174z"/>
			<path fill="#63AF45" d="M658.74,342.366h2.179v1.477c0.612-0.9,1.493-1.675,2.971-1.675c2.142,0,3.386,1.44,3.386,3.655v6.05
				h-2.179v-5.401c0-1.477-0.738-2.323-2.035-2.323c-1.261,0-2.143,0.883-2.143,2.359v5.365h-2.179V342.366z"/>
			<path fill="#63AF45" d="M674.779,347.174v-0.036c0-2.719,2.16-4.97,5.077-4.97s5.06,2.215,5.06,4.934v0.036
				c0,2.701-2.161,4.951-5.096,4.951C676.922,352.089,674.779,349.874,674.779,347.174z M682.737,347.174v-0.036
				c0-1.675-1.206-3.061-2.917-3.061c-1.746,0-2.862,1.368-2.862,3.024v0.036c0,1.656,1.206,3.061,2.898,3.061
				C681.621,350.198,682.737,348.812,682.737,347.174z"/>
			<path fill="#63AF45" d="M687.613,344.238h-1.206v-1.818h1.206v-0.684c0-1.062,0.271-1.854,0.774-2.359
				c0.504-0.504,1.206-0.756,2.143-0.756c0.756,0,1.278,0.108,1.765,0.252v1.837c-0.433-0.145-0.811-0.234-1.278-0.234
				c-0.828,0-1.261,0.45-1.261,1.44v0.522h2.521v1.8h-2.484v7.635h-2.179V344.238z"/>
			<path fill="#63AF45" d="M705.109,351.873v-1.17c-0.648,0.773-1.639,1.368-3.079,1.368c-1.801,0-3.385-1.026-3.385-2.935v-0.036
				c0-2.107,1.638-3.115,3.853-3.115c1.152,0,1.891,0.162,2.629,0.396v-0.181c0-1.314-0.828-2.034-2.341-2.034
				c-1.062,0-1.854,0.233-2.72,0.594l-0.593-1.746c1.044-0.469,2.07-0.792,3.619-0.792c2.808,0,4.177,1.476,4.177,4.015v5.636
				H705.109z M705.163,347.894c-0.559-0.216-1.332-0.378-2.179-0.378c-1.369,0-2.179,0.559-2.179,1.477v0.036
				c0,0.9,0.81,1.404,1.837,1.404c1.44,0,2.521-0.811,2.521-1.999V347.894z"/>
			<path fill="#63AF45" d="M709.752,348.416v-6.05h2.178v5.401c0,1.477,0.739,2.323,2.035,2.323c1.261,0,2.143-0.883,2.143-2.359
				v-5.365h2.179v9.507h-2.179v-1.477c-0.612,0.9-1.494,1.675-2.971,1.675C710.994,352.071,709.752,350.631,709.752,348.416z"/>
			<path fill="#63AF45" d="M721.47,349.244v-5.006h-1.206v-1.872h1.206v-2.61h2.179v2.61h2.557v1.872h-2.557v4.664
				c0,0.846,0.432,1.188,1.171,1.188c0.485,0,0.918-0.108,1.35-0.324v1.782c-0.54,0.307-1.152,0.486-1.962,0.486
				C722.604,352.035,721.47,351.333,721.47,349.244z"/>
			<path fill="#63AF45" d="M728.398,338.729h2.179v5.113c0.612-0.9,1.494-1.675,2.971-1.675c2.144,0,3.386,1.44,3.386,3.655v6.05
				h-2.179v-5.401c0-1.477-0.738-2.323-2.035-2.323c-1.26,0-2.143,0.883-2.143,2.359v5.365h-2.179V338.729z"/>
			<path fill="#63AF45" d="M739.037,347.174v-0.036c0-2.719,2.16-4.97,5.077-4.97s5.06,2.215,5.06,4.934v0.036
				c0,2.701-2.161,4.951-5.096,4.951C741.18,352.089,739.037,349.874,739.037,347.174z M746.995,347.174v-0.036
				c0-1.675-1.206-3.061-2.917-3.061c-1.746,0-2.862,1.368-2.862,3.024v0.036c0,1.656,1.206,3.061,2.898,3.061
				C745.879,350.198,746.995,348.812,746.995,347.174z"/>
			<path fill="#63AF45" d="M751.385,342.366h2.179v2.143c0.595-1.423,1.692-2.395,3.366-2.322v2.305h-0.125
				c-1.908,0-3.241,1.242-3.241,3.763v3.619h-2.179V342.366z"/>
			<path fill="#63AF45" d="M758.854,338.837h2.341v2.071h-2.341V338.837z M758.944,342.366h2.179v9.507h-2.179V342.366z"/>
			<path fill="#63AF45" d="M764.416,349.244v-5.006h-1.205v-1.872h1.205v-2.61h2.18v2.61h2.557v1.872h-2.557v4.664
				c0,0.846,0.433,1.188,1.17,1.188c0.486,0,0.918-0.108,1.35-0.324v1.782c-0.539,0.307-1.151,0.486-1.961,0.486
				C765.551,352.035,764.416,351.333,764.416,349.244z"/>
			<path fill="#63AF45" d="M777.162,351.873v-1.17c-0.648,0.773-1.639,1.368-3.079,1.368c-1.801,0-3.385-1.026-3.385-2.935v-0.036
				c0-2.107,1.638-3.115,3.853-3.115c1.152,0,1.891,0.162,2.629,0.396v-0.181c0-1.314-0.828-2.034-2.341-2.034
				c-1.062,0-1.854,0.233-2.719,0.594l-0.594-1.746c1.044-0.469,2.07-0.792,3.619-0.792c2.809,0,4.177,1.476,4.177,4.015v5.636
				H777.162z M777.216,347.894c-0.559-0.216-1.332-0.378-2.179-0.378c-1.368,0-2.179,0.559-2.179,1.477v0.036
				c0,0.9,0.811,1.404,1.837,1.404c1.44,0,2.521-0.811,2.521-1.999V347.894z"/>
			<path fill="#63AF45" d="M782.275,349.244v-5.006h-1.207v-1.872h1.207v-2.61h2.178v2.61h2.557v1.872h-2.557v4.664
				c0,0.846,0.433,1.188,1.171,1.188c0.485,0,0.918-0.108,1.35-0.324v1.782c-0.54,0.307-1.152,0.486-1.962,0.486
				C783.409,352.035,782.275,351.333,782.275,349.244z"/>
			<path fill="#63AF45" d="M789.239,338.837h2.341v2.071h-2.341V338.837z M789.329,342.366h2.179v9.507h-2.179V342.366z"/>
			<path fill="#63AF45" d="M793.451,342.366h2.341l2.557,6.986l2.575-6.986h2.286l-3.889,9.579h-1.963L793.451,342.366z"/>
			<path fill="#63AF45" d="M803.999,347.155v-0.036c0-2.719,1.926-4.951,4.645-4.951c3.025,0,4.556,2.377,4.556,5.113
				c0,0.198-0.018,0.396-0.036,0.612h-6.986c0.234,1.549,1.333,2.413,2.737,2.413c1.062,0,1.818-0.396,2.575-1.135l1.278,1.135
				c-0.9,1.08-2.143,1.782-3.89,1.782C806.123,352.089,803.999,350.091,803.999,347.155z M811.039,346.453
				c-0.145-1.404-0.973-2.502-2.413-2.502c-1.332,0-2.269,1.025-2.467,2.502H811.039z"/>
			<path fill="#63AF45" d="M820.306,347.138v-0.036c0-3.15,2.142-4.934,4.411-4.934c1.566,0,2.559,0.792,3.241,1.675v-5.113h2.179
				v13.144h-2.179v-1.584c-0.702,0.99-1.692,1.782-3.241,1.782C822.484,352.071,820.306,350.289,820.306,347.138z M827.994,347.138
				v-0.036c0-1.837-1.296-3.043-2.755-3.043c-1.494,0-2.736,1.152-2.736,3.043v0.036c0,1.837,1.26,3.043,2.736,3.043
				C826.698,350.181,827.994,348.956,827.994,347.138z"/>
			<path fill="#63AF45" d="M838.668,351.873v-1.17c-0.648,0.773-1.639,1.368-3.079,1.368c-1.801,0-3.385-1.026-3.385-2.935v-0.036
				c0-2.107,1.638-3.115,3.853-3.115c1.152,0,1.891,0.162,2.629,0.396v-0.181c0-1.314-0.828-2.034-2.341-2.034
				c-1.062,0-1.854,0.233-2.719,0.594l-0.595-1.746c1.045-0.469,2.071-0.792,3.619-0.792c2.81,0,4.178,1.476,4.178,4.015v5.636
				H838.668z M838.722,347.894c-0.559-0.216-1.332-0.378-2.179-0.378c-1.368,0-2.18,0.559-2.18,1.477v0.036
				c0,0.9,0.812,1.404,1.838,1.404c1.44,0,2.521-0.811,2.521-1.999V347.894z"/>
			<path fill="#63AF45" d="M843.779,349.244v-5.006h-1.206v-1.872h1.206v-2.61h2.179v2.61h2.556v1.872h-2.556v4.664
				c0,0.846,0.433,1.188,1.171,1.188c0.485,0,0.918-0.108,1.35-0.324v1.782c-0.54,0.307-1.152,0.486-1.962,0.486
				C844.914,352.035,843.779,351.333,843.779,349.244z"/>
			<path fill="#63AF45" d="M856.525,351.873v-1.17c-0.648,0.773-1.639,1.368-3.079,1.368c-1.801,0-3.385-1.026-3.385-2.935v-0.036
				c0-2.107,1.638-3.115,3.853-3.115c1.152,0,1.891,0.162,2.629,0.396v-0.181c0-1.314-0.828-2.034-2.341-2.034
				c-1.062,0-1.854,0.233-2.718,0.594l-0.595-1.746c1.044-0.469,2.07-0.792,3.619-0.792c2.808,0,4.177,1.476,4.177,4.015v5.636
				H856.525z M856.579,347.894c-0.559-0.216-1.332-0.378-2.179-0.378c-1.369,0-2.179,0.559-2.179,1.477v0.036
				c0,0.9,0.81,1.404,1.837,1.404c1.44,0,2.521-0.811,2.521-1.999V347.894z"/>
			<path fill="#63AF45" d="M865.9,350.631l0.972-1.477c1.026,0.774,2.142,1.17,3.115,1.17c0.936,0,1.477-0.396,1.477-1.026v-0.035
				c0-0.738-1.009-0.991-2.125-1.333c-1.405-0.396-2.972-0.972-2.972-2.791v-0.035c0-1.801,1.495-2.899,3.386-2.899
				c1.188,0,2.484,0.414,3.493,1.08l-0.865,1.549c-0.917-0.559-1.89-0.9-2.682-0.9c-0.847,0-1.333,0.396-1.333,0.954v0.036
				c0,0.685,1.026,0.973,2.143,1.333c1.387,0.432,2.953,1.062,2.953,2.772v0.036c0,1.998-1.548,2.988-3.529,2.988
				C868.583,352.053,867.088,351.567,865.9,350.631z"/>
			<path fill="#63AF45" d="M875.152,347.174v-0.036c0-2.719,2.16-4.97,5.077-4.97s5.06,2.215,5.06,4.934v0.036
				c0,2.701-2.161,4.951-5.096,4.951C877.295,352.089,875.152,349.874,875.152,347.174z M883.11,347.174v-0.036
				c0-1.675-1.206-3.061-2.917-3.061c-1.746,0-2.862,1.368-2.862,3.024v0.036c0,1.656,1.206,3.061,2.898,3.061
				C881.994,350.198,883.11,348.812,883.11,347.174z"/>
			<path fill="#63AF45" d="M887.393,348.416v-6.05h2.179v5.401c0,1.477,0.738,2.323,2.034,2.323c1.261,0,2.143-0.883,2.143-2.359
				v-5.365h2.179v9.507h-2.179v-1.477c-0.612,0.9-1.494,1.675-2.971,1.675C888.635,352.071,887.393,350.631,887.393,348.416z"/>
			<path fill="#63AF45" d="M898.66,342.366h2.179v2.143c0.595-1.423,1.692-2.395,3.367-2.322v2.305h-0.126
				c-1.908,0-3.241,1.242-3.241,3.763v3.619h-2.179V342.366z"/>
			<path fill="#63AF45" d="M905.247,347.174v-0.036c0-2.701,2.087-4.97,4.933-4.97c1.801,0,2.917,0.666,3.8,1.639l-1.351,1.458
				c-0.666-0.702-1.368-1.188-2.467-1.188c-1.585,0-2.737,1.368-2.737,3.024v0.036c0,1.692,1.171,3.061,2.846,3.061
				c1.026,0,1.782-0.485,2.467-1.188l1.313,1.297c-0.936,1.044-2.034,1.782-3.889,1.782
				C907.334,352.089,905.247,349.874,905.247,347.174z"/>
			<path fill="#63AF45" d="M915.258,347.155v-0.036c0-2.719,1.926-4.951,4.645-4.951c3.025,0,4.556,2.377,4.556,5.113
				c0,0.198-0.017,0.396-0.036,0.612h-6.985c0.233,1.549,1.331,2.413,2.736,2.413c1.062,0,1.818-0.396,2.575-1.135l1.278,1.135
				c-0.9,1.08-2.143,1.782-3.89,1.782C917.381,352.089,915.258,350.091,915.258,347.155z M922.297,346.453
				c-0.144-1.404-0.972-2.502-2.412-2.502c-1.332,0-2.27,1.025-2.467,2.502H922.297z"/>
			<path fill="#63AF45" d="M925.876,350.631l0.973-1.477c1.026,0.774,2.143,1.17,3.115,1.17c0.937,0,1.478-0.396,1.478-1.026v-0.035
				c0-0.738-1.01-0.991-2.125-1.333c-1.405-0.396-2.972-0.972-2.972-2.791v-0.035c0-1.801,1.494-2.899,3.385-2.899
				c1.188,0,2.483,0.414,3.493,1.08l-0.864,1.549c-0.917-0.559-1.892-0.9-2.683-0.9c-0.847,0-1.333,0.396-1.333,0.954v0.036
				c0,0.685,1.026,0.973,2.142,1.333c1.388,0.432,2.954,1.062,2.954,2.772v0.036c0,1.998-1.548,2.988-3.529,2.988
				C928.56,352.053,927.064,351.567,925.876,350.631z"/>
		</g>
		<g>
			<g>
				
					<line fill="none" stroke="#63AF45" stroke-width="3" stroke-miterlimit="10" x1="50.981" y1="368.982" x2="949.014" y2="368.982"/>
				<g>
					<rect x="49.481" y="359.232" fill="#63AF45" width="3" height="19.5"/>
				</g>
				<g>
					<rect x="947.514" y="359.232" fill="#63AF45" width="3" height="19.5"/>
				</g>
			</g>
		</g>
		<g>
			<path fill="#864D9E" d="M517.926,428.883v-0.036c0-3.15,2.144-4.934,4.412-4.934c1.566,0,2.557,0.792,3.24,1.675v-5.113h2.179
				v13.144h-2.179v-1.584c-0.702,0.99-1.692,1.782-3.24,1.782C520.104,433.816,517.926,432.034,517.926,428.883z M525.614,428.883
				v-0.036c0-1.837-1.296-3.043-2.755-3.043c-1.494,0-2.736,1.152-2.736,3.043v0.036c0,1.837,1.26,3.043,2.736,3.043
				C524.318,431.926,525.614,430.701,525.614,428.883z"/>
			<path fill="#864D9E" d="M536.288,433.618v-1.17c-0.648,0.773-1.638,1.368-3.079,1.368c-1.801,0-3.386-1.026-3.386-2.935v-0.036
				c0-2.107,1.639-3.115,3.854-3.115c1.152,0,1.89,0.162,2.629,0.396v-0.181c0-1.314-0.828-2.034-2.341-2.034
				c-1.062,0-1.854,0.233-2.719,0.594l-0.594-1.746c1.044-0.469,2.07-0.792,3.619-0.792c2.809,0,4.176,1.476,4.176,4.015v5.636
				H536.288z M536.342,429.639c-0.559-0.216-1.333-0.378-2.179-0.378c-1.368,0-2.179,0.559-2.179,1.477v0.036
				c0,0.9,0.811,1.404,1.837,1.404c1.44,0,2.521-0.811,2.521-1.999V429.639z"/>
			<path fill="#864D9E" d="M541.4,430.989v-5.006h-1.207v-1.872h1.207v-2.61h2.178v2.61h2.557v1.872h-2.557v4.664
				c0,0.846,0.433,1.188,1.17,1.188c0.486,0,0.919-0.108,1.35-0.324v1.782c-0.539,0.307-1.151,0.486-1.961,0.486
				C542.533,433.78,541.4,433.078,541.4,430.989z"/>
			<path fill="#864D9E" d="M554.146,433.618v-1.17c-0.649,0.773-1.639,1.368-3.079,1.368c-1.801,0-3.386-1.026-3.386-2.935v-0.036
				c0-2.107,1.639-3.115,3.853-3.115c1.153,0,1.892,0.162,2.63,0.396v-0.181c0-1.314-0.829-2.034-2.341-2.034
				c-1.062,0-1.855,0.233-2.719,0.594l-0.594-1.746c1.044-0.469,2.07-0.792,3.619-0.792c2.809,0,4.177,1.476,4.177,4.015v5.636
				H554.146z M554.199,429.639c-0.559-0.216-1.333-0.378-2.179-0.378c-1.368,0-2.179,0.559-2.179,1.477v0.036
				c0,0.9,0.811,1.404,1.837,1.404c1.44,0,2.521-0.811,2.521-1.999V429.639z"/>
			<path fill="#864D9E" d="M563.772,428.919v-0.036c0-2.701,2.088-4.97,4.933-4.97c1.801,0,2.917,0.666,3.8,1.639l-1.351,1.458
				c-0.666-0.702-1.368-1.188-2.467-1.188c-1.585,0-2.737,1.368-2.737,3.024v0.036c0,1.692,1.171,3.061,2.846,3.061
				c1.026,0,1.782-0.485,2.467-1.188l1.314,1.297c-0.937,1.044-2.035,1.782-3.89,1.782
				C565.86,433.834,563.772,431.619,563.772,428.919z"/>
			<path fill="#864D9E" d="M573.783,428.919v-0.036c0-2.719,2.16-4.97,5.077-4.97s5.06,2.215,5.06,4.934v0.036
				c0,2.701-2.161,4.951-5.096,4.951C575.926,433.834,573.783,431.619,573.783,428.919z M581.741,428.919v-0.036
				c0-1.675-1.206-3.061-2.917-3.061c-1.746,0-2.862,1.368-2.862,3.024v0.036c0,1.656,1.206,3.061,2.898,3.061
				C580.625,431.943,581.741,430.558,581.741,428.919z"/>
			<path fill="#864D9E" d="M586.131,424.111h2.179v1.477c0.612-0.9,1.494-1.675,2.97-1.675c2.144,0,3.387,1.44,3.387,3.655v6.05
				h-2.179v-5.401c0-1.477-0.739-2.323-2.035-2.323c-1.26,0-2.143,0.883-2.143,2.359v5.365h-2.179V424.111z"/>
			<path fill="#864D9E" d="M597.741,430.989v-5.006h-1.206v-1.872h1.206v-2.61h2.179v2.61h2.557v1.872h-2.557v4.664
				c0,0.846,0.433,1.188,1.171,1.188c0.485,0,0.918-0.108,1.35-0.324v1.782c-0.54,0.307-1.152,0.486-1.962,0.486
				C598.876,433.78,597.741,433.078,597.741,430.989z"/>
			<path fill="#864D9E" d="M604.67,424.111h2.179v2.143c0.595-1.423,1.692-2.395,3.367-2.322v2.305h-0.126
				c-1.908,0-3.241,1.242-3.241,3.763v3.619h-2.179V424.111z"/>
			<path fill="#864D9E" d="M612.14,420.582h2.341v2.071h-2.341V420.582z M612.229,424.111h2.179v9.507h-2.179V424.111z"/>
			<path fill="#864D9E" d="M619.43,432.142v1.477h-2.178v-13.144h2.178v5.222c0.703-0.991,1.693-1.783,3.224-1.783
				c2.251,0,4.43,1.783,4.43,4.934v0.036c0,3.151-2.16,4.934-4.43,4.934C621.087,433.816,620.097,433.024,619.43,432.142z
				 M624.867,428.883v-0.036c0-1.837-1.241-3.043-2.717-3.043c-1.478,0-2.773,1.225-2.773,3.043v0.036
				c0,1.837,1.296,3.043,2.773,3.043C623.645,431.926,624.867,430.755,624.867,428.883z"/>
			<path fill="#864D9E" d="M629.203,430.161v-6.05h2.178v5.401c0,1.477,0.739,2.323,2.035,2.323c1.261,0,2.143-0.883,2.143-2.359
				v-5.365h2.179v9.507h-2.179v-1.477c-0.612,0.9-1.494,1.675-2.971,1.675C630.445,433.816,629.203,432.376,629.203,430.161z"/>
			<path fill="#864D9E" d="M640.921,430.989v-5.006h-1.206v-1.872h1.206v-2.61h2.179v2.61h2.557v1.872H643.1v4.664
				c0,0.846,0.432,1.188,1.171,1.188c0.485,0,0.918-0.108,1.35-0.324v1.782c-0.54,0.307-1.153,0.486-1.962,0.486
				C642.056,433.78,640.921,433.078,640.921,430.989z"/>
			<path fill="#864D9E" d="M647.062,428.9v-0.036c0-2.719,1.926-4.951,4.645-4.951c3.025,0,4.556,2.377,4.556,5.113
				c0,0.198-0.018,0.396-0.036,0.612h-6.986c0.234,1.549,1.333,2.413,2.737,2.413c1.062,0,1.818-0.396,2.575-1.135l1.278,1.135
				c-0.9,1.08-2.143,1.782-3.89,1.782C649.186,433.834,647.062,431.836,647.062,428.9z M654.102,428.198
				c-0.145-1.404-0.973-2.502-2.413-2.502c-1.332,0-2.269,1.025-2.467,2.502H654.102z"/>
			<path fill="#864D9E" d="M657.969,428.883v-0.036c0-3.15,2.144-4.934,4.412-4.934c1.566,0,2.557,0.792,3.24,1.675v-5.113h2.179
				v13.144h-2.179v-1.584c-0.702,0.99-1.692,1.782-3.24,1.782C660.147,433.816,657.969,432.034,657.969,428.883z M665.657,428.883
				v-0.036c0-1.837-1.296-3.043-2.755-3.043c-1.494,0-2.736,1.152-2.736,3.043v0.036c0,1.837,1.26,3.043,2.736,3.043
				C664.361,431.926,665.657,430.701,665.657,428.883z"/>
			<path fill="#864D9E" d="M681.73,433.618v-1.17c-0.648,0.773-1.639,1.368-3.08,1.368c-1.801,0-3.385-1.026-3.385-2.935v-0.036
				c0-2.107,1.639-3.115,3.854-3.115c1.152,0,1.891,0.162,2.629,0.396v-0.181c0-1.314-0.828-2.034-2.341-2.034
				c-1.062,0-1.854,0.233-2.719,0.594l-0.594-1.746c1.044-0.469,2.069-0.792,3.618-0.792c2.81,0,4.178,1.476,4.178,4.015v5.636
				H681.73z M681.783,429.639c-0.558-0.216-1.331-0.378-2.178-0.378c-1.368,0-2.179,0.559-2.179,1.477v0.036
				c0,0.9,0.811,1.404,1.837,1.404c1.44,0,2.52-0.811,2.52-1.999V429.639z"/>
			<path fill="#864D9E" d="M686.479,424.111h2.179v1.477c0.612-0.9,1.495-1.675,2.971-1.675c2.143,0,3.385,1.44,3.385,3.655v6.05
				h-2.178v-5.401c0-1.477-0.738-2.323-2.035-2.323c-1.26,0-2.143,0.883-2.143,2.359v5.365h-2.179V424.111z"/>
			<path fill="#864D9E" d="M697.153,428.883v-0.036c0-3.15,2.143-4.934,4.412-4.934c1.566,0,2.557,0.792,3.24,1.675v-5.113h2.179
				v13.144h-2.179v-1.584c-0.702,0.99-1.692,1.782-3.24,1.782C699.332,433.816,697.153,432.034,697.153,428.883z M704.842,428.883
				v-0.036c0-1.837-1.296-3.043-2.755-3.043c-1.494,0-2.737,1.152-2.737,3.043v0.036c0,1.837,1.261,3.043,2.737,3.043
				C703.546,431.926,704.842,430.701,704.842,428.883z"/>
			<path fill="#864D9E" d="M715.135,420.582h2.341v2.071h-2.341V420.582z M715.225,424.111h2.179v9.507h-2.179V424.111z"/>
			<path fill="#864D9E" d="M720.246,424.111h2.179v1.44c0.612-0.847,1.44-1.639,2.899-1.639c1.368,0,2.322,0.666,2.826,1.675
				c0.774-1.009,1.783-1.675,3.224-1.675c2.07,0,3.331,1.314,3.331,3.638v6.067h-2.179v-5.401c0-1.513-0.702-2.323-1.927-2.323
				c-1.188,0-2.035,0.828-2.035,2.359v5.365h-2.179v-5.42c0-1.477-0.72-2.305-1.926-2.305c-1.207,0-2.035,0.9-2.035,2.377v5.348
				h-2.179V424.111z"/>
			<path fill="#864D9E" d="M737.346,424.111h2.18v1.585c0.701-0.991,1.691-1.783,3.222-1.783c2.251,0,4.43,1.783,4.43,4.934v0.036
				c0,3.151-2.16,4.934-4.43,4.934c-1.566,0-2.556-0.792-3.222-1.675v4.357h-2.18V424.111z M744.962,428.883v-0.036
				c0-1.837-1.242-3.043-2.719-3.043c-1.478,0-2.772,1.225-2.772,3.043v0.036c0,1.837,1.295,3.043,2.772,3.043
				C743.738,431.926,744.962,430.755,744.962,428.883z"/>
			<path fill="#864D9E" d="M749.405,424.111h2.179v2.143c0.595-1.423,1.692-2.395,3.367-2.322v2.305h-0.126
				c-1.909,0-3.241,1.242-3.241,3.763v3.619h-2.179V424.111z"/>
			<path fill="#864D9E" d="M755.992,428.919v-0.036c0-2.719,2.16-4.97,5.077-4.97s5.06,2.215,5.06,4.934v0.036
				c0,2.701-2.162,4.951-5.096,4.951C758.135,433.834,755.992,431.619,755.992,428.919z M763.95,428.919v-0.036
				c0-1.675-1.206-3.061-2.917-3.061c-1.746,0-2.862,1.368-2.862,3.024v0.036c0,1.656,1.206,3.061,2.898,3.061
				C762.834,431.943,763.95,430.558,763.95,428.919z"/>
			<path fill="#864D9E" d="M766.898,424.111h2.341l2.557,6.986l2.575-6.986h2.286l-3.889,9.579h-1.963L766.898,424.111z"/>
			<path fill="#864D9E" d="M777.447,428.9v-0.036c0-2.719,1.926-4.951,4.645-4.951c3.025,0,4.556,2.377,4.556,5.113
				c0,0.198-0.019,0.396-0.036,0.612h-6.985c0.233,1.549,1.332,2.413,2.736,2.413c1.062,0,1.818-0.396,2.575-1.135l1.278,1.135
				c-0.899,1.08-2.143,1.782-3.89,1.782C779.571,433.834,777.447,431.836,777.447,428.9z M784.487,428.198
				c-0.145-1.404-0.974-2.502-2.413-2.502c-1.332,0-2.269,1.025-2.467,2.502H784.487z"/>
			<path fill="#864D9E" d="M788.354,428.883v-0.036c0-3.15,2.142-4.934,4.411-4.934c1.566,0,2.558,0.792,3.241,1.675v-5.113h2.179
				v13.144h-2.179v-1.584c-0.702,0.99-1.692,1.782-3.241,1.782C790.533,433.816,788.354,432.034,788.354,428.883z M796.043,428.883
				v-0.036c0-1.837-1.296-3.043-2.755-3.043c-1.494,0-2.737,1.152-2.737,3.043v0.036c0,1.837,1.261,3.043,2.737,3.043
				C794.747,431.926,796.043,430.701,796.043,428.883z"/>
			<path fill="#864D9E" d="M808.479,432.142v1.477H806.3v-13.144h2.179v5.222c0.702-0.991,1.692-1.783,3.224-1.783
				c2.25,0,4.429,1.783,4.429,4.934v0.036c0,3.151-2.16,4.934-4.429,4.934C810.135,433.816,809.145,433.024,808.479,432.142z
				 M813.916,428.883v-0.036c0-1.837-1.242-3.043-2.719-3.043s-2.772,1.225-2.772,3.043v0.036c0,1.837,1.296,3.043,2.772,3.043
				C812.692,431.926,813.916,430.755,813.916,428.883z"/>
			<path fill="#864D9E" d="M817.605,435.977l0.738-1.62c0.396,0.216,0.828,0.36,1.278,0.36c0.612,0,0.99-0.271,1.351-1.099
				l-3.962-9.507h2.323l2.699,7.058l2.467-7.058h2.271l-3.781,9.777c-0.757,1.944-1.603,2.664-3.133,2.664
				C818.938,436.553,818.271,436.337,817.605,435.977z"/>
			<path fill="#864D9E" d="M833.517,428.919v-0.036c0-2.701,2.088-4.97,4.933-4.97c1.801,0,2.917,0.666,3.799,1.639l-1.35,1.458
				c-0.666-0.702-1.368-1.188-2.467-1.188c-1.586,0-2.737,1.368-2.737,3.024v0.036c0,1.692,1.171,3.061,2.846,3.061
				c1.026,0,1.782-0.485,2.467-1.188l1.314,1.297c-0.937,1.044-2.035,1.782-3.89,1.782
				C835.604,433.834,833.517,431.619,833.517,428.919z"/>
			<path fill="#864D9E" d="M843.527,428.919v-0.036c0-2.719,2.16-4.97,5.077-4.97s5.06,2.215,5.06,4.934v0.036
				c0,2.701-2.161,4.951-5.096,4.951C845.67,433.834,843.527,431.619,843.527,428.919z M851.485,428.919v-0.036
				c0-1.675-1.206-3.061-2.917-3.061c-1.746,0-2.862,1.368-2.862,3.024v0.036c0,1.656,1.206,3.061,2.898,3.061
				C850.369,431.943,851.485,430.558,851.485,428.919z"/>
			<path fill="#864D9E" d="M855.875,424.111h2.179v1.44c0.612-0.847,1.44-1.639,2.899-1.639c1.368,0,2.322,0.666,2.826,1.675
				c0.774-1.009,1.783-1.675,3.224-1.675c2.07,0,3.331,1.314,3.331,3.638v6.067h-2.179v-5.401c0-1.513-0.702-2.323-1.927-2.323
				c-1.188,0-2.035,0.828-2.035,2.359v5.365h-2.18v-5.42c0-1.477-0.719-2.305-1.925-2.305c-1.208,0-2.035,0.9-2.035,2.377v5.348
				h-2.179V424.111z"/>
			<path fill="#864D9E" d="M872.975,424.111h2.179v1.44c0.612-0.847,1.44-1.639,2.899-1.639c1.368,0,2.322,0.666,2.826,1.675
				c0.774-1.009,1.783-1.675,3.224-1.675c2.07,0,3.331,1.314,3.331,3.638v6.067h-2.179v-5.401c0-1.513-0.702-2.323-1.927-2.323
				c-1.188,0-2.035,0.828-2.035,2.359v5.365h-2.179v-5.42c0-1.477-0.72-2.305-1.926-2.305c-1.207,0-2.035,0.9-2.035,2.377v5.348
				h-2.179V424.111z"/>
			<path fill="#864D9E" d="M889.967,430.161v-6.05h2.179v5.401c0,1.477,0.738,2.323,2.034,2.323c1.262,0,2.143-0.883,2.143-2.359
				v-5.365h2.178v9.507h-2.178v-1.477c-0.612,0.9-1.494,1.675-2.971,1.675C891.209,433.816,889.967,432.376,889.967,430.161z"/>
			<path fill="#864D9E" d="M901.234,424.111h2.178v1.477c0.613-0.9,1.495-1.675,2.972-1.675c2.143,0,3.386,1.44,3.386,3.655v6.05
				h-2.179v-5.401c0-1.477-0.738-2.323-2.035-2.323c-1.26,0-2.144,0.883-2.144,2.359v5.365h-2.178V424.111z"/>
			<path fill="#864D9E" d="M912.43,420.582h2.342v2.071h-2.342V420.582z M912.521,424.111h2.179v9.507h-2.179V424.111z"/>
			<path fill="#864D9E" d="M917.991,430.989v-5.006h-1.206v-1.872h1.206v-2.61h2.179v2.61h2.557v1.872h-2.557v4.664
				c0,0.846,0.433,1.188,1.171,1.188c0.485,0,0.918-0.108,1.351-0.324v1.782c-0.541,0.307-1.153,0.486-1.963,0.486
				C919.126,433.78,917.991,433.078,917.991,430.989z"/>
			<path fill="#864D9E" d="M924.615,435.977l0.739-1.62c0.396,0.216,0.827,0.36,1.278,0.36c0.612,0,0.99-0.271,1.352-1.099
				l-3.963-9.507h2.323l2.7,7.058l2.467-7.058h2.268L930,433.889c-0.757,1.944-1.603,2.664-3.134,2.664
				C925.947,436.553,925.282,436.337,924.615,435.977z"/>
		</g>
		<g>
			<g>
				
					<line fill="none" stroke="#864D9E" stroke-width="3" stroke-miterlimit="10" x1="384.065" y1="402.106" x2="949.014" y2="402.106"/>
				<g>
					<rect x="382.565" y="392.356" fill="#864D9E" width="3" height="19.5"/>
				</g>
				<g>
					<rect x="947.514" y="392.356" fill="#864D9E" width="3" height="19.5"/>
				</g>
			</g>
		</g>
	</g>
</g>
<g>
	<g>
		
			<line fill="none" stroke="#7F7F7F" stroke-width="2" stroke-miterlimit="10" x1="288.334" y1="134.986" x2="379.762" y2="134.986"/>
		<g>
			<path fill="#7F7F7F" d="M302.002,144.586c0.297-0.465,0.159-1.084-0.307-1.381l-12.905-8.219l12.905-8.219
				c0.466-0.297,0.604-0.916,0.307-1.381s-0.919-0.6-1.381-0.307l-14.229,9.062c-0.288,0.184-0.463,0.502-0.463,0.844
				s0.175,0.66,0.463,0.844l14.229,9.062c0.166,0.105,0.353,0.156,0.536,0.156C301.487,145.049,301.811,144.885,302.002,144.586z"/>
		</g>
		<g>
			<path fill="#7F7F7F" d="M366.094,144.586c-0.297-0.465-0.159-1.084,0.307-1.381l12.905-8.219l-12.905-8.219
				c-0.466-0.297-0.604-0.916-0.307-1.381s0.919-0.6,1.381-0.307l14.229,9.062c0.288,0.184,0.463,0.502,0.463,0.844
				s-0.175,0.66-0.463,0.844l-14.229,9.062c-0.166,0.105-0.353,0.156-0.536,0.156C366.608,145.049,366.285,144.885,366.094,144.586z
				"/>
		</g>
	</g>
</g>
<g>
	<path fill="#63AF45" d="M577.02,344.238h-1.206v-1.818h1.206v-0.684c0-1.062,0.271-1.854,0.774-2.359
		c0.503-0.504,1.206-0.756,2.143-0.756c0.756,0,1.278,0.108,1.765,0.252v1.837c-0.433-0.145-0.811-0.234-1.278-0.234
		c-0.828,0-1.261,0.45-1.261,1.44v0.522h2.52v1.8h-2.483v7.635h-2.179V344.238z"/>
	<path fill="#63AF45" d="M582.6,347.155v-0.036c0-2.719,1.926-4.951,4.645-4.951c3.025,0,4.556,2.377,4.556,5.113
		c0,0.198-0.018,0.396-0.036,0.612h-6.985c0.233,1.549,1.332,2.413,2.735,2.413c1.063,0,1.818-0.396,2.576-1.135l1.277,1.135
		c-0.9,1.08-2.142,1.782-3.889,1.782C584.724,352.089,582.6,350.091,582.6,347.155z M589.64,346.453
		c-0.145-1.404-0.973-2.502-2.413-2.502c-1.332,0-2.269,1.025-2.467,2.502H589.64z"/>
	<path fill="#63AF45" d="M593.506,347.138v-0.036c0-3.15,2.145-4.934,4.412-4.934c1.566,0,2.557,0.792,3.24,1.675v-5.113h2.179
		v13.144h-2.179v-1.584c-0.702,0.99-1.693,1.782-3.24,1.782C595.684,352.071,593.506,350.289,593.506,347.138z M601.194,347.138
		v-0.036c0-1.837-1.296-3.043-2.755-3.043c-1.494,0-2.736,1.152-2.736,3.043v0.036c0,1.837,1.26,3.043,2.736,3.043
		C599.898,350.181,601.194,348.956,601.194,347.138z"/>
	<path fill="#63AF45" d="M605.531,347.155v-0.036c0-2.719,1.926-4.951,4.645-4.951c3.025,0,4.556,2.377,4.556,5.113
		c0,0.198-0.019,0.396-0.036,0.612h-6.985c0.233,1.549,1.332,2.413,2.736,2.413c1.062,0,1.818-0.396,2.575-1.135l1.278,1.135
		c-0.899,1.08-2.143,1.782-3.89,1.782C607.655,352.089,605.531,350.091,605.531,347.155z M612.571,346.453
		c-0.145-1.404-0.974-2.502-2.413-2.502c-1.332,0-2.269,1.025-2.467,2.502H612.571z"/>
	<path fill="#63AF45" d="M616.924,342.366h2.179v2.143c0.595-1.423,1.692-2.395,3.367-2.322v2.305h-0.126
		c-1.908,0-3.241,1.242-3.241,3.763v3.619h-2.179V342.366z"/>
	<path fill="#63AF45" d="M629.727,351.873v-1.17c-0.648,0.773-1.639,1.368-3.079,1.368c-1.802,0-3.385-1.026-3.385-2.935v-0.036
		c0-2.107,1.638-3.115,3.853-3.115c1.152,0,1.891,0.162,2.629,0.396v-0.181c0-1.314-0.828-2.034-2.341-2.034
		c-1.062,0-1.854,0.233-2.72,0.594l-0.593-1.746c1.044-0.469,2.07-0.792,3.619-0.792c2.809,0,4.177,1.476,4.177,4.015v5.636H629.727
		z M629.779,347.894c-0.558-0.216-1.332-0.378-2.178-0.378c-1.367,0-2.179,0.559-2.179,1.477v0.036c0,0.9,0.812,1.404,1.837,1.404
		c1.439,0,2.52-0.811,2.52-1.999V347.894z"/>
	<path fill="#63AF45" d="M634.837,349.244v-5.006h-1.206v-1.872h1.206v-2.61h2.179v2.61h2.557v1.872h-2.557v4.664
		c0,0.846,0.432,1.188,1.171,1.188c0.485,0,0.918-0.108,1.35-0.324v1.782c-0.54,0.307-1.152,0.486-1.962,0.486
		C635.972,352.035,634.837,351.333,634.837,349.244z"/>
	<path fill="#63AF45" d="M641.804,338.837h2.341v2.071h-2.341V338.837z M641.894,342.366h2.179v9.507h-2.179V342.366z"/>
	<path fill="#63AF45" d="M646.393,347.174v-0.036c0-2.719,2.16-4.97,5.077-4.97s5.06,2.215,5.06,4.934v0.036
		c0,2.701-2.162,4.951-5.096,4.951C648.535,352.089,646.393,349.874,646.393,347.174z M654.35,347.174v-0.036
		c0-1.675-1.205-3.061-2.916-3.061c-1.746,0-2.862,1.368-2.862,3.024v0.036c0,1.656,1.206,3.061,2.898,3.061
		C653.234,350.198,654.35,348.812,654.35,347.174z"/>
	<path fill="#63AF45" d="M658.74,342.366h2.179v1.477c0.612-0.9,1.493-1.675,2.971-1.675c2.142,0,3.386,1.44,3.386,3.655v6.05
		h-2.179v-5.401c0-1.477-0.738-2.323-2.035-2.323c-1.261,0-2.143,0.883-2.143,2.359v5.365h-2.179V342.366z"/>
	<path fill="#63AF45" d="M674.779,347.174v-0.036c0-2.719,2.16-4.97,5.077-4.97s5.06,2.215,5.06,4.934v0.036
		c0,2.701-2.161,4.951-5.096,4.951C676.922,352.089,674.779,349.874,674.779,347.174z M682.737,347.174v-0.036
		c0-1.675-1.206-3.061-2.917-3.061c-1.746,0-2.862,1.368-2.862,3.024v0.036c0,1.656,1.206,3.061,2.898,3.061
		C681.621,350.198,682.737,348.812,682.737,347.174z"/>
	<path fill="#63AF45" d="M687.613,344.238h-1.206v-1.818h1.206v-0.684c0-1.062,0.271-1.854,0.774-2.359
		c0.504-0.504,1.206-0.756,2.143-0.756c0.756,0,1.278,0.108,1.765,0.252v1.837c-0.433-0.145-0.811-0.234-1.278-0.234
		c-0.828,0-1.261,0.45-1.261,1.44v0.522h2.521v1.8h-2.484v7.635h-2.179V344.238z"/>
	<path fill="#63AF45" d="M705.109,351.873v-1.17c-0.648,0.773-1.639,1.368-3.079,1.368c-1.801,0-3.385-1.026-3.385-2.935v-0.036
		c0-2.107,1.638-3.115,3.853-3.115c1.152,0,1.891,0.162,2.629,0.396v-0.181c0-1.314-0.828-2.034-2.341-2.034
		c-1.062,0-1.854,0.233-2.72,0.594l-0.593-1.746c1.044-0.469,2.07-0.792,3.619-0.792c2.808,0,4.177,1.476,4.177,4.015v5.636H705.109
		z M705.163,347.894c-0.559-0.216-1.332-0.378-2.179-0.378c-1.369,0-2.179,0.559-2.179,1.477v0.036c0,0.9,0.81,1.404,1.837,1.404
		c1.44,0,2.521-0.811,2.521-1.999V347.894z"/>
	<path fill="#63AF45" d="M709.752,348.416v-6.05h2.178v5.401c0,1.477,0.739,2.323,2.035,2.323c1.261,0,2.143-0.883,2.143-2.359
		v-5.365h2.179v9.507h-2.179v-1.477c-0.612,0.9-1.494,1.675-2.971,1.675C710.994,352.071,709.752,350.631,709.752,348.416z"/>
	<path fill="#63AF45" d="M721.47,349.244v-5.006h-1.206v-1.872h1.206v-2.61h2.179v2.61h2.557v1.872h-2.557v4.664
		c0,0.846,0.432,1.188,1.171,1.188c0.485,0,0.918-0.108,1.35-0.324v1.782c-0.54,0.307-1.152,0.486-1.962,0.486
		C722.604,352.035,721.47,351.333,721.47,349.244z"/>
	<path fill="#63AF45" d="M728.398,338.729h2.179v5.113c0.612-0.9,1.494-1.675,2.971-1.675c2.144,0,3.386,1.44,3.386,3.655v6.05
		h-2.179v-5.401c0-1.477-0.738-2.323-2.035-2.323c-1.26,0-2.143,0.883-2.143,2.359v5.365h-2.179V338.729z"/>
	<path fill="#63AF45" d="M739.037,347.174v-0.036c0-2.719,2.16-4.97,5.077-4.97s5.06,2.215,5.06,4.934v0.036
		c0,2.701-2.161,4.951-5.096,4.951C741.18,352.089,739.037,349.874,739.037,347.174z M746.995,347.174v-0.036
		c0-1.675-1.206-3.061-2.917-3.061c-1.746,0-2.862,1.368-2.862,3.024v0.036c0,1.656,1.206,3.061,2.898,3.061
		C745.879,350.198,746.995,348.812,746.995,347.174z"/>
	<path fill="#63AF45" d="M751.385,342.366h2.179v2.143c0.595-1.423,1.692-2.395,3.366-2.322v2.305h-0.125
		c-1.908,0-3.241,1.242-3.241,3.763v3.619h-2.179V342.366z"/>
	<path fill="#63AF45" d="M758.854,338.837h2.341v2.071h-2.341V338.837z M758.944,342.366h2.179v9.507h-2.179V342.366z"/>
	<path fill="#63AF45" d="M764.416,349.244v-5.006h-1.205v-1.872h1.205v-2.61h2.18v2.61h2.557v1.872h-2.557v4.664
		c0,0.846,0.433,1.188,1.17,1.188c0.486,0,0.918-0.108,1.35-0.324v1.782c-0.539,0.307-1.151,0.486-1.961,0.486
		C765.551,352.035,764.416,351.333,764.416,349.244z"/>
	<path fill="#63AF45" d="M777.162,351.873v-1.17c-0.648,0.773-1.639,1.368-3.079,1.368c-1.801,0-3.385-1.026-3.385-2.935v-0.036
		c0-2.107,1.638-3.115,3.853-3.115c1.152,0,1.891,0.162,2.629,0.396v-0.181c0-1.314-0.828-2.034-2.341-2.034
		c-1.062,0-1.854,0.233-2.719,0.594l-0.594-1.746c1.044-0.469,2.07-0.792,3.619-0.792c2.809,0,4.177,1.476,4.177,4.015v5.636
		H777.162z M777.216,347.894c-0.559-0.216-1.332-0.378-2.179-0.378c-1.368,0-2.179,0.559-2.179,1.477v0.036
		c0,0.9,0.811,1.404,1.837,1.404c1.44,0,2.521-0.811,2.521-1.999V347.894z"/>
	<path fill="#63AF45" d="M782.275,349.244v-5.006h-1.207v-1.872h1.207v-2.61h2.178v2.61h2.557v1.872h-2.557v4.664
		c0,0.846,0.433,1.188,1.171,1.188c0.485,0,0.918-0.108,1.35-0.324v1.782c-0.54,0.307-1.152,0.486-1.962,0.486
		C783.409,352.035,782.275,351.333,782.275,349.244z"/>
	<path fill="#63AF45" d="M789.239,338.837h2.341v2.071h-2.341V338.837z M789.329,342.366h2.179v9.507h-2.179V342.366z"/>
	<path fill="#63AF45" d="M793.451,342.366h2.341l2.557,6.986l2.575-6.986h2.286l-3.889,9.579h-1.963L793.451,342.366z"/>
	<path fill="#63AF45" d="M803.999,347.155v-0.036c0-2.719,1.926-4.951,4.645-4.951c3.025,0,4.556,2.377,4.556,5.113
		c0,0.198-0.018,0.396-0.036,0.612h-6.986c0.234,1.549,1.333,2.413,2.737,2.413c1.062,0,1.818-0.396,2.575-1.135l1.278,1.135
		c-0.9,1.08-2.143,1.782-3.89,1.782C806.123,352.089,803.999,350.091,803.999,347.155z M811.039,346.453
		c-0.145-1.404-0.973-2.502-2.413-2.502c-1.332,0-2.269,1.025-2.467,2.502H811.039z"/>
	<path fill="#63AF45" d="M820.306,347.138v-0.036c0-3.15,2.142-4.934,4.411-4.934c1.566,0,2.559,0.792,3.241,1.675v-5.113h2.179
		v13.144h-2.179v-1.584c-0.702,0.99-1.692,1.782-3.241,1.782C822.484,352.071,820.306,350.289,820.306,347.138z M827.994,347.138
		v-0.036c0-1.837-1.296-3.043-2.755-3.043c-1.494,0-2.736,1.152-2.736,3.043v0.036c0,1.837,1.26,3.043,2.736,3.043
		C826.698,350.181,827.994,348.956,827.994,347.138z"/>
	<path fill="#63AF45" d="M838.668,351.873v-1.17c-0.648,0.773-1.639,1.368-3.079,1.368c-1.801,0-3.385-1.026-3.385-2.935v-0.036
		c0-2.107,1.638-3.115,3.853-3.115c1.152,0,1.891,0.162,2.629,0.396v-0.181c0-1.314-0.828-2.034-2.341-2.034
		c-1.062,0-1.854,0.233-2.719,0.594l-0.595-1.746c1.045-0.469,2.071-0.792,3.619-0.792c2.81,0,4.178,1.476,4.178,4.015v5.636
		H838.668z M838.722,347.894c-0.559-0.216-1.332-0.378-2.179-0.378c-1.368,0-2.18,0.559-2.18,1.477v0.036
		c0,0.9,0.812,1.404,1.838,1.404c1.44,0,2.521-0.811,2.521-1.999V347.894z"/>
	<path fill="#63AF45" d="M843.779,349.244v-5.006h-1.206v-1.872h1.206v-2.61h2.179v2.61h2.556v1.872h-2.556v4.664
		c0,0.846,0.433,1.188,1.171,1.188c0.485,0,0.918-0.108,1.35-0.324v1.782c-0.54,0.307-1.152,0.486-1.962,0.486
		C844.914,352.035,843.779,351.333,843.779,349.244z"/>
	<path fill="#63AF45" d="M856.525,351.873v-1.17c-0.648,0.773-1.639,1.368-3.079,1.368c-1.801,0-3.385-1.026-3.385-2.935v-0.036
		c0-2.107,1.638-3.115,3.853-3.115c1.152,0,1.891,0.162,2.629,0.396v-0.181c0-1.314-0.828-2.034-2.341-2.034
		c-1.062,0-1.854,0.233-2.718,0.594l-0.595-1.746c1.044-0.469,2.07-0.792,3.619-0.792c2.808,0,4.177,1.476,4.177,4.015v5.636
		H856.525z M856.579,347.894c-0.559-0.216-1.332-0.378-2.179-0.378c-1.369,0-2.179,0.559-2.179,1.477v0.036
		c0,0.9,0.81,1.404,1.837,1.404c1.44,0,2.521-0.811,2.521-1.999V347.894z"/>
	<path fill="#63AF45" d="M865.9,350.631l0.972-1.477c1.026,0.774,2.142,1.17,3.115,1.17c0.936,0,1.477-0.396,1.477-1.026v-0.035
		c0-0.738-1.009-0.991-2.125-1.333c-1.405-0.396-2.972-0.972-2.972-2.791v-0.035c0-1.801,1.495-2.899,3.386-2.899
		c1.188,0,2.484,0.414,3.493,1.08l-0.865,1.549c-0.917-0.559-1.89-0.9-2.682-0.9c-0.847,0-1.333,0.396-1.333,0.954v0.036
		c0,0.685,1.026,0.973,2.143,1.333c1.387,0.432,2.953,1.062,2.953,2.772v0.036c0,1.998-1.548,2.988-3.529,2.988
		C868.583,352.053,867.088,351.567,865.9,350.631z"/>
	<path fill="#63AF45" d="M875.152,347.174v-0.036c0-2.719,2.16-4.97,5.077-4.97s5.06,2.215,5.06,4.934v0.036
		c0,2.701-2.161,4.951-5.096,4.951C877.295,352.089,875.152,349.874,875.152,347.174z M883.11,347.174v-0.036
		c0-1.675-1.206-3.061-2.917-3.061c-1.746,0-2.862,1.368-2.862,3.024v0.036c0,1.656,1.206,3.061,2.898,3.061
		C881.994,350.198,883.11,348.812,883.11,347.174z"/>
	<path fill="#63AF45" d="M887.393,348.416v-6.05h2.179v5.401c0,1.477,0.738,2.323,2.034,2.323c1.261,0,2.143-0.883,2.143-2.359
		v-5.365h2.179v9.507h-2.179v-1.477c-0.612,0.9-1.494,1.675-2.971,1.675C888.635,352.071,887.393,350.631,887.393,348.416z"/>
	<path fill="#63AF45" d="M898.66,342.366h2.179v2.143c0.595-1.423,1.692-2.395,3.367-2.322v2.305h-0.126
		c-1.908,0-3.241,1.242-3.241,3.763v3.619h-2.179V342.366z"/>
	<path fill="#63AF45" d="M905.247,347.174v-0.036c0-2.701,2.087-4.97,4.933-4.97c1.801,0,2.917,0.666,3.8,1.639l-1.351,1.458
		c-0.666-0.702-1.368-1.188-2.467-1.188c-1.585,0-2.737,1.368-2.737,3.024v0.036c0,1.692,1.171,3.061,2.846,3.061
		c1.026,0,1.782-0.485,2.467-1.188l1.313,1.297c-0.936,1.044-2.034,1.782-3.889,1.782
		C907.334,352.089,905.247,349.874,905.247,347.174z"/>
	<path fill="#63AF45" d="M915.258,347.155v-0.036c0-2.719,1.926-4.951,4.645-4.951c3.025,0,4.556,2.377,4.556,5.113
		c0,0.198-0.017,0.396-0.036,0.612h-6.985c0.233,1.549,1.331,2.413,2.736,2.413c1.062,0,1.818-0.396,2.575-1.135l1.278,1.135
		c-0.9,1.08-2.143,1.782-3.89,1.782C917.381,352.089,915.258,350.091,915.258,347.155z M922.297,346.453
		c-0.144-1.404-0.972-2.502-2.412-2.502c-1.332,0-2.27,1.025-2.467,2.502H922.297z"/>
	<path fill="#63AF45" d="M925.876,350.631l0.973-1.477c1.026,0.774,2.143,1.17,3.115,1.17c0.937,0,1.478-0.396,1.478-1.026v-0.035
		c0-0.738-1.01-0.991-2.125-1.333c-1.405-0.396-2.972-0.972-2.972-2.791v-0.035c0-1.801,1.494-2.899,3.385-2.899
		c1.188,0,2.483,0.414,3.493,1.08l-0.864,1.549c-0.917-0.559-1.892-0.9-2.683-0.9c-0.847,0-1.333,0.396-1.333,0.954v0.036
		c0,0.685,1.026,0.973,2.142,1.333c1.388,0.432,2.954,1.062,2.954,2.772v0.036c0,1.998-1.548,2.988-3.529,2.988
		C928.56,352.053,927.064,351.567,925.876,350.631z"/>
</g>
<g>
	<g>
		
			<line fill="none" stroke="#63AF45" stroke-width="3" stroke-miterlimit="10" x1="50.981" y1="368.982" x2="949.014" y2="368.982"/>
		<g>
			<rect x="49.481" y="359.232" fill="#63AF45" width="3" height="19.5"/>
		</g>
		<g>
			<rect x="947.514" y="359.232" fill="#63AF45" width="3" height="19.5"/>
		</g>
	</g>
</g>
<rect x="382.565" y="81.935" fill="#FFFFFF" stroke="#7F7F7F" stroke-width="2" stroke-miterlimit="10" width="236.447" height="106.103"/>
<g>
	<path fill="#161616" d="M444.123,139.511h6.266c5.279,0,8.928,3.625,8.928,8.354v0.048c0,4.729-3.648,8.4-8.928,8.4h-6.266V139.511
		z M450.389,153.624c3.527,0,5.832-2.376,5.832-5.664v-0.048c0-3.289-2.305-5.713-5.832-5.713h-3.312v11.425H450.389z"/>
	<path fill="#161616" d="M470.309,156.312v-1.561c-0.865,1.032-2.186,1.824-4.105,1.824c-2.4,0-4.512-1.368-4.512-3.912v-0.048
		c0-2.809,2.184-4.152,5.137-4.152c1.535,0,2.52,0.216,3.504,0.528v-0.24c0-1.752-1.104-2.712-3.121-2.712
		c-1.416,0-2.471,0.312-3.623,0.792l-0.793-2.328c1.393-0.624,2.76-1.057,4.824-1.057c3.744,0,5.568,1.969,5.568,5.353v7.513
		H470.309z M470.379,151.008c-0.744-0.288-1.775-0.504-2.904-0.504c-1.822,0-2.904,0.744-2.904,1.968v0.049
		c0,1.2,1.082,1.872,2.449,1.872c1.92,0,3.359-1.08,3.359-2.664V151.008z"/>
	<path fill="#161616" d="M477.125,152.809v-6.673h-1.607v-2.496h1.607v-3.48h2.904v3.48h3.408v2.496h-3.408v6.217
		c0,1.128,0.576,1.584,1.561,1.584c0.648,0,1.225-0.145,1.801-0.433v2.377c-0.721,0.407-1.537,0.647-2.617,0.647
		C478.639,156.528,477.125,155.593,477.125,152.809z"/>
	<path fill="#161616" d="M494.119,156.312v-1.561c-0.865,1.032-2.186,1.824-4.105,1.824c-2.4,0-4.512-1.368-4.512-3.912v-0.048
		c0-2.809,2.184-4.152,5.137-4.152c1.535,0,2.52,0.216,3.504,0.528v-0.24c0-1.752-1.104-2.712-3.121-2.712
		c-1.416,0-2.471,0.312-3.623,0.792l-0.793-2.328c1.393-0.624,2.76-1.057,4.824-1.057c3.744,0,5.568,1.969,5.568,5.353v7.513
		H494.119z M494.189,151.008c-0.744-0.288-1.775-0.504-2.904-0.504c-1.822,0-2.904,0.744-2.904,1.968v0.049
		c0,1.2,1.082,1.872,2.449,1.872c1.92,0,3.359-1.08,3.359-2.664V151.008z"/>
	<path fill="#161616" d="M499.422,154.656l1.295-1.968c1.369,1.032,2.857,1.56,4.152,1.56c1.248,0,1.969-0.527,1.969-1.368v-0.048
		c0-0.984-1.344-1.32-2.832-1.776c-1.873-0.527-3.961-1.296-3.961-3.72v-0.048c0-2.4,1.992-3.864,4.514-3.864
		c1.584,0,3.312,0.552,4.656,1.439l-1.152,2.064c-1.225-0.744-2.521-1.2-3.576-1.2c-1.129,0-1.777,0.528-1.777,1.272v0.048
		c0,0.912,1.369,1.296,2.857,1.776c1.848,0.575,3.936,1.416,3.936,3.696v0.048c0,2.664-2.064,3.984-4.703,3.984
		C502.998,156.553,501.006,155.904,499.422,154.656z"/>
	<path fill="#161616" d="M512.812,152.809v-6.673h-1.607v-2.496h1.607v-3.48h2.904v3.48h3.408v2.496h-3.408v6.217
		c0,1.128,0.576,1.584,1.561,1.584c0.648,0,1.225-0.145,1.801-0.433v2.377c-0.721,0.407-1.537,0.647-2.617,0.647
		C514.326,156.528,512.812,155.593,512.812,152.809z"/>
	<path fill="#161616" d="M521,150.048V150c0-3.624,2.881-6.625,6.768-6.625c3.889,0,6.746,2.952,6.746,6.577V150
		c0,3.601-2.881,6.601-6.793,6.601C523.855,156.601,521,153.648,521,150.048z M531.609,150.048V150c0-2.232-1.609-4.08-3.889-4.08
		c-2.328,0-3.816,1.824-3.816,4.032V150c0,2.208,1.607,4.08,3.863,4.08C530.121,154.08,531.609,152.232,531.609,150.048z"/>
	<path fill="#161616" d="M537.463,143.64h2.904v2.856c0.793-1.896,2.256-3.192,4.488-3.097v3.072h-0.168
		c-2.543,0-4.32,1.656-4.32,5.017v4.824h-2.904V143.64z"/>
	<path fill="#161616" d="M546.246,150.024v-0.049c0-3.624,2.568-6.601,6.191-6.601c4.033,0,6.074,3.169,6.074,6.817
		c0,0.264-0.025,0.527-0.049,0.815h-9.312c0.312,2.064,1.775,3.217,3.648,3.217c1.416,0,2.424-0.528,3.432-1.513l1.705,1.513
		c-1.201,1.439-2.857,2.376-5.186,2.376C549.078,156.601,546.246,153.937,546.246,150.024z M555.631,149.088
		c-0.191-1.872-1.297-3.336-3.217-3.336c-1.775,0-3.023,1.368-3.287,3.336H555.631z"/>
</g>
<g>
	<g>
		
			<line fill="none" stroke="#7F7F7F" stroke-width="2" stroke-miterlimit="10" x1="618.36" y1="134.986" x2="712.194" y2="134.986"/>
		<g>
			<path fill="#7F7F7F" d="M698.525,144.586c-0.297-0.465-0.159-1.084,0.307-1.381l12.905-8.219l-12.905-8.219
				c-0.466-0.297-0.604-0.916-0.307-1.381s0.919-0.6,1.381-0.307l14.229,9.062c0.288,0.184,0.462,0.502,0.462,0.844
				s-0.174,0.66-0.462,0.844l-14.229,9.062c-0.166,0.105-0.353,0.156-0.536,0.156C699.04,145.049,698.717,144.885,698.525,144.586z"
				/>
		</g>
	</g>
</g>
<g>
	<path fill="#63AF45" d="M486.35,62.672c1.624,0,2.941-1.316,2.941-2.94s-1.317-2.941-2.941-2.941c-1.625,0-2.941,1.317-2.941,2.941
		S484.725,62.672,486.35,62.672 M486.35,86.205c-1.625,0-2.941,1.317-2.941,2.941s1.316,2.94,2.941,2.94
		c1.624,0,2.941-1.316,2.941-2.94S487.974,86.205,486.35,86.205 M486.35,100.176c-1.625,0-2.941,1.317-2.941,2.943
		c0,1.624,1.316,2.941,2.941,2.941c1.624,0,2.941-1.317,2.941-2.941C489.291,101.493,487.974,100.176,486.35,100.176"/>
	<path fill="#F08D21" d="M486.35,71.498c-1.625,0-2.941,1.316-2.941,2.94c0,1.625,1.316,2.941,2.941,2.941
		c1.624,0,2.941-1.316,2.941-2.941C489.291,72.814,487.974,71.498,486.35,71.498"/>
	<path fill="#29C2E4" d="M517.234,61.202c0.814,0,1.472-0.659,1.472-1.471c0-0.812-0.657-1.471-1.472-1.471
		c-0.812,0-1.47,0.658-1.47,1.471C515.765,60.543,516.423,61.202,517.234,61.202 M512.823,58.261c-0.813,0-1.471,0.658-1.471,1.471
		c0,0.812,0.657,1.471,1.471,1.471s1.471-0.659,1.471-1.471C514.294,58.919,513.637,58.261,512.823,58.261 M517.234,72.969
		c-0.812,0-1.47,0.657-1.47,1.47c0,0.813,0.658,1.472,1.47,1.472c0.814,0,1.472-0.658,1.472-1.472
		C518.706,73.626,518.049,72.969,517.234,72.969"/>
	<path fill="#29C2E4" d="M517.234,91.352c0.814,0,1.472-0.658,1.472-1.471c0-0.812-0.657-1.469-1.472-1.469
		c-0.812,0-1.47,0.657-1.47,1.469C515.765,90.693,516.423,91.352,517.234,91.352 M512.823,88.412c-0.813,0-1.471,0.657-1.471,1.469
		c0,0.812,0.657,1.471,1.471,1.471s1.471-0.658,1.471-1.471C514.294,89.069,513.637,88.412,512.823,88.412 M517.234,103.119
		c-0.812,0-1.47,0.658-1.47,1.469c0,0.813,0.658,1.473,1.47,1.473c0.814,0,1.472-0.659,1.472-1.473
		C518.706,103.777,518.049,103.119,517.234,103.119 M512.823,103.119c-0.813,0-1.471,0.658-1.471,1.469
		c0,0.813,0.657,1.473,1.471,1.473s1.471-0.659,1.471-1.473C514.294,103.777,513.637,103.119,512.823,103.119"/>
	<g opacity="0.102">
		<g>
			<defs>
				<rect id="SVGID_47_" x="492.967" y="53.112" width="4.413" height="57.36"/>
			</defs>
			<clipPath id="SVGID_12_">
				<use xlink:href="#SVGID_47_"  overflow="visible"/>
			</clipPath>
			<path clip-path="url(#SVGID_12_)" fill="#161616" d="M492.967,66.349h1.472v-1.47h-1.472V66.349z M494.438,67.82h1.47v-1.472
				h-1.47V67.82z M497.38,67.82h-1.472v1.471h1.472V67.82z M492.967,69.291h1.472V67.82h-1.472V69.291z M494.438,70.761h1.47v-1.47
				h-1.47V70.761z M497.38,70.761h-1.472v1.472h1.472V70.761z M492.967,72.232h1.472v-1.472h-1.472V72.232z M494.438,73.703h1.47
				v-1.471h-1.47V73.703z M497.38,64.879h-1.472v1.47h1.472V64.879z M492.967,75.173h1.472v-1.47h-1.472V75.173z M494.438,76.645
				h1.47v-1.472h-1.47V76.645z M497.38,76.645h-1.472v1.471h1.472V76.645z M492.967,78.115h1.472v-1.471h-1.472V78.115z
				 M494.438,79.586h1.47v-1.471h-1.47V79.586z M497.38,79.586h-1.472v1.471h1.472V79.586z M492.967,81.057h1.472v-1.471h-1.472
				V81.057z M494.438,82.527h1.47v-1.471h-1.47V82.527z M497.38,73.703h-1.472v1.47h1.472V73.703z M492.967,83.997h1.472v-1.47
				h-1.472V83.997z M494.438,85.469h1.47v-1.472h-1.47V85.469z M497.38,85.469h-1.472v1.471h1.472V85.469z M492.967,86.939h1.472
				v-1.471h-1.472V86.939z M494.438,88.412h1.47v-1.473h-1.47V88.412z M497.38,88.412h-1.472v1.469h1.472V88.412z M492.967,89.881
				h1.472v-1.469h-1.472V89.881z M494.438,91.352h1.47v-1.471h-1.47V91.352z M497.38,82.527h-1.472v1.47h1.472V82.527z
				 M492.967,92.824h1.472v-1.473h-1.472V92.824z M494.438,94.295h1.47v-1.471h-1.47V94.295z M497.38,94.295h-1.472v1.469h1.472
				V94.295z M492.967,95.764h1.472v-1.469h-1.472V95.764z M497.38,91.352h-1.472v1.473h1.472V91.352z M492.967,57.524h1.472v-1.471
				h-1.472V57.524z M495.908,57.524h-1.47v1.472h1.47V57.524z M497.38,58.996h-1.472v1.47h1.472V58.996z M492.967,60.466h1.472
				v-1.47h-1.472V60.466z M495.908,60.466h-1.47v1.471h1.47V60.466z M497.38,61.937h-1.472v1.472h1.472V61.937z M492.967,63.408
				h1.472v-1.472h-1.472V63.408z M495.908,63.408h-1.47v1.471h1.47V63.408z M497.38,56.054h-1.472v1.471h1.472V56.054z
				 M497.38,53.112h-1.472v1.471h1.472V53.112z M492.967,54.583h1.472v-1.471h-1.472V54.583z M495.908,54.583h-1.47v1.471h1.47
				V54.583z M494.438,97.236h1.47v-1.473h-1.47V97.236z M497.38,97.236h-1.472v1.469h1.472V97.236z M492.967,98.705h1.472v-1.469
				h-1.472V98.705z M494.438,100.176h1.47v-1.471h-1.47V100.176z M497.38,100.176h-1.472v1.473h1.472V100.176z M492.967,101.648
				h1.472v-1.473h-1.472V101.648z M494.438,103.119h1.47v-1.471h-1.47V103.119z M492.967,104.588h1.472v-1.469h-1.472V104.588z
				 M494.438,106.061h1.47v-1.473h-1.47V106.061z M497.38,103.119h-1.472v1.469h1.472V103.119z M492.967,107.531h1.472v-1.471
				h-1.472V107.531z M494.438,109.002h1.47v-1.471h-1.47V109.002z M497.38,109.002h-1.472v1.471h1.472V109.002z M492.967,110.473
				h1.472v-1.471h-1.472V110.473z M497.38,106.061h-1.472v1.471h1.472V106.061z"/>
		</g>
	</g>
	<rect x="479.731" y="81.057" fill="#161616" width="42.651" height="1.471"/>
	<rect x="479.731" y="66.349" fill="#161616" width="42.651" height="1.472"/>
	<path fill="#161616" d="M479.731,97.236h42.521c0.293-0.5,0.609-0.992,0.957-1.473h-43.478V97.236z"/>
	<path fill="#161616" d="M518.906,113.414c3.248,0,5.883-2.635,5.883-5.883V56.054c0-3.248-2.635-5.882-5.883-5.882h-36.234
		c-3.248,0-5.883,2.634-5.883,5.882v51.478c0,3.248,2.635,5.883,5.883,5.883H518.906z M482.672,110.473
		c-1.624,0-2.94-1.317-2.94-2.941V56.054c0-1.624,1.316-2.941,2.94-2.941h36.234c1.624,0,2.939,1.317,2.939,2.941v51.478
		c0,1.624-1.315,2.941-2.939,2.941H482.672z"/>
</g>
<g>
	<path fill="#864D9E" d="M517.926,428.883v-0.036c0-3.15,2.144-4.934,4.412-4.934c1.566,0,2.557,0.792,3.24,1.675v-5.113h2.179
		v13.144h-2.179v-1.584c-0.702,0.99-1.692,1.782-3.24,1.782C520.104,433.816,517.926,432.034,517.926,428.883z M525.614,428.883
		v-0.036c0-1.837-1.296-3.043-2.755-3.043c-1.494,0-2.736,1.152-2.736,3.043v0.036c0,1.837,1.26,3.043,2.736,3.043
		C524.318,431.926,525.614,430.701,525.614,428.883z"/>
	<path fill="#864D9E" d="M536.288,433.618v-1.17c-0.648,0.773-1.638,1.368-3.079,1.368c-1.801,0-3.386-1.026-3.386-2.935v-0.036
		c0-2.107,1.639-3.115,3.854-3.115c1.152,0,1.89,0.162,2.629,0.396v-0.181c0-1.314-0.828-2.034-2.341-2.034
		c-1.062,0-1.854,0.233-2.719,0.594l-0.594-1.746c1.044-0.469,2.07-0.792,3.619-0.792c2.809,0,4.176,1.476,4.176,4.015v5.636
		H536.288z M536.342,429.639c-0.559-0.216-1.333-0.378-2.179-0.378c-1.368,0-2.179,0.559-2.179,1.477v0.036
		c0,0.9,0.811,1.404,1.837,1.404c1.44,0,2.521-0.811,2.521-1.999V429.639z"/>
	<path fill="#864D9E" d="M541.4,430.989v-5.006h-1.207v-1.872h1.207v-2.61h2.178v2.61h2.557v1.872h-2.557v4.664
		c0,0.846,0.433,1.188,1.17,1.188c0.486,0,0.919-0.108,1.35-0.324v1.782c-0.539,0.307-1.151,0.486-1.961,0.486
		C542.533,433.78,541.4,433.078,541.4,430.989z"/>
	<path fill="#864D9E" d="M554.146,433.618v-1.17c-0.649,0.773-1.639,1.368-3.079,1.368c-1.801,0-3.386-1.026-3.386-2.935v-0.036
		c0-2.107,1.639-3.115,3.853-3.115c1.153,0,1.892,0.162,2.63,0.396v-0.181c0-1.314-0.829-2.034-2.341-2.034
		c-1.062,0-1.855,0.233-2.719,0.594l-0.594-1.746c1.044-0.469,2.07-0.792,3.619-0.792c2.809,0,4.177,1.476,4.177,4.015v5.636
		H554.146z M554.199,429.639c-0.559-0.216-1.333-0.378-2.179-0.378c-1.368,0-2.179,0.559-2.179,1.477v0.036
		c0,0.9,0.811,1.404,1.837,1.404c1.44,0,2.521-0.811,2.521-1.999V429.639z"/>
	<path fill="#864D9E" d="M563.772,428.919v-0.036c0-2.701,2.088-4.97,4.933-4.97c1.801,0,2.917,0.666,3.8,1.639l-1.351,1.458
		c-0.666-0.702-1.368-1.188-2.467-1.188c-1.585,0-2.737,1.368-2.737,3.024v0.036c0,1.692,1.171,3.061,2.846,3.061
		c1.026,0,1.782-0.485,2.467-1.188l1.314,1.297c-0.937,1.044-2.035,1.782-3.89,1.782
		C565.86,433.834,563.772,431.619,563.772,428.919z"/>
	<path fill="#864D9E" d="M573.783,428.919v-0.036c0-2.719,2.16-4.97,5.077-4.97s5.06,2.215,5.06,4.934v0.036
		c0,2.701-2.161,4.951-5.096,4.951C575.926,433.834,573.783,431.619,573.783,428.919z M581.741,428.919v-0.036
		c0-1.675-1.206-3.061-2.917-3.061c-1.746,0-2.862,1.368-2.862,3.024v0.036c0,1.656,1.206,3.061,2.898,3.061
		C580.625,431.943,581.741,430.558,581.741,428.919z"/>
	<path fill="#864D9E" d="M586.131,424.111h2.179v1.477c0.612-0.9,1.494-1.675,2.97-1.675c2.144,0,3.387,1.44,3.387,3.655v6.05
		h-2.179v-5.401c0-1.477-0.739-2.323-2.035-2.323c-1.26,0-2.143,0.883-2.143,2.359v5.365h-2.179V424.111z"/>
	<path fill="#864D9E" d="M597.741,430.989v-5.006h-1.206v-1.872h1.206v-2.61h2.179v2.61h2.557v1.872h-2.557v4.664
		c0,0.846,0.433,1.188,1.171,1.188c0.485,0,0.918-0.108,1.35-0.324v1.782c-0.54,0.307-1.152,0.486-1.962,0.486
		C598.876,433.78,597.741,433.078,597.741,430.989z"/>
	<path fill="#864D9E" d="M604.67,424.111h2.179v2.143c0.595-1.423,1.692-2.395,3.367-2.322v2.305h-0.126
		c-1.908,0-3.241,1.242-3.241,3.763v3.619h-2.179V424.111z"/>
	<path fill="#864D9E" d="M612.14,420.582h2.341v2.071h-2.341V420.582z M612.229,424.111h2.179v9.507h-2.179V424.111z"/>
	<path fill="#864D9E" d="M619.43,432.142v1.477h-2.178v-13.144h2.178v5.222c0.703-0.991,1.693-1.783,3.224-1.783
		c2.251,0,4.43,1.783,4.43,4.934v0.036c0,3.151-2.16,4.934-4.43,4.934C621.087,433.816,620.097,433.024,619.43,432.142z
		 M624.867,428.883v-0.036c0-1.837-1.241-3.043-2.717-3.043c-1.478,0-2.773,1.225-2.773,3.043v0.036
		c0,1.837,1.296,3.043,2.773,3.043C623.645,431.926,624.867,430.755,624.867,428.883z"/>
	<path fill="#864D9E" d="M629.203,430.161v-6.05h2.178v5.401c0,1.477,0.739,2.323,2.035,2.323c1.261,0,2.143-0.883,2.143-2.359
		v-5.365h2.179v9.507h-2.179v-1.477c-0.612,0.9-1.494,1.675-2.971,1.675C630.445,433.816,629.203,432.376,629.203,430.161z"/>
	<path fill="#864D9E" d="M640.921,430.989v-5.006h-1.206v-1.872h1.206v-2.61h2.179v2.61h2.557v1.872H643.1v4.664
		c0,0.846,0.432,1.188,1.171,1.188c0.485,0,0.918-0.108,1.35-0.324v1.782c-0.54,0.307-1.153,0.486-1.962,0.486
		C642.056,433.78,640.921,433.078,640.921,430.989z"/>
	<path fill="#864D9E" d="M647.062,428.9v-0.036c0-2.719,1.926-4.951,4.645-4.951c3.025,0,4.556,2.377,4.556,5.113
		c0,0.198-0.018,0.396-0.036,0.612h-6.986c0.234,1.549,1.333,2.413,2.737,2.413c1.062,0,1.818-0.396,2.575-1.135l1.278,1.135
		c-0.9,1.08-2.143,1.782-3.89,1.782C649.186,433.834,647.062,431.836,647.062,428.9z M654.102,428.198
		c-0.145-1.404-0.973-2.502-2.413-2.502c-1.332,0-2.269,1.025-2.467,2.502H654.102z"/>
	<path fill="#864D9E" d="M657.969,428.883v-0.036c0-3.15,2.144-4.934,4.412-4.934c1.566,0,2.557,0.792,3.24,1.675v-5.113h2.179
		v13.144h-2.179v-1.584c-0.702,0.99-1.692,1.782-3.24,1.782C660.147,433.816,657.969,432.034,657.969,428.883z M665.657,428.883
		v-0.036c0-1.837-1.296-3.043-2.755-3.043c-1.494,0-2.736,1.152-2.736,3.043v0.036c0,1.837,1.26,3.043,2.736,3.043
		C664.361,431.926,665.657,430.701,665.657,428.883z"/>
	<path fill="#864D9E" d="M681.73,433.618v-1.17c-0.648,0.773-1.639,1.368-3.08,1.368c-1.801,0-3.385-1.026-3.385-2.935v-0.036
		c0-2.107,1.639-3.115,3.854-3.115c1.152,0,1.891,0.162,2.629,0.396v-0.181c0-1.314-0.828-2.034-2.341-2.034
		c-1.062,0-1.854,0.233-2.719,0.594l-0.594-1.746c1.044-0.469,2.069-0.792,3.618-0.792c2.81,0,4.178,1.476,4.178,4.015v5.636H681.73
		z M681.783,429.639c-0.558-0.216-1.331-0.378-2.178-0.378c-1.368,0-2.179,0.559-2.179,1.477v0.036c0,0.9,0.811,1.404,1.837,1.404
		c1.44,0,2.52-0.811,2.52-1.999V429.639z"/>
	<path fill="#864D9E" d="M686.479,424.111h2.179v1.477c0.612-0.9,1.495-1.675,2.971-1.675c2.143,0,3.385,1.44,3.385,3.655v6.05
		h-2.178v-5.401c0-1.477-0.738-2.323-2.035-2.323c-1.26,0-2.143,0.883-2.143,2.359v5.365h-2.179V424.111z"/>
	<path fill="#864D9E" d="M697.153,428.883v-0.036c0-3.15,2.143-4.934,4.412-4.934c1.566,0,2.557,0.792,3.24,1.675v-5.113h2.179
		v13.144h-2.179v-1.584c-0.702,0.99-1.692,1.782-3.24,1.782C699.332,433.816,697.153,432.034,697.153,428.883z M704.842,428.883
		v-0.036c0-1.837-1.296-3.043-2.755-3.043c-1.494,0-2.737,1.152-2.737,3.043v0.036c0,1.837,1.261,3.043,2.737,3.043
		C703.546,431.926,704.842,430.701,704.842,428.883z"/>
	<path fill="#864D9E" d="M715.135,420.582h2.341v2.071h-2.341V420.582z M715.225,424.111h2.179v9.507h-2.179V424.111z"/>
	<path fill="#864D9E" d="M720.246,424.111h2.179v1.44c0.612-0.847,1.44-1.639,2.899-1.639c1.368,0,2.322,0.666,2.826,1.675
		c0.774-1.009,1.783-1.675,3.224-1.675c2.07,0,3.331,1.314,3.331,3.638v6.067h-2.179v-5.401c0-1.513-0.702-2.323-1.927-2.323
		c-1.188,0-2.035,0.828-2.035,2.359v5.365h-2.179v-5.42c0-1.477-0.72-2.305-1.926-2.305c-1.207,0-2.035,0.9-2.035,2.377v5.348
		h-2.179V424.111z"/>
	<path fill="#864D9E" d="M737.346,424.111h2.18v1.585c0.701-0.991,1.691-1.783,3.222-1.783c2.251,0,4.43,1.783,4.43,4.934v0.036
		c0,3.151-2.16,4.934-4.43,4.934c-1.566,0-2.556-0.792-3.222-1.675v4.357h-2.18V424.111z M744.962,428.883v-0.036
		c0-1.837-1.242-3.043-2.719-3.043c-1.478,0-2.772,1.225-2.772,3.043v0.036c0,1.837,1.295,3.043,2.772,3.043
		C743.738,431.926,744.962,430.755,744.962,428.883z"/>
	<path fill="#864D9E" d="M749.405,424.111h2.179v2.143c0.595-1.423,1.692-2.395,3.367-2.322v2.305h-0.126
		c-1.909,0-3.241,1.242-3.241,3.763v3.619h-2.179V424.111z"/>
	<path fill="#864D9E" d="M755.992,428.919v-0.036c0-2.719,2.16-4.97,5.077-4.97s5.06,2.215,5.06,4.934v0.036
		c0,2.701-2.162,4.951-5.096,4.951C758.135,433.834,755.992,431.619,755.992,428.919z M763.95,428.919v-0.036
		c0-1.675-1.206-3.061-2.917-3.061c-1.746,0-2.862,1.368-2.862,3.024v0.036c0,1.656,1.206,3.061,2.898,3.061
		C762.834,431.943,763.95,430.558,763.95,428.919z"/>
	<path fill="#864D9E" d="M766.898,424.111h2.341l2.557,6.986l2.575-6.986h2.286l-3.889,9.579h-1.963L766.898,424.111z"/>
	<path fill="#864D9E" d="M777.447,428.9v-0.036c0-2.719,1.926-4.951,4.645-4.951c3.025,0,4.556,2.377,4.556,5.113
		c0,0.198-0.019,0.396-0.036,0.612h-6.985c0.233,1.549,1.332,2.413,2.736,2.413c1.062,0,1.818-0.396,2.575-1.135l1.278,1.135
		c-0.899,1.08-2.143,1.782-3.89,1.782C779.571,433.834,777.447,431.836,777.447,428.9z M784.487,428.198
		c-0.145-1.404-0.974-2.502-2.413-2.502c-1.332,0-2.269,1.025-2.467,2.502H784.487z"/>
	<path fill="#864D9E" d="M788.354,428.883v-0.036c0-3.15,2.142-4.934,4.411-4.934c1.566,0,2.558,0.792,3.241,1.675v-5.113h2.179
		v13.144h-2.179v-1.584c-0.702,0.99-1.692,1.782-3.241,1.782C790.533,433.816,788.354,432.034,788.354,428.883z M796.043,428.883
		v-0.036c0-1.837-1.296-3.043-2.755-3.043c-1.494,0-2.737,1.152-2.737,3.043v0.036c0,1.837,1.261,3.043,2.737,3.043
		C794.747,431.926,796.043,430.701,796.043,428.883z"/>
	<path fill="#864D9E" d="M808.479,432.142v1.477H806.3v-13.144h2.179v5.222c0.702-0.991,1.692-1.783,3.224-1.783
		c2.25,0,4.429,1.783,4.429,4.934v0.036c0,3.151-2.16,4.934-4.429,4.934C810.135,433.816,809.145,433.024,808.479,432.142z
		 M813.916,428.883v-0.036c0-1.837-1.242-3.043-2.719-3.043s-2.772,1.225-2.772,3.043v0.036c0,1.837,1.296,3.043,2.772,3.043
		C812.692,431.926,813.916,430.755,813.916,428.883z"/>
	<path fill="#864D9E" d="M817.605,435.977l0.738-1.62c0.396,0.216,0.828,0.36,1.278,0.36c0.612,0,0.99-0.271,1.351-1.099
		l-3.962-9.507h2.323l2.699,7.058l2.467-7.058h2.271l-3.781,9.777c-0.757,1.944-1.603,2.664-3.133,2.664
		C818.938,436.553,818.271,436.337,817.605,435.977z"/>
	<path fill="#864D9E" d="M833.517,428.919v-0.036c0-2.701,2.088-4.97,4.933-4.97c1.801,0,2.917,0.666,3.799,1.639l-1.35,1.458
		c-0.666-0.702-1.368-1.188-2.467-1.188c-1.586,0-2.737,1.368-2.737,3.024v0.036c0,1.692,1.171,3.061,2.846,3.061
		c1.026,0,1.782-0.485,2.467-1.188l1.314,1.297c-0.937,1.044-2.035,1.782-3.89,1.782
		C835.604,433.834,833.517,431.619,833.517,428.919z"/>
	<path fill="#864D9E" d="M843.527,428.919v-0.036c0-2.719,2.16-4.97,5.077-4.97s5.06,2.215,5.06,4.934v0.036
		c0,2.701-2.161,4.951-5.096,4.951C845.67,433.834,843.527,431.619,843.527,428.919z M851.485,428.919v-0.036
		c0-1.675-1.206-3.061-2.917-3.061c-1.746,0-2.862,1.368-2.862,3.024v0.036c0,1.656,1.206,3.061,2.898,3.061
		C850.369,431.943,851.485,430.558,851.485,428.919z"/>
	<path fill="#864D9E" d="M855.875,424.111h2.179v1.44c0.612-0.847,1.44-1.639,2.899-1.639c1.368,0,2.322,0.666,2.826,1.675
		c0.774-1.009,1.783-1.675,3.224-1.675c2.07,0,3.331,1.314,3.331,3.638v6.067h-2.179v-5.401c0-1.513-0.702-2.323-1.927-2.323
		c-1.188,0-2.035,0.828-2.035,2.359v5.365h-2.18v-5.42c0-1.477-0.719-2.305-1.925-2.305c-1.208,0-2.035,0.9-2.035,2.377v5.348
		h-2.179V424.111z"/>
	<path fill="#864D9E" d="M872.975,424.111h2.179v1.44c0.612-0.847,1.44-1.639,2.899-1.639c1.368,0,2.322,0.666,2.826,1.675
		c0.774-1.009,1.783-1.675,3.224-1.675c2.07,0,3.331,1.314,3.331,3.638v6.067h-2.179v-5.401c0-1.513-0.702-2.323-1.927-2.323
		c-1.188,0-2.035,0.828-2.035,2.359v5.365h-2.179v-5.42c0-1.477-0.72-2.305-1.926-2.305c-1.207,0-2.035,0.9-2.035,2.377v5.348
		h-2.179V424.111z"/>
	<path fill="#864D9E" d="M889.967,430.161v-6.05h2.179v5.401c0,1.477,0.738,2.323,2.034,2.323c1.262,0,2.143-0.883,2.143-2.359
		v-5.365h2.178v9.507h-2.178v-1.477c-0.612,0.9-1.494,1.675-2.971,1.675C891.209,433.816,889.967,432.376,889.967,430.161z"/>
	<path fill="#864D9E" d="M901.234,424.111h2.178v1.477c0.613-0.9,1.495-1.675,2.972-1.675c2.143,0,3.386,1.44,3.386,3.655v6.05
		h-2.179v-5.401c0-1.477-0.738-2.323-2.035-2.323c-1.26,0-2.144,0.883-2.144,2.359v5.365h-2.178V424.111z"/>
	<path fill="#864D9E" d="M912.43,420.582h2.342v2.071h-2.342V420.582z M912.521,424.111h2.179v9.507h-2.179V424.111z"/>
	<path fill="#864D9E" d="M917.991,430.989v-5.006h-1.206v-1.872h1.206v-2.61h2.179v2.61h2.557v1.872h-2.557v4.664
		c0,0.846,0.433,1.188,1.171,1.188c0.485,0,0.918-0.108,1.351-0.324v1.782c-0.541,0.307-1.153,0.486-1.963,0.486
		C919.126,433.78,917.991,433.078,917.991,430.989z"/>
	<path fill="#864D9E" d="M924.615,435.977l0.739-1.62c0.396,0.216,0.827,0.36,1.278,0.36c0.612,0,0.99-0.271,1.352-1.099
		l-3.963-9.507h2.323l2.7,7.058l2.467-7.058h2.268L930,433.889c-0.757,1.944-1.603,2.664-3.134,2.664
		C925.947,436.553,925.282,436.337,924.615,435.977z"/>
</g>
<g>
	<g>
		
			<line fill="none" stroke="#864D9E" stroke-width="3" stroke-miterlimit="10" x1="384.065" y1="402.106" x2="949.014" y2="402.106"/>
		<g>
			<rect x="382.565" y="392.356" fill="#864D9E" width="3" height="19.5"/>
		</g>
		<g>
			<rect x="947.514" y="392.356" fill="#864D9E" width="3" height="19.5"/>
		</g>
	</g>
</g>
</svg>
