<?xml version="1.0" encoding="utf-8"?>
<!-- Generator: Adobe Illustrator 19.0.0, SVG Export Plug-In . SVG Version: 6.00 Build 0)  -->
<svg version="1.1" id="Layer_1" xmlns="http://www.w3.org/2000/svg" xmlns:xlink="http://www.w3.org/1999/xlink" x="0px" y="0px"
	 viewBox="350 -225 1000 500" style="enable-background:new 350 -225 1000 500;" xml:space="preserve">
<style type="text/css">
	.st0{fill:#FFFFFF;stroke:#7F7F7F;stroke-width:2;stroke-miterlimit:10;}
	.st1{fill:#161616;}
	.st2{fill:none;stroke:#7F7F7F;stroke-width:2;stroke-miterlimit:10;}
	.st3{fill:#7F7F7F;}
	.st4{fill:#63AF45;}
	.st5{fill:#F08D21;}
	.st6{fill:#29C2E4;}
	.st7{opacity:0.102;}
	.st8{clip-path:url(#SVGID_2_);fill:#161616;}
	.st9{fill:#FFFFFF;}
	.st10{opacity:0.149;}
	.st11{clip-path:url(#SVGID_4_);fill:#323F4C;}
	.st12{clip-path:url(#SVGID_6_);fill:#161616;}
	.st13{opacity:0.851;}
	.st14{clip-path:url(#SVGID_8_);fill:#161616;}
	.st15{clip-path:url(#SVGID_10_);fill:#161616;}
	.st16{fill:none;}
	.st17{fill:none;stroke:#63AF45;stroke-width:3;stroke-miterlimit:10;}
	.st18{fill:#864D9E;}
	.st19{fill:none;stroke:#864D9E;stroke-width:3;stroke-miterlimit:10;}
</style>
<rect x="399.5" y="-143.7" class="st0" width="236.4" height="106.1"/>
<g>
	<path class="st1" d="M435.9-86.1h12.5v2.7h-9.6v4.6h8.5v2.7h-8.5v6.8h-3C435.9-69.3,435.9-86.1,435.9-86.1z"/>
	<path class="st1" d="M450.2-75.6L450.2-75.6c0-3.7,2.6-6.6,6.2-6.6c4,0,6.1,3.2,6.1,6.8c0,0.3,0,0.5,0,0.8h-9.3
		c0.3,2.1,1.8,3.2,3.6,3.2c1.4,0,2.4-0.5,3.4-1.5l1.7,1.5c-1.2,1.4-2.9,2.4-5.2,2.4C453-69,450.2-71.7,450.2-75.6z M459.6-76.5
		c-0.2-1.9-1.3-3.3-3.2-3.3c-1.8,0-3,1.4-3.3,3.3H459.6z"/>
	<path class="st1" d="M464.7-75.6L464.7-75.6c0-3.7,2.6-6.6,6.2-6.6c4,0,6.1,3.2,6.1,6.8c0,0.3,0,0.5,0,0.8h-9.3
		c0.3,2.1,1.8,3.2,3.6,3.2c1.4,0,2.4-0.5,3.4-1.5l1.7,1.5c-1.2,1.4-2.9,2.4-5.2,2.4C467.5-69,464.7-71.7,464.7-75.6z M474.1-76.5
		c-0.2-1.9-1.3-3.3-3.2-3.3c-1.8,0-3,1.4-3.3,3.3H474.1z"/>
	<path class="st1" d="M479.2-75.6L479.2-75.6c0-4.2,2.9-6.6,5.9-6.6c2.1,0,3.4,1.1,4.3,2.2v-6.8h2.9v17.5h-2.9v-2.1
		c-0.9,1.3-2.3,2.4-4.3,2.4C482.2-69,479.2-71.4,479.2-75.6z M489.5-75.6L489.5-75.6c0-2.5-1.7-4.1-3.7-4.1s-3.6,1.5-3.6,4.1l0,0
		c0,2.4,1.7,4.1,3.6,4.1C487.8-71.5,489.5-73.2,489.5-75.6z"/>
	<path class="st1" d="M503.5-86.1h7.5c2.1,0,3.8,0.6,4.8,1.7c0.9,0.9,1.4,2.2,1.4,3.6l0,0c0,2.8-1.7,4.4-4,5.1l4.5,6.4h-3.5
		l-4.1-5.9l0,0h-3.6v5.9h-3L503.5-86.1L503.5-86.1z M510.8-77.8c2.1,0,3.5-1.1,3.5-2.8l0,0c0-1.8-1.3-2.8-3.5-2.8h-4.3v5.6
		C506.5-77.8,510.8-77.8,510.8-77.8z"/>
	<path class="st1" d="M519.6-75.6L519.6-75.6c0-3.7,2.6-6.6,6.2-6.6c4,0,6.1,3.2,6.1,6.8c0,0.3,0,0.5,0,0.8h-9.3
		c0.3,2.1,1.8,3.2,3.6,3.2c1.4,0,2.4-0.5,3.4-1.5l1.7,1.5c-1.2,1.4-2.9,2.4-5.2,2.4C522.4-69,519.6-71.7,519.6-75.6z M529-76.5
		c-0.2-1.9-1.3-3.3-3.2-3.3c-1.8,0-3,1.4-3.3,3.3H529z"/>
	<path class="st1" d="M534.8-66.9l1.1-2.2c1.3,0.8,2.8,1.3,4.5,1.3c2.6,0,4-1.3,4-3.9v-1c-1.1,1.4-2.4,2.3-4.5,2.3
		c-3,0-5.8-2.2-5.8-5.9l0,0c0-3.7,2.8-6,5.8-6c2.1,0,3.5,1,4.4,2.2V-82h2.9v10.1c0,2.1-0.6,3.7-1.6,4.8c-1.2,1.2-2.9,1.7-5.2,1.7
		C538.3-65.4,536.4-65.9,534.8-66.9z M544.4-76.2L544.4-76.2c0-2.1-1.7-3.6-3.7-3.6s-3.6,1.4-3.6,3.5l0,0c0,2.1,1.6,3.5,3.6,3.5
		C542.7-72.7,544.4-74.2,544.4-76.2z"/>
	<path class="st1" d="M550.9-86.7h3.1v2.8h-3.1V-86.7z M551-82h2.9v12.7H551V-82z"/>
	<path class="st1" d="M556.7-70.9l1.3-2c1.4,1,2.9,1.6,4.2,1.6c1.2,0,2-0.5,2-1.4l0,0c0-1-1.3-1.3-2.8-1.8c-1.9-0.5-4-1.3-4-3.7l0,0
		c0-2.4,2-3.9,4.5-3.9c1.6,0,3.3,0.6,4.7,1.4l-1.2,2.1c-1.2-0.7-2.5-1.2-3.6-1.2s-1.8,0.5-1.8,1.3l0,0c0,0.9,1.4,1.3,2.9,1.8
		c1.8,0.6,3.9,1.4,3.9,3.7l0,0c0,2.7-2.1,4-4.7,4C560.3-69,558.3-69.7,556.7-70.9z"/>
	<path class="st1" d="M570.1-72.8v-6.7h-1.6V-82h1.6v-3.5h2.9v3.5h3.4v2.5H573v6.2c0,1.1,0.6,1.6,1.6,1.6c0.6,0,1.2-0.1,1.8-0.4v2.4
		c-0.7,0.4-1.5,0.6-2.6,0.6C571.6-69.1,570.1-70,570.1-72.8z"/>
	<path class="st1" d="M579.3-82h2.9v2.9c0.8-1.9,2.3-3.2,4.5-3.1v3.1h-0.2c-2.5,0-4.3,1.7-4.3,5v4.8h-2.9V-82z"/>
	<path class="st1" d="M588.8-66.1l1-2.2c0.5,0.3,1.1,0.5,1.7,0.5c0.8,0,1.3-0.4,1.8-1.5L588-82h3.1l3.6,9.4L598-82h3l-5,13
		c-1,2.6-2.1,3.6-4.2,3.6C590.6-65.4,589.7-65.7,588.8-66.1z"/>
</g>
<rect x="1064.1" y="-143.7" class="st0" width="236.4" height="106.1"/>
<g>
	<path class="st1" d="M1115.8-86.1h6.6c3.9,0,6.4,2.2,6.4,5.6l0,0c0,3.8-3,5.7-6.7,5.7h-3.3v5.4h-3V-86.1z M1122.1-77.4
		c2.2,0,3.6-1.2,3.6-3l0,0c0-2-1.4-3-3.6-3h-3.4v6H1122.1L1122.1-77.4z"/>
	<path class="st1" d="M1131.6-86.8h2.9v17.5h-2.9V-86.8z"/>
	<path class="st1" d="M1146.1-69.3v-1.6c-0.9,1-2.2,1.8-4.1,1.8c-2.4,0-4.5-1.4-4.5-3.9l0,0c0-2.8,2.2-4.2,5.1-4.2
		c1.5,0,2.5,0.2,3.5,0.5v-0.2c0-1.8-1.1-2.7-3.1-2.7c-1.4,0-2.5,0.3-3.6,0.8l-0.8-2.3c1.4-0.6,2.8-1.1,4.8-1.1c3.7,0,5.6,2,5.6,5.4
		v7.5L1146.1-69.3L1146.1-69.3z M1146.1-74.6c-0.7-0.3-1.8-0.5-2.9-0.5c-1.8,0-2.9,0.7-2.9,2l0,0c0,1.2,1.1,1.9,2.4,1.9
		c1.9,0,3.4-1.1,3.4-2.7V-74.6L1146.1-74.6z"/>
	<path class="st1" d="M1151.5-66.1l1-2.2c0.5,0.3,1.1,0.5,1.7,0.5c0.8,0,1.3-0.4,1.8-1.5l-5.3-12.7h3.1l3.6,9.4l3.3-9.4h3l-5,13
		c-1,2.6-2.1,3.6-4.2,3.6C1153.3-65.4,1152.4-65.7,1151.5-66.1z"/>
	<path class="st1" d="M1165.6-66.9l1.1-2.2c1.3,0.8,2.8,1.3,4.5,1.3c2.6,0,4-1.3,4-3.9v-1c-1.1,1.4-2.4,2.3-4.5,2.3
		c-3,0-5.8-2.2-5.8-5.9l0,0c0-3.7,2.8-6,5.8-6c2.1,0,3.5,1,4.4,2.2V-82h2.9v10.1c0,2.1-0.6,3.7-1.6,4.8c-1.1,1.2-2.9,1.7-5.2,1.7
		C1169.2-65.4,1167.2-65.9,1165.6-66.9z M1175.2-76.2L1175.2-76.2c0-2.1-1.7-3.6-3.7-3.6s-3.6,1.4-3.6,3.5l0,0
		c0,2.1,1.6,3.5,3.6,3.5C1173.5-72.7,1175.2-74.2,1175.2-76.2z"/>
	<path class="st1" d="M1181.7-82h2.9v2.9c0.8-1.9,2.3-3.2,4.5-3.1v3.1h-0.2c-2.5,0-4.3,1.7-4.3,5v4.8h-2.9V-82L1181.7-82z"/>
	<path class="st1" d="M1190.5-75.6L1190.5-75.6c0-3.7,2.9-6.7,6.8-6.7s6.7,3,6.7,6.6l0,0c0,3.6-2.9,6.6-6.8,6.6
		C1193.4-69,1190.5-72,1190.5-75.6z M1201.1-75.6L1201.1-75.6c0-2.3-1.6-4.1-3.9-4.1s-3.8,1.8-3.8,4l0,0c0,2.2,1.6,4.1,3.9,4.1
		C1199.6-71.5,1201.1-73.4,1201.1-75.6z"/>
	<path class="st1" d="M1206.8-73.9V-82h2.9v7.2c0,2,1,3.1,2.7,3.1s2.9-1.2,2.9-3.1V-82h2.9v12.7h-2.9v-2c-0.8,1.2-2,2.2-4,2.2
		C1208.5-69,1206.8-70.9,1206.8-73.9z"/>
	<path class="st1" d="M1221.8-82h2.9v2c0.8-1.2,2-2.2,4-2.2c2.9,0,4.5,1.9,4.5,4.9v8.1h-2.9v-7.2c0-2-1-3.1-2.7-3.1
		s-2.9,1.2-2.9,3.1v7.2h-2.9V-82L1221.8-82z"/>
	<path class="st1" d="M1236.1-75.6L1236.1-75.6c0-4.2,2.9-6.6,5.9-6.6c2.1,0,3.4,1.1,4.3,2.2v-6.8h2.9v17.5h-2.9v-2.1
		c-0.9,1.3-2.3,2.4-4.3,2.4C1239-69,1236.1-71.4,1236.1-75.6z M1246.3-75.6L1246.3-75.6c0-2.5-1.7-4.1-3.7-4.1s-3.6,1.5-3.6,4.1l0,0
		c0,2.4,1.7,4.1,3.6,4.1C1244.6-71.5,1246.3-73.2,1246.3-75.6z"/>
</g>
<rect x="732.6" y="-143.7" class="st0" width="236.4" height="106.1"/>
<g>
	<path class="st1" d="M794.1-86.1h6.3c5.3,0,8.9,3.6,8.9,8.4l0,0c0,4.7-3.6,8.4-8.9,8.4h-6.3V-86.1z M800.4-72
		c3.5,0,5.8-2.4,5.8-5.7l0,0c0-3.3-2.3-5.7-5.8-5.7h-3.3V-72C797.1-72,800.4-72,800.4-72z"/>
	<path class="st1" d="M820.3-69.3v-1.6c-0.9,1-2.2,1.8-4.1,1.8c-2.4,0-4.5-1.4-4.5-3.9l0,0c0-2.8,2.2-4.2,5.1-4.2
		c1.5,0,2.5,0.2,3.5,0.5v-0.2c0-1.8-1.1-2.7-3.1-2.7c-1.4,0-2.5,0.3-3.6,0.8l-0.8-2.3c1.4-0.6,2.8-1.1,4.8-1.1c3.7,0,5.6,2,5.6,5.4
		v7.5L820.3-69.3L820.3-69.3z M820.4-74.6c-0.7-0.3-1.8-0.5-2.9-0.5c-1.8,0-2.9,0.7-2.9,2l0,0c0,1.2,1.1,1.9,2.4,1.9
		c1.9,0,3.4-1.1,3.4-2.7V-74.6L820.4-74.6z"/>
	<path class="st1" d="M827.1-72.8v-6.7h-1.6V-82h1.6v-3.5h2.9v3.5h3.4v2.5H830v6.2c0,1.1,0.6,1.6,1.6,1.6c0.6,0,1.2-0.1,1.8-0.4v2.4
		c-0.7,0.4-1.5,0.6-2.6,0.6C828.6-69.1,827.1-70,827.1-72.8z"/>
	<path class="st1" d="M844.1-69.3v-1.6c-0.9,1-2.2,1.8-4.1,1.8c-2.4,0-4.5-1.4-4.5-3.9l0,0c0-2.8,2.2-4.2,5.1-4.2
		c1.5,0,2.5,0.2,3.5,0.5v-0.2c0-1.8-1.1-2.7-3.1-2.7c-1.4,0-2.5,0.3-3.6,0.8l-0.8-2.3c1.4-0.6,2.8-1.1,4.8-1.1c3.7,0,5.6,2,5.6,5.4
		v7.5L844.1-69.3L844.1-69.3z M844.2-74.6c-0.7-0.3-1.8-0.5-2.9-0.5c-1.8,0-2.9,0.7-2.9,2l0,0c0,1.2,1.1,1.9,2.4,1.9
		c1.9,0,3.4-1.1,3.4-2.7V-74.6L844.2-74.6z"/>
	<path class="st1" d="M849.4-70.9l1.3-2c1.4,1,2.9,1.6,4.2,1.6c1.2,0,2-0.5,2-1.4l0,0c0-1-1.3-1.3-2.8-1.8c-1.9-0.5-4-1.3-4-3.7l0,0
		c0-2.4,2-3.9,4.5-3.9c1.6,0,3.3,0.6,4.7,1.4l-1.2,2.1c-1.2-0.7-2.5-1.2-3.6-1.2s-1.8,0.5-1.8,1.3l0,0c0,0.9,1.4,1.3,2.9,1.8
		c1.8,0.6,3.9,1.4,3.9,3.7l0,0c0,2.7-2.1,4-4.7,4C853-69,851-69.7,849.4-70.9z"/>
	<path class="st1" d="M862.8-72.8v-6.7h-1.6V-82h1.6v-3.5h2.9v3.5h3.4v2.5h-3.4v6.2c0,1.1,0.6,1.6,1.6,1.6c0.6,0,1.2-0.1,1.8-0.4
		v2.4c-0.7,0.4-1.5,0.6-2.6,0.6C864.3-69.1,862.8-70,862.8-72.8z"/>
	<path class="st1" d="M871-75.6L871-75.6c0-3.7,2.9-6.7,6.8-6.7s6.7,3,6.7,6.6l0,0c0,3.6-2.9,6.6-6.8,6.6C873.9-69,871-72,871-75.6z
		 M881.6-75.6L881.6-75.6c0-2.3-1.6-4.1-3.9-4.1s-3.8,1.8-3.8,4l0,0c0,2.2,1.6,4.1,3.9,4.1C880.1-71.5,881.6-73.4,881.6-75.6z"/>
	<path class="st1" d="M887.5-82h2.9v2.9c0.8-1.9,2.3-3.2,4.5-3.1v3.1h-0.2c-2.5,0-4.3,1.7-4.3,5v4.8h-2.9V-82L887.5-82z"/>
	<path class="st1" d="M896.2-75.6L896.2-75.6c0-3.7,2.6-6.6,6.2-6.6c4,0,6.1,3.2,6.1,6.8c0,0.3,0,0.5,0,0.8h-9.3
		c0.3,2.1,1.8,3.2,3.6,3.2c1.4,0,2.4-0.5,3.4-1.5l1.7,1.5c-1.2,1.4-2.9,2.4-5.2,2.4C899.1-69,896.2-71.7,896.2-75.6z M905.6-76.5
		c-0.2-1.9-1.3-3.3-3.2-3.3c-1.8,0-3,1.4-3.3,3.3H905.6z"/>
</g>
<g>
	<g>
		<line class="st2" x1="638.3" y1="-90.6" x2="729.8" y2="-90.6"/>
		<g>
			<path class="st3" d="M652-81c0.3-0.5,0.2-1.1-0.3-1.4l-12.9-8.2l12.9-8.2c0.5-0.3,0.6-0.9,0.3-1.4s-0.9-0.6-1.4-0.3l-14.2,9.1
				c-0.3,0.2-0.5,0.5-0.5,0.8s0.2,0.7,0.5,0.8l14.2,9.1c0.2,0.1,0.4,0.2,0.5,0.2C651.5-80.6,651.8-80.7,652-81z"/>
		</g>
		<g>
			<path class="st3" d="M716.1-81c-0.3-0.5-0.2-1.1,0.3-1.4l12.9-8.2l-12.9-8.2c-0.5-0.3-0.6-0.9-0.3-1.4s0.9-0.6,1.4-0.3l14.2,9.1
				c0.3,0.2,0.5,0.5,0.5,0.8s-0.2,0.7-0.5,0.8l-14.2,9.1c-0.2,0.1-0.4,0.2-0.5,0.2C716.6-80.6,716.3-80.7,716.1-81z"/>
		</g>
	</g>
</g>
<g>
	<g>
		<line class="st2" x1="968.4" y1="-90.6" x2="1062.2" y2="-90.6"/>
		<g>
			<path class="st3" d="M1048.5-81c-0.3-0.5-0.2-1.1,0.3-1.4l12.9-8.2l-12.9-8.2c-0.5-0.3-0.6-0.9-0.3-1.4c0.3-0.5,0.9-0.6,1.4-0.3
				l14.2,9.1c0.3,0.2,0.5,0.5,0.5,0.8s-0.2,0.7-0.5,0.8l-14.2,9.1c-0.2,0.1-0.4,0.2-0.5,0.2C1049-80.6,1048.7-80.7,1048.5-81z"/>
		</g>
	</g>
</g>
<g>
	<path class="st4" d="M836.3-162.9c1.6,0,2.9-1.3,2.9-2.9s-1.3-2.9-2.9-2.9s-2.9,1.3-2.9,2.9C833.4-164.2,834.7-162.9,836.3-162.9
		 M836.3-139.4c-1.6,0-2.9,1.3-2.9,2.9s1.3,2.9,2.9,2.9s2.9-1.3,2.9-2.9C839.3-138.1,838-139.4,836.3-139.4 M836.3-125.4
		c-1.6,0-2.9,1.3-2.9,2.9s1.3,2.9,2.9,2.9s2.9-1.3,2.9-2.9C839.3-124.1,838-125.4,836.3-125.4"/>
	<path class="st5" d="M836.3-154.1c-1.6,0-2.9,1.3-2.9,2.9s1.3,2.9,2.9,2.9s2.9-1.3,2.9-2.9C839.3-152.8,838-154.1,836.3-154.1"/>
	<path class="st6" d="M867.2-164.4c0.8,0,1.5-0.7,1.5-1.5s-0.7-1.5-1.5-1.5s-1.5,0.7-1.5,1.5C865.8-165.1,866.4-164.4,867.2-164.4
		 M862.8-167.3c-0.8,0-1.5,0.7-1.5,1.5s0.7,1.5,1.5,1.5s1.5-0.7,1.5-1.5C864.3-166.7,863.6-167.3,862.8-167.3 M867.2-152.6
		c-0.8,0-1.5,0.7-1.5,1.5s0.7,1.5,1.5,1.5s1.5-0.7,1.5-1.5C868.7-152,868-152.6,867.2-152.6"/>
	<path class="st6" d="M867.2-134.2c0.8,0,1.5-0.7,1.5-1.5s-0.7-1.5-1.5-1.5s-1.5,0.7-1.5,1.5C865.8-134.9,866.4-134.2,867.2-134.2
		 M862.8-137.2c-0.8,0-1.5,0.7-1.5,1.5s0.7,1.5,1.5,1.5s1.5-0.7,1.5-1.5S863.6-137.2,862.8-137.2 M867.2-122.5
		c-0.8,0-1.5,0.7-1.5,1.5s0.7,1.5,1.5,1.5s1.5-0.7,1.5-1.5C868.7-121.8,868-122.5,867.2-122.5 M862.8-122.5c-0.8,0-1.5,0.7-1.5,1.5
		s0.7,1.5,1.5,1.5s1.5-0.7,1.5-1.5C864.3-121.8,863.6-122.5,862.8-122.5"/>
	<g class="st7">
		<g>
			<g>
				<g>
					<g>
						<defs>
							<rect id="SVGID_1_" x="843" y="-172.5" width="4.4" height="57.4"/>
						</defs>
						<clipPath id="SVGID_2_">
							<use xlink:href="#SVGID_1_"  style="overflow:visible;"/>
						</clipPath>
						<path class="st8" d="M843-159.3h1.5v-1.5H843V-159.3z M844.4-157.8h1.5v-1.5h-1.5V-157.8z M847.4-157.8h-1.5v1.5h1.5V-157.8z
							 M843-156.3h1.5v-1.5H843V-156.3z M844.4-154.8h1.5v-1.5h-1.5V-154.8z M847.4-154.8h-1.5v1.5h1.5V-154.8z M843-153.4h1.5v-1.5
							H843V-153.4z M844.4-151.9h1.5v-1.5h-1.5V-151.9z M847.4-160.7h-1.5v1.5h1.5V-160.7z M843-150.4h1.5v-1.5H843V-150.4z
							 M844.4-149h1.5v-1.5h-1.5V-149z M847.4-149h-1.5v1.5h1.5V-149z M843-147.5h1.5v-1.5H843V-147.5z M844.4-146h1.5v-1.5h-1.5
							V-146z M847.4-146h-1.5v1.5h1.5V-146z M843-144.5h1.5v-1.5H843V-144.5z M844.4-143.1h1.5v-1.5h-1.5V-143.1z M847.4-151.9h-1.5
							v1.5h1.5V-151.9z M843-141.6h1.5v-1.5H843V-141.6z M844.4-140.1h1.5v-1.5h-1.5V-140.1z M847.4-140.1h-1.5v1.5h1.5V-140.1z
							 M843-138.7h1.5v-1.5H843V-138.7z M844.4-137.2h1.5v-1.5h-1.5V-137.2z M847.4-137.2h-1.5v1.5h1.5V-137.2z M843-135.7h1.5v-1.5
							H843V-135.7z M844.4-134.2h1.5v-1.5h-1.5V-134.2z M847.4-143.1h-1.5v1.5h1.5V-143.1z M843-132.8h1.5v-1.5H843V-132.8z
							 M844.4-131.3h1.5v-1.5h-1.5V-131.3z M847.4-131.3h-1.5v1.5h1.5V-131.3z M843-129.8h1.5v-1.5H843V-129.8z M847.4-134.2h-1.5
							v1.5h1.5V-134.2z M843-168.1h1.5v-1.5H843V-168.1z M845.9-168.1h-1.5v1.5h1.5V-168.1z M847.4-166.6h-1.5v1.5h1.5V-166.6z
							 M843-165.1h1.5v-1.5H843V-165.1z M845.9-165.1h-1.5v1.5h1.5V-165.1z M847.4-163.7h-1.5v1.5h1.5V-163.7z M843-162.2h1.5v-1.5
							H843V-162.2z M845.9-162.2h-1.5v1.5h1.5V-162.2z M847.4-169.5h-1.5v1.5h1.5V-169.5z M847.4-172.5h-1.5v1.5h1.5V-172.5z
							 M843-171h1.5v-1.5H843V-171z M845.9-171h-1.5v1.5h1.5V-171z M844.4-128.4h1.5v-1.5h-1.5V-128.4z M847.4-128.4h-1.5v1.5h1.5
							V-128.4z M843-126.9h1.5v-1.5H843V-126.9z M844.4-125.4h1.5v-1.5h-1.5V-125.4z M847.4-125.4h-1.5v1.5h1.5V-125.4z M843-124
							h1.5v-1.5H843V-124z M844.4-122.5h1.5v-1.5h-1.5V-122.5z M843-121h1.5v-1.5H843V-121z M844.4-119.5h1.5v-1.5h-1.5V-119.5z
							 M847.4-122.5h-1.5v1.5h1.5V-122.5z M843-118.1h1.5v-1.5H843V-118.1z M844.4-116.6h1.5v-1.5h-1.5V-116.6z M847.4-116.6h-1.5
							v1.5h1.5V-116.6z M843-115.1h1.5v-1.5H843V-115.1z M847.4-119.5h-1.5v1.5h1.5V-119.5z"/>
					</g>
				</g>
			</g>
		</g>
	</g>
	<rect x="829.7" y="-144.5" class="st1" width="42.7" height="1.5"/>
	<rect x="829.7" y="-159.3" class="st1" width="42.7" height="1.5"/>
	<path class="st1" d="M829.7-128.4h42.5c0.3-0.5,0.6-1,1-1.5h-43.5V-128.4z"/>
	<path class="st1" d="M868.9-112.2c3.2,0,5.9-2.6,5.9-5.9v-51.5c0-3.2-2.6-5.9-5.9-5.9h-36.2c-3.2,0-5.9,2.6-5.9,5.9v51.5
		c0,3.2,2.6,5.9,5.9,5.9H868.9L868.9-112.2z M832.7-115.1c-1.6,0-2.9-1.3-2.9-2.9v-51.5c0-1.6,1.3-2.9,2.9-2.9h36.2
		c1.6,0,2.9,1.3,2.9,2.9v51.5c0,1.6-1.3,2.9-2.9,2.9C868.9-115.1,832.7-115.1,832.7-115.1z"/>
</g>
<g>
	<path class="st9" d="M1205.4-153.7c0-0.2-0.2-0.8-0.2-0.9c-0.1-0.6-0.3-0.7-0.8-1c-0.4-0.3-0.8-0.4-1.3-0.4h-56.2
		c-0.5,0-0.9,0.1-1.3,0.4c-0.5,0.3-0.9,0.9-1,1.5c0,0.2,0,0.3,0,0.5v35.1h60.9L1205.4-153.7L1205.4-153.7z M1183.6-116.2
		c-0.4,0.6-1,1.2-1.7,1.2h-14c-0.9,0-1.6-0.5-2-1.2H1140c0.3,1.4,1.3,3.5,4.5,3.5l0,0h60.9l0,0c3.2,0,4.2-2.1,4.5-3.5H1183.6z"/>
	<rect x="1186.7" y="-129.1" class="st5" width="9.4" height="4.7"/>
	<rect x="1186.7" y="-146.7" class="st6" width="9.4" height="14.1"/>
	<rect x="1153.9" y="-146.7" class="st4" width="29.3" height="22.2"/>
	<g class="st10">
		<g>
			<g>
				<g>
					<g>
						<defs>
							<rect id="SVGID_3_" x="1146.8" y="-155.4" width="56.2" height="36.9"/>
						</defs>
						<clipPath id="SVGID_4_">
							<use xlink:href="#SVGID_3_"  style="overflow:visible;"/>
						</clipPath>
						<path class="st11" d="M1146.8-153.7v35.1h1.2v-34h53.9v34h1.2v-35.1H1146.8z M1174.9-154.3c0.3,0,0.6-0.3,0.6-0.6
							c0-0.3-0.3-0.6-0.6-0.6c-0.3,0-0.6,0.3-0.6,0.6C1174.4-154.5,1174.6-154.3,1174.9-154.3"/>
					</g>
				</g>
			</g>
		</g>
	</g>
	<g class="st7">
		<g>
			<g>
				<g>
					<g>
						<defs>
							<rect id="SVGID_5_" x="1153.9" y="-146.7" width="8.2" height="22.2"/>
						</defs>
						<clipPath id="SVGID_6_">
							<use xlink:href="#SVGID_5_"  style="overflow:visible;"/>
						</clipPath>
						<path class="st12" d="M1157.4-146.7h-1.2v1.2h1.2V-146.7z M1153.9-145.5h1.2v-1.2h-1.2V-145.5z M1159.7-146.7h-1.2v1.2h1.2
							V-146.7z M1157.4-142h1.2v-1.2h-1.2V-142z M1158.6-143.2h1.2v-1.2h-1.2V-143.2z M1153.9-143.2h1.2v-1.2h-1.2V-143.2z
							 M1156.2-143.2h-1.2v1.2h1.2V-143.2z M1157.4-144.3h-1.2v1.2h1.2V-144.3z M1158.6-145.5h-1.2v1.2h1.2V-145.5z M1156.2-145.5
							h-1.2v1.2h1.2V-145.5z M1157.4-139.6h-1.2v1.2h1.2V-139.6z M1157.4-139.6h1.2v-1.2h-1.2V-139.6z M1158.6-140.8h1.2v-1.2h-1.2
							V-140.8z M1153.9-138.5h1.2v-1.2h-1.2V-138.5z M1156.2-140.8h-1.2v1.2h1.2V-140.8z M1157.4-142h-1.2v1.2h1.2V-142z
							 M1158.6-138.5h1.2v-1.2h-1.2V-138.5z M1153.9-140.8h1.2v-1.2h-1.2V-140.8z M1157.4-135h1.2v-1.2h-1.2V-135z M1158.6-136.1
							h1.2v-1.2h-1.2V-136.1z M1153.9-136.1h1.2v-1.2h-1.2V-136.1z M1156.2-136.1h-1.2v1.2h1.2V-136.1z M1157.4-137.3h-1.2v1.2h1.2
							V-137.3z M1157.4-137.3h1.2v-1.2h-1.2V-137.3z M1156.2-138.5h-1.2v1.2h1.2V-138.5z M1157.4-132.6h-1.2v1.2h1.2V-132.6z
							 M1157.4-132.6h1.2v-1.2h-1.2V-132.6z M1158.6-133.8h1.2v-1.2h-1.2V-133.8z M1153.9-131.4h1.2v-1.2h-1.2V-131.4z
							 M1156.2-133.8h-1.2v1.2h1.2V-133.8z M1157.4-135h-1.2v1.2h1.2V-135z M1158.6-131.4h1.2v-1.2h-1.2V-131.4z M1153.9-133.8h1.2
							v-1.2h-1.2V-133.8z M1157.4-127.9h1.2v-1.2h-1.2V-127.9z M1158.6-129.1h1.2v-1.2h-1.2V-129.1z M1153.9-129.1h1.2v-1.2h-1.2
							V-129.1z M1156.2-129.1h-1.2v1.2h1.2V-129.1z M1157.4-130.3h-1.2v1.2h1.2V-130.3z M1157.4-130.3h1.2v-1.2h-1.2V-130.3z
							 M1156.2-131.4h-1.2v1.2h1.2V-131.4z M1156.2-124.4h1.2v-1.2h-1.2V-124.4z M1157.4-125.6h1.2v-1.2h-1.2V-125.6z M1158.6-126.8
							h1.2v-1.2h-1.2V-126.8z M1153.9-124.4h1.2v-1.2h-1.2V-124.4z M1155-125.6h1.2v-1.2h-1.2V-125.6z M1156.2-126.8h1.2v-1.2h-1.2
							V-126.8z M1158.6-124.4h1.2v-1.2h-1.2V-124.4z M1153.9-126.8h1.2v-1.2h-1.2V-126.8z M1162.1-146.7h-1.2v1.2h1.2V-146.7z
							 M1159.7-142h1.2v-1.2h-1.2V-142z M1162.1-144.3h-1.2v1.2h1.2V-144.3z M1159.7-144.3h1.2v-1.2h-1.2V-144.3z M1159.7-139.6h1.2
							v-1.2h-1.2V-139.6z M1162.1-142h-1.2v1.2h1.2V-142z M1162.1-139.6h-1.2v1.2h1.2V-139.6z M1159.7-135h1.2v-1.2h-1.2V-135z
							 M1162.1-137.3h-1.2v1.2h1.2V-137.3z M1159.7-137.3h1.2v-1.2h-1.2V-137.3z M1159.7-132.6h1.2v-1.2h-1.2V-132.6z M1162.1-135
							h-1.2v1.2h1.2V-135z M1162.1-132.6h-1.2v1.2h1.2V-132.6z M1159.7-127.9h1.2v-1.2h-1.2V-127.9z M1162.1-130.3h-1.2v1.2h1.2
							V-130.3z M1159.7-130.3h1.2v-1.2h-1.2V-130.3z M1159.7-125.6h1.2v-1.2h-1.2V-125.6z M1162.1-127.9h-1.2v1.2h1.2V-127.9z
							 M1162.1-125.6h-1.2v1.2h1.2V-125.6z"/>
					</g>
				</g>
			</g>
		</g>
	</g>
	<g class="st13">
		<g>
			<g>
				<g>
					<g>
						<defs>
							<rect id="SVGID_7_" x="1137.5" y="-158.4" width="74.9" height="48"/>
						</defs>
						<clipPath id="SVGID_8_">
							<use xlink:href="#SVGID_7_"  style="overflow:visible;"/>
						</clipPath>
						<path class="st14" d="M1212.4-117.4c0-0.6-0.5-1.2-1.2-1.2h-3.5v-35.1c0-2.6-2.1-4.7-4.7-4.7h-56.2c-2.6,0-4.7,2.1-4.7,4.7
							v35.1h-3.5c-0.6,0-1.2,0.5-1.2,1.2l0,0l0,0c0,2.4,1.5,7,7,7l0,0h60.9l0,0C1210.9-110.4,1212.4-115,1212.4-117.4L1212.4-117.4
							L1212.4-117.4 M1144.5-153.7c0-1.3,1.1-2.3,2.3-2.3h56.2c1.3,0,2.3,1,2.3,2.3v35.1h-60.9L1144.5-153.7L1144.5-153.7z
							 M1205.4-112.7L1205.4-112.7h-60.9l0,0c-3.2,0-4.2-2.1-4.5-3.5h25.9c0.4,0.7,1.2,1.2,2,1.2h14c0.6,0,1.2-0.6,1.7-1.2h26.3
							C1209.6-114.8,1208.6-112.7,1205.4-112.7"/>
					</g>
				</g>
			</g>
		</g>
	</g>
</g>
<g>
	<path class="st9" d="M489.8-114.1c0,0.4,0.1,0.9,0.4,1.2c0.3,0.5,0.8,0.8,1.3,0.9c0.1,0,0.3,0,0.4,0h53.6v-35.4h-55.7V-114.1
		L489.8-114.1z M545.2-155c-0.3-0.5-0.8-0.8-1.3-0.9c-0.1,0-0.3,0-0.4,0H492c-0.1,0-0.3,0-0.4,0c-0.6,0.1-1,0.4-1.3,0.9
		c-0.2,0.3-0.4,0.8-0.4,1.2v4.3h55.7v-4.3C545.6-154.2,545.4-154.6,545.2-155"/>
	<g class="st10">
		<rect x="493.6" y="-147.3" class="st1" width="1.1" height="35.4"/>
		<path class="st1" d="M493.1-153.8c-0.6,0-1.1,0.5-1.1,1.1s0.5,1.1,1.1,1.1s1.1-0.5,1.1-1.1C494.1-153.3,493.7-153.8,493.1-153.8"
			/>
		<path class="st1" d="M496.3-153.8c-0.6,0-1.1,0.5-1.1,1.1s0.5,1.1,1.1,1.1s1.1-0.5,1.1-1.1C497.3-153.3,496.9-153.8,496.3-153.8"
			/>
		<path class="st1" d="M499.5-153.8c-0.6,0-1.1,0.5-1.1,1.1s0.5,1.1,1.1,1.1s1.1-0.5,1.1-1.1S500.1-153.8,499.5-153.8"/>
	</g>
	<g class="st7">
		<g>
			<g>
				<g>
					<g>
						<defs>
							<rect id="SVGID_9_" x="490.4" y="-147.3" width="3.2" height="35.4"/>
						</defs>
						<clipPath id="SVGID_10_">
							<use xlink:href="#SVGID_9_"  style="overflow:visible;"/>
						</clipPath>
						<path class="st15" d="M490.4-117.3h1.1v-1.1h-1.1V-117.3z M491.5-120.5h1.1v-1.1h-1.1V-120.5z M490.4-119.5h1.1v-1.1h-1.1
							V-119.5z M490.4-121.6h1.1v-1.1h-1.1V-121.6z M491.5-118.4h1.1v-1.1h-1.1V-118.4z M490.4-113h1.1v-1.1h-1.1V-113z
							 M493.6-116.3h-1.1v1.1h1.1V-116.3z M493.6-120.5h-1.1v1.1h1.1V-120.5z M493.6-118.4h-1.1v1.1h1.1V-118.4z M493.6-122.7h-1.1
							v1.1h1.1V-122.7z M493.6-124.8h-1.1v1.1h1.1V-124.8z M490.4-115.2h1.1v-1.1h-1.1V-115.2z M491.5-114.1h1.1v-1.1h-1.1V-114.1z
							 M491.5-116.3h1.1v-1.1h-1.1V-116.3z M491.5-122.7h1.1v-1.1h-1.1V-122.7z M493.6-114.1h-1.1v1.1h1.1V-114.1z M491.5-112h1.1
							v-1.1h-1.1V-112z M490.4-138.8h1.1v-1.1h-1.1V-138.8z M493.6-127h-1.1v1.1h1.1V-127z M491.5-135.5h1.1v-1.1h-1.1V-135.5z
							 M491.5-137.7h1.1v-1.1h-1.1V-137.7z M493.6-131.3h-1.1v1.1h1.1V-131.3z M490.4-136.6h1.1v-1.1h-1.1V-136.6z M493.6-129.1
							h-1.1v1.1h1.1V-129.1z M493.6-139.8h-1.1v1.1h1.1V-139.8z M493.6-137.7h-1.1v1.1h1.1V-137.7z M493.6-135.5h-1.1v1.1h1.1
							V-135.5z M493.6-133.4h-1.1v1.1h1.1V-133.4z M491.5-131.3h1.1v-1.1h-1.1V-131.3z M491.5-129.1h1.1v-1.1h-1.1V-129.1z
							 M490.4-134.5h1.1v-1.1h-1.1V-134.5z M490.4-128h1.1v-1.1h-1.1V-128z M491.5-124.8h1.1v-1.1h-1.1V-124.8z M490.4-125.9h1.1
							v-1.1h-1.1V-125.9z M491.5-127h1.1v-1.1h-1.1V-127z M490.4-130.2h1.1v-1.1h-1.1V-130.2z M490.4-132.3h1.1v-1.1h-1.1V-132.3z
							 M491.5-133.4h1.1v-1.1h-1.1V-133.4z M490.4-123.8h1.1v-1.1h-1.1V-123.8z M493.6-144.1h-1.1v1.1h1.1V-144.1z M493.6-142h-1.1
							v1.1h1.1V-142z M490.4-145.2h1.1v-1.1h-1.1V-145.2z M492.5-147.3h-1.1v1.1h1.1V-147.3z M493.6-146.3h-1.1v1.1h1.1V-146.3z
							 M491.5-144.1h1.1v-1.1h-1.1V-144.1z M491.5-139.8h1.1v-1.1h-1.1V-139.8z M490.4-143h1.1v-1.1h-1.1V-143z M490.4-140.9h1.1
							v-1.1h-1.1V-140.9z M491.5-142h1.1v-1.1h-1.1V-142z"/>
					</g>
				</g>
			</g>
		</g>
	</g>
	<path class="st1" d="M543.4-158H492c-2.4,0-4.3,1.9-4.3,4.3v39.6c0,2.4,1.9,4.3,4.3,4.3h51.4c2.4,0,4.3-1.9,4.3-4.3v-39.6
		C547.7-156.1,545.8-158,543.4-158 M492-112c-1.2,0-2.1-1-2.1-2.1v-33.2h55.7v33.2c0,1.2-1,2.1-2.1,2.1H492L492-112z M545.6-149.5
		h-55.7v-4.3c0-1.2,1-2.1,2.1-2.1h51.4c1.2,0,2.1,1,2.1,2.1L545.6-149.5L545.6-149.5z"/>
	<rect x="487.7" y="-158" class="st16" width="60" height="48.2"/>
	<rect x="500.6" y="-142.8" class="st4" width="8.5" height="6.4"/>
	<rect x="511.3" y="-142.8" class="st4" width="8.5" height="6.4"/>
	<path class="st4" d="M529.4-141.7v4.1h-6.2v-4.1H529.4 M530.5-142.8H522v6.4h8.5V-142.8L530.5-142.8z"/>
	<path class="st4" d="M507.9-132.2v4.1h-6.2v-4.1H507.9 M509-133.3h-8.5v6.4h8.5V-133.3L509-133.3z"/>
	<path class="st4" d="M518.7-132.2v4.1h-6.2v-4.1H518.7 M519.8-133.3h-8.5v6.4h8.5V-133.3L519.8-133.3z"/>
	<path class="st4" d="M529.4-132.2v4.1h-6.2v-4.1H529.4 M530.5-133.3H522v6.4h8.5V-133.3L530.5-133.3z"/>
	<path class="st4" d="M507.9-122.6v4.1h-6.2v-4.1H507.9 M509-123.8h-8.5v6.4h8.5V-123.8L509-123.8z"/>
	<path class="st4" d="M518.7-122.6v4.1h-6.2v-4.1H518.7 M519.8-123.8h-8.5v6.4h8.5V-123.8L519.8-123.8z"/>
	<path class="st4" d="M529.4-122.6v4.1h-6.2v-4.1H529.4 M530.5-123.8H522v6.4h8.5V-123.8L530.5-123.8z"/>
	<path class="st4" d="M540.7-141.7v4.1h-6.2v-4.1H540.7 M541.9-142.8h-8.5v6.4h8.5V-142.8L541.9-142.8z"/>
	<path class="st4" d="M540.7-132.2v4.1h-6.2v-4.1H540.7 M541.9-133.3h-8.5v6.4h8.5V-133.3L541.9-133.3z"/>
	<path class="st4" d="M540.7-122.6v4.1h-6.2v-4.1H540.7 M541.9-123.8h-8.5v6.4h8.5V-123.8L541.9-123.8z"/>
</g>
<g id="bottom-lines">
	<g>
		<path class="st4" d="M927,42.6h-1.2v-1.8h1.2v-0.7c0-1.1,0.3-1.9,0.8-2.4s1.2-0.8,2.1-0.8c0.8,0,1.3,0.1,1.8,0.3V39
			c-0.4-0.1-0.8-0.2-1.3-0.2c-0.8,0-1.3,0.5-1.3,1.4v0.5h2.5v1.8h-2.5v7.6H927V42.6L927,42.6z"/>
		<path class="st4" d="M932.6,45.6L932.6,45.6c0-2.8,1.9-5,4.6-5c3,0,4.6,2.4,4.6,5.1c0,0.2,0,0.4,0,0.6h-7c0.2,1.5,1.3,2.4,2.7,2.4
			c1.1,0,1.8-0.4,2.6-1.1l1.3,1.1c-0.9,1.1-2.1,1.8-3.9,1.8C934.7,50.5,932.6,48.5,932.6,45.6z M939.6,44.9c-0.1-1.4-1-2.5-2.4-2.5
			c-1.3,0-2.3,1-2.5,2.5H939.6z"/>
		<path class="st4" d="M943.5,45.5L943.5,45.5c0-3.2,2.1-5,4.4-5c1.6,0,2.6,0.8,3.2,1.7v-5.1h2.2v13.1h-2.2v-1.6
			c-0.7,1-1.7,1.8-3.2,1.8C945.7,50.5,943.5,48.7,943.5,45.5z M951.2,45.5L951.2,45.5c0-1.9-1.3-3.1-2.8-3.1s-2.7,1.2-2.7,3l0,0
			c0,1.8,1.3,3,2.7,3C949.9,48.6,951.2,47.4,951.2,45.5z"/>
		<path class="st4" d="M955.5,45.6L955.5,45.6c0-2.8,1.9-5,4.6-5c3,0,4.6,2.4,4.6,5.1c0,0.2,0,0.4,0,0.6h-7c0.2,1.5,1.3,2.4,2.7,2.4
			c1.1,0,1.8-0.4,2.6-1.1l1.3,1.1c-0.9,1.1-2.1,1.8-3.9,1.8C957.7,50.5,955.5,48.5,955.5,45.6z M962.6,44.9c-0.1-1.4-1-2.5-2.4-2.5
			c-1.3,0-2.3,1-2.5,2.5H962.6z"/>
		<path class="st4" d="M966.9,40.8h2.2v2.1c0.6-1.4,1.7-2.4,3.4-2.3v2.3h-0.1c-1.9,0-3.2,1.2-3.2,3.8v3.6H967L966.9,40.8L966.9,40.8
			z"/>
		<path class="st4" d="M979.7,50.3v-1.2c-0.6,0.8-1.6,1.4-3.1,1.4c-1.8,0-3.4-1-3.4-2.9l0,0c0-2.1,1.6-3.1,3.9-3.1
			c1.2,0,1.9,0.2,2.6,0.4v-0.2c0-1.3-0.8-2-2.3-2c-1.1,0-1.9,0.2-2.7,0.6l-0.6-1.7c1-0.5,2.1-0.8,3.6-0.8c2.8,0,4.2,1.5,4.2,4v5.6
			h-2.2V50.3z M979.8,46.3c-0.6-0.2-1.3-0.4-2.2-0.4c-1.4,0-2.2,0.6-2.2,1.5l0,0c0,0.9,0.8,1.4,1.8,1.4c1.4,0,2.5-0.8,2.5-2
			L979.8,46.3L979.8,46.3z"/>
		<path class="st4" d="M984.8,47.6v-5h-1.2v-1.9h1.2v-2.6h2.2v2.6h2.6v1.9H987v4.7c0,0.8,0.4,1.2,1.2,1.2c0.5,0,0.9-0.1,1.3-0.3V50
			c-0.5,0.3-1.2,0.5-2,0.5C986,50.4,984.8,49.7,984.8,47.6z"/>
		<path class="st4" d="M991.8,37.2h2.3v2.1h-2.3V37.2z M991.9,40.8h2.2v9.5h-2.2V40.8z"/>
		<path class="st4" d="M996.4,45.6L996.4,45.6c0-2.8,2.2-5,5.1-5s5.1,2.2,5.1,4.9l0,0c0,2.7-2.2,5-5.1,5
			C998.5,50.5,996.4,48.3,996.4,45.6z M1004.3,45.6L1004.3,45.6c0-1.7-1.2-3.1-2.9-3.1c-1.7,0-2.9,1.4-2.9,3l0,0
			c0,1.7,1.2,3.1,2.9,3.1C1003.2,48.6,1004.3,47.2,1004.3,45.6z"/>
		<path class="st4" d="M1008.7,40.8h2.2v1.5c0.6-0.9,1.5-1.7,3-1.7c2.1,0,3.4,1.4,3.4,3.7v6h-2.2v-5.4c0-1.5-0.7-2.3-2-2.3
			s-2.1,0.9-2.1,2.4v5.4h-2.2v-9.6L1008.7,40.8L1008.7,40.8z"/>
		<path class="st4" d="M1024.8,45.6L1024.8,45.6c0-2.8,2.2-5,5.1-5s5.1,2.2,5.1,4.9l0,0c0,2.7-2.2,5-5.1,5
			C1026.9,50.5,1024.8,48.3,1024.8,45.6z M1032.7,45.6L1032.7,45.6c0-1.7-1.2-3.1-2.9-3.1c-1.7,0-2.9,1.4-2.9,3l0,0
			c0,1.7,1.2,3.1,2.9,3.1C1031.6,48.6,1032.7,47.2,1032.7,45.6z"/>
		<path class="st4" d="M1037.6,42.6h-1.2v-1.8h1.2v-0.7c0-1.1,0.3-1.9,0.8-2.4s1.2-0.8,2.1-0.8c0.8,0,1.3,0.1,1.8,0.3V39
			c-0.4-0.1-0.8-0.2-1.3-0.2c-0.8,0-1.3,0.5-1.3,1.4v0.5h2.5v1.8h-2.5v7.6h-2.2L1037.6,42.6L1037.6,42.6z"/>
		<path class="st4" d="M1055.1,50.3v-1.2c-0.6,0.8-1.6,1.4-3.1,1.4c-1.8,0-3.4-1-3.4-2.9l0,0c0-2.1,1.6-3.1,3.9-3.1
			c1.2,0,1.9,0.2,2.6,0.4v-0.2c0-1.3-0.8-2-2.3-2c-1.1,0-1.9,0.2-2.7,0.6l-0.6-1.7c1-0.5,2.1-0.8,3.6-0.8c2.8,0,4.2,1.5,4.2,4v5.6
			h-2.2V50.3z M1055.2,46.3c-0.6-0.2-1.3-0.4-2.2-0.4c-1.4,0-2.2,0.6-2.2,1.5l0,0c0,0.9,0.8,1.4,1.8,1.4c1.4,0,2.5-0.8,2.5-2
			L1055.2,46.3L1055.2,46.3z"/>
		<path class="st4" d="M1059.8,46.8v-6h2.2v5.4c0,1.5,0.7,2.3,2,2.3s2.1-0.9,2.1-2.4v-5.4h2.2v9.5h-2.2v-1.5c-0.6,0.9-1.5,1.7-3,1.7
			C1061,50.5,1059.8,49,1059.8,46.8z"/>
		<path class="st4" d="M1071.5,47.6v-5h-1.2v-1.9h1.2v-2.6h2.2v2.6h2.6v1.9h-2.6v4.7c0,0.8,0.4,1.2,1.2,1.2c0.5,0,0.9-0.1,1.3-0.3
			V50c-0.5,0.3-1.2,0.5-2,0.5C1072.6,50.4,1071.5,49.7,1071.5,47.6z"/>
		<path class="st4" d="M1078.4,37.1h2.2v5.1c0.6-0.9,1.5-1.7,3-1.7c2.1,0,3.4,1.4,3.4,3.7v6h-2.2v-5.4c0-1.5-0.7-2.3-2-2.3
			s-2.1,0.9-2.1,2.4v5.4h-2.2V37.1H1078.4z"/>
		<path class="st4" d="M1089,45.6L1089,45.6c0-2.8,2.2-5,5.1-5s5.1,2.2,5.1,4.9l0,0c0,2.7-2.2,5-5.1,5S1089,48.3,1089,45.6z
			 M1097,45.6L1097,45.6c0-1.7-1.2-3.1-2.9-3.1c-1.7,0-2.9,1.4-2.9,3l0,0c0,1.7,1.2,3.1,2.9,3.1C1095.9,48.6,1097,47.2,1097,45.6z"
			/>
		<path class="st4" d="M1101.4,40.8h2.2v2.1c0.6-1.4,1.7-2.4,3.4-2.3v2.3h-0.1c-1.9,0-3.2,1.2-3.2,3.8v3.6h-2.2v-9.5L1101.4,40.8
			L1101.4,40.8z"/>
		<path class="st4" d="M1108.9,37.2h2.3v2.1h-2.3V37.2z M1108.9,40.8h2.2v9.5h-2.2V40.8z"/>
		<path class="st4" d="M1114.4,47.6v-5h-1.2v-1.9h1.2v-2.6h2.2v2.6h2.6v1.9h-2.6v4.7c0,0.8,0.4,1.2,1.2,1.2c0.5,0,0.9-0.1,1.3-0.3
			V50c-0.5,0.3-1.2,0.5-2,0.5C1115.6,50.4,1114.4,49.7,1114.4,47.6z"/>
		<path class="st4" d="M1127.2,50.3v-1.2c-0.6,0.8-1.6,1.4-3.1,1.4c-1.8,0-3.4-1-3.4-2.9l0,0c0-2.1,1.6-3.1,3.9-3.1
			c1.2,0,1.9,0.2,2.6,0.4v-0.2c0-1.3-0.8-2-2.3-2c-1.1,0-1.9,0.2-2.7,0.6l-0.6-1.7c1-0.5,2.1-0.8,3.6-0.8c2.8,0,4.2,1.5,4.2,4v5.6
			h-2.2V50.3z M1127.2,46.3c-0.6-0.2-1.3-0.4-2.2-0.4c-1.4,0-2.2,0.6-2.2,1.5l0,0c0,0.9,0.8,1.4,1.8,1.4c1.4,0,2.5-0.8,2.5-2
			L1127.2,46.3L1127.2,46.3z"/>
		<path class="st4" d="M1132.3,47.6v-5h-1.2v-1.9h1.2v-2.6h2.2v2.6h2.6v1.9h-2.6v4.7c0,0.8,0.4,1.2,1.2,1.2c0.5,0,0.9-0.1,1.3-0.3
			V50c-0.5,0.3-1.2,0.5-2,0.5C1133.4,50.4,1132.3,49.7,1132.3,47.6z"/>
		<path class="st4" d="M1139.2,37.2h2.3v2.1h-2.3V37.2z M1139.3,40.8h2.2v9.5h-2.2V40.8z"/>
		<path class="st4" d="M1143.4,40.8h2.3l2.6,7l2.6-7h2.3l-3.9,9.6h-2L1143.4,40.8z"/>
		<path class="st4" d="M1154,45.6L1154,45.6c0-2.8,1.9-5,4.6-5c3,0,4.6,2.4,4.6,5.1c0,0.2,0,0.4,0,0.6h-7c0.2,1.5,1.3,2.4,2.7,2.4
			c1.1,0,1.8-0.4,2.6-1.1l1.3,1.1c-0.9,1.1-2.1,1.8-3.9,1.8C1156.1,50.5,1154,48.5,1154,45.6z M1161,44.9c-0.1-1.4-1-2.5-2.4-2.5
			c-1.3,0-2.3,1-2.5,2.5H1161z"/>
		<path class="st4" d="M1170.3,45.5L1170.3,45.5c0-3.2,2.1-5,4.4-5c1.6,0,2.6,0.8,3.2,1.7v-5.1h2.2v13.1h-2.2v-1.6
			c-0.7,1-1.7,1.8-3.2,1.8C1172.5,50.5,1170.3,48.7,1170.3,45.5z M1178,45.5L1178,45.5c0-1.9-1.3-3.1-2.8-3.1s-2.7,1.2-2.7,3l0,0
			c0,1.8,1.3,3,2.7,3C1176.7,48.6,1178,47.4,1178,45.5z"/>
		<path class="st4" d="M1188.7,50.3v-1.2c-0.6,0.8-1.6,1.4-3.1,1.4c-1.8,0-3.4-1-3.4-2.9l0,0c0-2.1,1.6-3.1,3.9-3.1
			c1.2,0,1.9,0.2,2.6,0.4v-0.2c0-1.3-0.8-2-2.3-2c-1.1,0-1.9,0.2-2.7,0.6l-0.7-1.9c1-0.5,2.1-0.8,3.6-0.8c2.8,0,4.2,1.5,4.2,4v5.6
			L1188.7,50.3L1188.7,50.3z M1188.7,46.3c-0.6-0.2-1.3-0.4-2.2-0.4c-1.4,0-2.2,0.6-2.2,1.5l0,0c0,0.9,0.8,1.4,1.8,1.4
			c1.4,0,2.5-0.8,2.5-2L1188.7,46.3L1188.7,46.3z"/>
		<path class="st4" d="M1193.8,47.6v-5h-1.2v-1.9h1.2v-2.6h2.2v2.6h2.6v1.9h-2.6v4.7c0,0.8,0.4,1.2,1.2,1.2c0.5,0,0.9-0.1,1.3-0.3
			V50c-0.5,0.3-1.2,0.5-2,0.5C1194.9,50.4,1193.8,49.7,1193.8,47.6z"/>
		<path class="st4" d="M1206.5,50.3v-1.2c-0.6,0.8-1.6,1.4-3.1,1.4c-1.8,0-3.4-1-3.4-2.9l0,0c0-2.1,1.6-3.1,3.9-3.1
			c1.2,0,1.9,0.2,2.6,0.4v-0.2c0-1.3-0.8-2-2.3-2c-1.1,0-1.9,0.2-2.7,0.6l-0.6-1.7c1-0.5,2.1-0.8,3.6-0.8c2.8,0,4.2,1.5,4.2,4v5.6
			h-2.2V50.3z M1206.6,46.3c-0.6-0.2-1.3-0.4-2.2-0.4c-1.4,0-2.2,0.6-2.2,1.5l0,0c0,0.9,0.8,1.4,1.8,1.4c1.4,0,2.5-0.8,2.5-2
			L1206.6,46.3L1206.6,46.3z"/>
		<path class="st4" d="M1215.9,49l1-1.5c1,0.8,2.1,1.2,3.1,1.2c0.9,0,1.5-0.4,1.5-1l0,0c0-0.7-1-1-2.1-1.3c-1.4-0.4-3-1-3-2.8l0,0
			c0-1.8,1.5-2.9,3.4-2.9c1.2,0,2.5,0.4,3.5,1.1l-0.9,1.5c-0.9-0.6-1.9-0.9-2.7-0.9c-0.8,0-1.3,0.4-1.3,1l0,0c0,0.7,1,1,2.1,1.3
			c1.4,0.4,3,1.1,3,2.8l0,0c0,2-1.5,3-3.5,3C1218.6,50.5,1217.1,50,1215.9,49z"/>
		<path class="st4" d="M1225.2,45.6L1225.2,45.6c0-2.8,2.2-5,5.1-5s5.1,2.2,5.1,4.9l0,0c0,2.7-2.2,5-5.1,5
			C1227.3,50.5,1225.2,48.3,1225.2,45.6z M1233.1,45.6L1233.1,45.6c0-1.7-1.2-3.1-2.9-3.1c-1.7,0-2.9,1.4-2.9,3l0,0
			c0,1.7,1.2,3.1,2.9,3.1C1232,48.6,1233.1,47.2,1233.1,45.6z"/>
		<path class="st4" d="M1237.4,46.8v-6h2.2v5.4c0,1.5,0.7,2.3,2,2.3s2.1-0.9,2.1-2.4v-5.4h2.2v9.5h-2.2v-1.5c-0.6,0.9-1.5,1.7-3,1.7
			C1238.6,50.5,1237.4,49,1237.4,46.8z"/>
		<path class="st4" d="M1248.7,40.8h2.2v2.1c0.6-1.4,1.7-2.4,3.4-2.3v2.3h-0.1c-1.9,0-3.2,1.2-3.2,3.8v3.6h-2.2v-9.5L1248.7,40.8
			L1248.7,40.8z"/>
		<path class="st4" d="M1255.2,45.6L1255.2,45.6c0-2.7,2.1-5,4.9-5c1.8,0,2.9,0.7,3.8,1.6l-1.4,1.5c-0.7-0.7-1.4-1.2-2.5-1.2
			c-1.6,0-2.7,1.4-2.7,3l0,0c0,1.7,1.2,3.1,2.8,3.1c1,0,1.8-0.5,2.5-1.2l1.3,1.3c-0.9,1-2,1.8-3.9,1.8
			C1257.3,50.5,1255.2,48.3,1255.2,45.6z"/>
		<path class="st4" d="M1265.3,45.6L1265.3,45.6c0-2.8,1.9-5,4.6-5c3,0,4.6,2.4,4.6,5.1c0,0.2,0,0.4,0,0.6h-7
			c0.2,1.5,1.3,2.4,2.7,2.4c1.1,0,1.8-0.4,2.6-1.1l1.3,1.1c-0.9,1.1-2.1,1.8-3.9,1.8C1267.4,50.5,1265.3,48.5,1265.3,45.6z
			 M1272.3,44.9c-0.1-1.4-1-2.5-2.4-2.5c-1.3,0-2.3,1-2.5,2.5H1272.3z"/>
		<path class="st4" d="M1275.9,49l1-1.5c1,0.8,2.1,1.2,3.1,1.2c0.9,0,1.5-0.4,1.5-1l0,0c0-0.7-1-1-2.1-1.3c-1.4-0.4-3-1-3-2.8l0,0
			c0-1.8,1.5-2.9,3.4-2.9c1.2,0,2.5,0.4,3.5,1.1l-0.9,1.5c-0.9-0.6-1.9-0.9-2.7-0.9c-0.8,0-1.3,0.4-1.3,1l0,0c0,0.7,1,1,2.1,1.3
			c1.4,0.4,3,1.1,3,2.8l0,0c0,2-1.5,3-3.5,3C1278.6,50.5,1277.1,50,1275.9,49z"/>
	</g>
	<g>
		<g>
			<line class="st17" x1="401" y1="67.4" x2="1299" y2="67.4"/>
			<g>
				<rect x="399.5" y="57.6" class="st4" width="3" height="19.5"/>
			</g>
			<g>
				<rect x="1297.5" y="57.6" class="st4" width="3" height="19.5"/>
			</g>
		</g>
	</g>
	<g>
		<path class="st18" d="M867.9,127.3L867.9,127.3c0-3.2,2.1-5,4.4-5c1.6,0,2.6,0.8,3.2,1.7v-5.1h2.2V132h-2.2v-1.6
			c-0.7,1-1.7,1.8-3.2,1.8C870.1,132.2,867.9,130.4,867.9,127.3z M875.6,127.3L875.6,127.3c0-1.9-1.3-3.1-2.8-3.1s-2.7,1.2-2.7,3
			l0,0c0,1.8,1.3,3,2.7,3C874.3,130.3,875.6,129.1,875.6,127.3z"/>
		<path class="st18" d="M886.3,132v-1.2c-0.6,0.8-1.6,1.4-3.1,1.4c-1.8,0-3.4-1-3.4-2.9l0,0c0-2.1,1.6-3.1,3.9-3.1
			c1.2,0,1.9,0.2,2.6,0.4v-0.2c0-1.3-0.8-2-2.3-2c-1.1,0-1.9,0.2-2.7,0.6l-0.6-1.7c1-0.5,2.1-0.8,3.6-0.8c2.8,0,4.2,1.5,4.2,4v5.6
			L886.3,132L886.3,132z M886.3,128c-0.6-0.2-1.3-0.4-2.2-0.4c-1.4,0-2.2,0.6-2.2,1.5l0,0c0,0.9,0.8,1.4,1.8,1.4
			c1.4,0,2.5-0.8,2.5-2L886.3,128L886.3,128z"/>
		<path class="st18" d="M891.4,129.4v-5h-1.2v-1.9h1.2v-2.6h2.2v2.6h2.6v1.9h-2.6v4.7c0,0.8,0.4,1.2,1.2,1.2c0.5,0,0.9-0.1,1.3-0.3
			v1.8c-0.5,0.3-1.2,0.5-2,0.5C892.5,132.2,891.4,131.5,891.4,129.4z"/>
		<path class="st18" d="M904.1,132v-1.2c-0.6,0.8-1.6,1.4-3.1,1.4c-1.8,0-3.4-1-3.4-2.9l0,0c0-2.1,1.6-3.1,3.9-3.1
			c1.2,0,1.9,0.2,2.6,0.4v-0.2c0-1.3-0.8-2-2.3-2c-1.1,0-1.9,0.2-2.7,0.6l-0.6-1.7c1-0.5,2.1-0.8,3.6-0.8c2.8,0,4.2,1.5,4.2,4v5.6
			L904.1,132L904.1,132z M904.2,128c-0.6-0.2-1.3-0.4-2.2-0.4c-1.4,0-2.2,0.6-2.2,1.5l0,0c0,0.9,0.8,1.4,1.8,1.4
			c1.4,0,2.5-0.8,2.5-2L904.2,128L904.2,128z"/>
		<path class="st18" d="M913.8,127.3L913.8,127.3c0-2.7,2.1-5,4.9-5c1.8,0,2.9,0.7,3.8,1.6l-1.4,1.5c-0.7-0.7-1.4-1.2-2.5-1.2
			c-1.6,0-2.7,1.4-2.7,3l0,0c0,1.7,1.2,3.1,2.8,3.1c1,0,1.8-0.5,2.5-1.2l1.3,1.3c-0.9,1-2,1.8-3.9,1.8
			C915.9,132.2,913.8,130,913.8,127.3z"/>
		<path class="st18" d="M923.8,127.3L923.8,127.3c0-2.8,2.2-5,5.1-5s5.1,2.2,5.1,4.9l0,0c0,2.7-2.2,5-5.1,5
			C925.9,132.2,923.8,130,923.8,127.3z M931.7,127.3L931.7,127.3c0-1.7-1.2-3.1-2.9-3.1c-1.7,0-2.9,1.4-2.9,3l0,0
			c0,1.7,1.2,3.1,2.9,3.1C930.6,130.3,931.7,129,931.7,127.3z"/>
		<path class="st18" d="M936.1,122.5h2.2v1.5c0.6-0.9,1.5-1.7,3-1.7c2.1,0,3.4,1.4,3.4,3.7v6h-2.2v-5.4c0-1.5-0.7-2.3-2-2.3
			s-2.1,0.9-2.1,2.4v5.4h-2.2L936.1,122.5L936.1,122.5z"/>
		<path class="st18" d="M947.7,129.4v-5h-1.2v-1.9h1.2v-2.6h2.2v2.6h2.6v1.9h-2.6v4.7c0,0.8,0.4,1.2,1.2,1.2c0.5,0,0.9-0.1,1.3-0.3
			v1.8c-0.5,0.3-1.2,0.5-2,0.5C948.9,132.2,947.7,131.5,947.7,129.4z"/>
		<path class="st18" d="M954.7,122.5h2.2v2.1c0.6-1.4,1.7-2.4,3.4-2.3v2.3h-0.1c-1.9,0-3.2,1.2-3.2,3.8v3.6h-2.2v-9.5H954.7z"/>
		<path class="st18" d="M962.1,119h2.3v2.1h-2.3V119z M962.2,122.5h2.2v9.5h-2.2V122.5z"/>
		<path class="st18" d="M969.4,130.5v1.5h-2.2v-13.1h2.2v5.2c0.7-1,1.7-1.8,3.2-1.8c2.3,0,4.4,1.8,4.4,4.9l0,0
			c0,3.2-2.2,4.9-4.4,4.9C971.1,132.2,970.1,131.4,969.4,130.5z M974.9,127.3L974.9,127.3c0-1.9-1.2-3.1-2.7-3.1s-2.8,1.2-2.8,3l0,0
			c0,1.8,1.3,3,2.8,3C973.6,130.3,974.9,129.2,974.9,127.3z"/>
		<path class="st18" d="M979.2,128.6v-6h2.2v5.4c0,1.5,0.7,2.3,2,2.3s2.1-0.9,2.1-2.4v-5.4h2.2v9.5h-2.2v-1.5
			c-0.6,0.9-1.5,1.7-3,1.7C980.4,132.2,979.2,130.8,979.2,128.6z"/>
		<path class="st18" d="M990.9,129.4v-5h-1.2v-1.9h1.2v-2.6h2.2v2.6h2.6v1.9h-2.6v4.7c0,0.8,0.4,1.2,1.2,1.2c0.5,0,0.9-0.1,1.3-0.3
			v1.8c-0.5,0.3-1.2,0.5-2,0.5C992.1,132.2,990.9,131.5,990.9,129.4z"/>
		<path class="st18" d="M997.1,127.3L997.1,127.3c0-2.8,1.9-5,4.6-5c3,0,4.6,2.4,4.6,5.1c0,0.2,0,0.4,0,0.6h-7
			c0.2,1.5,1.3,2.4,2.7,2.4c1.1,0,1.8-0.4,2.6-1.1l1.3,1.1c-0.9,1.1-2.1,1.8-3.9,1.8C999.2,132.2,997.1,130.2,997.1,127.3z
			 M1004.1,126.6c-0.1-1.4-1-2.5-2.4-2.5c-1.3,0-2.3,1-2.5,2.5H1004.1z"/>
		<path class="st18" d="M1008,127.3L1008,127.3c0-3.2,2.1-5,4.4-5c1.6,0,2.6,0.8,3.2,1.7v-5.1h2.2V132h-2.2v-1.6
			c-0.7,1-1.7,1.8-3.2,1.8C1010.1,132.2,1008,130.4,1008,127.3z M1015.7,127.3L1015.7,127.3c0-1.9-1.3-3.1-2.8-3.1s-2.7,1.2-2.7,3
			l0,0c0,1.8,1.3,3,2.7,3C1014.4,130.3,1015.7,129.1,1015.7,127.3z"/>
		<path class="st18" d="M1031.7,132v-1.2c-0.6,0.8-1.6,1.4-3.1,1.4c-1.8,0-3.4-1-3.4-2.9l0,0c0-2.1,1.6-3.1,3.9-3.1
			c1.2,0,1.9,0.2,2.6,0.4v-0.2c0-1.3-0.8-2-2.3-2c-1.1,0-1.9,0.2-2.7,0.6l-0.6-1.7c1-0.5,2.1-0.8,3.6-0.8c2.8,0,4.2,1.5,4.2,4v5.6
			L1031.7,132L1031.7,132z M1031.8,128c-0.6-0.2-1.3-0.4-2.2-0.4c-1.4,0-2.2,0.6-2.2,1.5l0,0c0,0.9,0.8,1.4,1.8,1.4
			c1.4,0,2.5-0.8,2.5-2L1031.8,128L1031.8,128z"/>
		<path class="st18" d="M1036.5,122.5h2.2v1.5c0.6-0.9,1.5-1.7,3-1.7c2.1,0,3.4,1.4,3.4,3.7v6h-2.2v-5.4c0-1.5-0.7-2.3-2-2.3
			s-2.1,0.9-2.1,2.4v5.4h-2.2v-9.6H1036.5z"/>
		<path class="st18" d="M1047.2,127.3L1047.2,127.3c0-3.2,2.1-5,4.4-5c1.6,0,2.6,0.8,3.2,1.7v-5.1h2.2V132h-2.2v-1.6
			c-0.7,1-1.7,1.8-3.2,1.8C1049.3,132.2,1047.2,130.4,1047.2,127.3z M1054.8,127.3L1054.8,127.3c0-1.9-1.3-3.1-2.8-3.1
			s-2.7,1.2-2.7,3l0,0c0,1.8,1.3,3,2.7,3C1053.5,130.3,1054.8,129.1,1054.8,127.3z"/>
		<path class="st18" d="M1065.1,119h2.3v2.1h-2.3V119z M1065.2,122.5h2.2v9.5h-2.2V122.5z"/>
		<path class="st18" d="M1070.2,122.5h2.2v1.4c0.6-0.8,1.4-1.6,2.9-1.6c1.4,0,2.3,0.7,2.8,1.7c0.8-1,1.8-1.7,3.2-1.7
			c2.1,0,3.3,1.3,3.3,3.6v6.1h-2.2v-5.4c0-1.5-0.7-2.3-1.9-2.3c-1.2,0-2,0.8-2,2.4v5.4h-2.2v-5.4c0-1.5-0.7-2.3-1.9-2.3
			c-1.2,0-2,0.9-2,2.4v5.3h-2.2L1070.2,122.5L1070.2,122.5z"/>
		<path class="st18" d="M1087.3,122.5h2.2v1.6c0.7-1,1.7-1.8,3.2-1.8c2.3,0,4.4,1.8,4.4,4.9l0,0c0,3.2-2.2,4.9-4.4,4.9
			c-1.6,0-2.6-0.8-3.2-1.7v4.4h-2.2V122.5z M1095,127.3L1095,127.3c0-1.9-1.2-3.1-2.7-3.1s-2.8,1.2-2.8,3l0,0c0,1.8,1.3,3,2.8,3
			C1093.7,130.3,1095,129.2,1095,127.3z"/>
		<path class="st18" d="M1099.4,122.5h2.2v2.1c0.6-1.4,1.7-2.4,3.4-2.3v2.3h-0.1c-1.9,0-3.2,1.2-3.2,3.8v3.6h-2.2v-9.5H1099.4z"/>
		<path class="st18" d="M1106,127.3L1106,127.3c0-2.8,2.2-5,5.1-5s5.1,2.2,5.1,4.9l0,0c0,2.7-2.2,5-5.1,5
			C1108.1,132.2,1106,130,1106,127.3z M1113.9,127.3L1113.9,127.3c0-1.7-1.2-3.1-2.9-3.1c-1.7,0-2.9,1.4-2.9,3l0,0
			c0,1.7,1.2,3.1,2.9,3.1C1112.8,130.3,1113.9,129,1113.9,127.3z"/>
		<path class="st18" d="M1116.9,122.5h2.3l2.6,7l2.6-7h2.3l-3.9,9.6h-2L1116.9,122.5z"/>
		<path class="st18" d="M1127.4,127.3L1127.4,127.3c0-2.8,1.9-5,4.6-5c3,0,4.6,2.4,4.6,5.1c0,0.2,0,0.4,0,0.6h-7
			c0.2,1.5,1.3,2.4,2.7,2.4c1.1,0,1.8-0.4,2.6-1.1l1.3,1.1c-0.9,1.1-2.1,1.8-3.9,1.8C1129.6,132.2,1127.4,130.2,1127.4,127.3z
			 M1134.5,126.6c-0.1-1.4-1-2.5-2.4-2.5c-1.3,0-2.3,1-2.5,2.5H1134.5z"/>
		<path class="st18" d="M1138.4,127.3L1138.4,127.3c0-3.2,2.1-5,4.4-5c1.6,0,2.6,0.8,3.2,1.7v-5.1h2.2V132h-2.2v-1.6
			c-0.7,1-1.7,1.8-3.2,1.8C1140.5,132.2,1138.4,130.4,1138.4,127.3z M1146,127.3L1146,127.3c0-1.9-1.3-3.1-2.8-3.1s-2.7,1.2-2.7,3
			l0,0c0,1.8,1.3,3,2.7,3C1144.7,130.3,1146,129.1,1146,127.3z"/>
		<path class="st18" d="M1158.5,130.5v1.5h-2.2v-13.1h2.2v5.2c0.7-1,1.7-1.8,3.2-1.8c2.2,0,4.4,1.8,4.4,4.9l0,0
			c0,3.2-2.2,4.9-4.4,4.9C1160.1,132.2,1159.1,131.4,1158.5,130.5z M1163.9,127.3L1163.9,127.3c0-1.9-1.2-3.1-2.7-3.1
			s-2.8,1.2-2.8,3l0,0c0,1.8,1.3,3,2.8,3C1162.7,130.3,1163.9,129.2,1163.9,127.3z"/>
		<path class="st18" d="M1167.6,134.4l0.7-1.6c0.4,0.2,0.8,0.4,1.3,0.4c0.6,0,1-0.3,1.4-1.1l-4-9.5h2.3l2.7,7.1l2.5-7.1h2.3
			l-3.8,9.8c-0.8,1.9-1.6,2.7-3.1,2.7C1168.9,135,1168.3,134.7,1167.6,134.4z"/>
		<path class="st18" d="M1183.5,127.3L1183.5,127.3c0-2.7,2.1-5,4.9-5c1.8,0,2.9,0.7,3.8,1.6l-1.4,1.5c-0.7-0.7-1.4-1.2-2.5-1.2
			c-1.6,0-2.7,1.4-2.7,3l0,0c0,1.7,1.2,3.1,2.8,3.1c1,0,1.8-0.5,2.5-1.2l1.3,1.3c-0.9,1-2,1.8-3.9,1.8
			C1185.6,132.2,1183.5,130,1183.5,127.3z"/>
		<path class="st18" d="M1193.5,127.3L1193.5,127.3c0-2.8,2.2-5,5.1-5s5.1,2.2,5.1,4.9l0,0c0,2.7-2.2,5-5.1,5
			S1193.5,130,1193.5,127.3z M1201.5,127.3L1201.5,127.3c0-1.7-1.2-3.1-2.9-3.1c-1.7,0-2.9,1.4-2.9,3l0,0c0,1.7,1.2,3.1,2.9,3.1
			C1200.4,130.3,1201.5,129,1201.5,127.3z"/>
		<path class="st18" d="M1205.9,122.5h2.2v1.4c0.6-0.8,1.4-1.6,2.9-1.6c1.4,0,2.3,0.7,2.8,1.7c0.8-1,1.8-1.7,3.2-1.7
			c2.1,0,3.3,1.3,3.3,3.6v6.1h-2.2v-5.4c0-1.5-0.7-2.3-1.9-2.3c-1.2,0-2,0.8-2,2.4v5.4h-2.2v-5.4c0-1.5-0.7-2.3-1.9-2.3
			c-1.2,0-2,0.9-2,2.4v5.3h-2.2L1205.9,122.5L1205.9,122.5z"/>
		<path class="st18" d="M1223,122.5h2.2v1.4c0.6-0.8,1.4-1.6,2.9-1.6c1.4,0,2.3,0.7,2.8,1.7c0.8-1,1.8-1.7,3.2-1.7
			c2.1,0,3.3,1.3,3.3,3.6v6.1h-2.2v-5.4c0-1.5-0.7-2.3-1.9-2.3c-1.2,0-2,0.8-2,2.4v5.4h-2.2v-5.4c0-1.5-0.7-2.3-1.9-2.3
			c-1.2,0-2,0.9-2,2.4v5.3h-2.2L1223,122.5L1223,122.5z"/>
		<path class="st18" d="M1240,128.6v-6h2.2v5.4c0,1.5,0.7,2.3,2,2.3s2.1-0.9,2.1-2.4v-5.4h2.2v9.5h-2.2v-1.5c-0.6,0.9-1.5,1.7-3,1.7
			C1241.2,132.2,1240,130.8,1240,128.6z"/>
		<path class="st18" d="M1251.2,122.5h2.2v1.5c0.6-0.9,1.5-1.7,3-1.7c2.1,0,3.4,1.4,3.4,3.7v6h-2.2v-5.4c0-1.5-0.7-2.3-2-2.3
			s-2.1,0.9-2.1,2.4v5.4h-2.2v-9.6H1251.2z"/>
		<path class="st18" d="M1262.4,119h2.3v2.1h-2.3V119z M1262.5,122.5h2.2v9.5h-2.2V122.5z"/>
		<path class="st18" d="M1268,129.4v-5h-1.2v-1.9h1.2v-2.6h2.2v2.6h2.6v1.9h-2.6v4.7c0,0.8,0.4,1.2,1.2,1.2c0.5,0,0.9-0.1,1.3-0.3
			v1.8c-0.5,0.3-1.2,0.5-2,0.5C1269.1,132.2,1268,131.5,1268,129.4z"/>
		<path class="st18" d="M1274.6,134.4l0.7-1.6c0.4,0.2,0.8,0.4,1.3,0.4c0.6,0,1-0.3,1.4-1.1l-4-9.5h2.3l2.7,7.1l2.5-7.1h2.3
			l-3.8,9.8c-0.8,1.9-1.6,2.7-3.1,2.7C1275.9,135,1275.3,134.7,1274.6,134.4z"/>
	</g>
	<g>
		<g>
			<line class="st19" x1="734.1" y1="100.5" x2="1299" y2="100.5"/>
			<g>
				<rect x="732.6" y="90.8" class="st18" width="3" height="19.5"/>
			</g>
			<g>
				<rect x="1297.5" y="90.8" class="st18" width="3" height="19.5"/>
			</g>
		</g>
	</g>
</g>
</svg>
